# This file uses centimeters as units for non-parametric coordinates.

mtllib BowlLemonLime.mtl
g default
v 0.405882 5.199940 -5.275009
v 0.080334 5.199940 -5.462965
v -0.289865 5.199940 -5.397689
v -0.531496 5.199940 -5.109725
v -0.531496 5.199940 -4.733814
v -0.289865 5.199940 -4.445850
v 0.080334 5.199940 -4.380574
v 0.405882 5.199940 -4.568529
v 0.534451 5.199940 -4.921769
v 0.743478 5.644383 -5.558286
v 0.156861 5.644383 -5.896970
v -0.510215 5.644383 -5.779346
v -0.945618 5.644383 -5.260453
v -0.945618 5.644383 -4.583086
v -0.510215 5.644383 -4.064193
v 0.156861 5.644383 -3.946569
v 0.743478 5.644383 -4.285253
v 0.975151 5.644383 -4.921769
v 0.930829 6.286623 -5.715493
v 0.199330 6.286623 -6.137824
v -0.632500 6.286623 -5.991150
v -1.175439 6.286623 -5.344101
v -1.175439 6.286623 -4.499438
v -0.632500 6.286623 -3.852389
v 0.199330 6.286623 -3.705715
v 0.930829 6.286623 -4.128046
v 1.219721 6.286623 -4.921769
v 0.930829 6.999453 -5.715493
v 0.199330 6.999453 -6.137824
v -0.632500 6.999453 -5.991150
v -1.175439 6.999453 -5.344101
v -1.175439 6.999453 -4.499438
v -0.632500 6.999453 -3.852389
v 0.199330 6.999453 -3.705715
v 0.930829 6.999453 -4.128046
v 1.219721 6.999453 -4.921769
v 0.743478 7.641692 -5.558286
v 0.156861 7.641692 -5.896970
v -0.510215 7.641692 -5.779346
v -0.945618 7.641692 -5.260453
v -0.945618 7.641692 -4.583086
v -0.510215 7.641692 -4.064193
v 0.156861 7.641692 -3.946569
v 0.743478 7.641692 -4.285253
v 0.975151 7.641692 -4.921769
v 0.405882 8.086135 -5.275009
v 0.080334 8.086135 -5.462965
v -0.289865 8.086135 -5.397689
v -0.531496 8.086135 -5.109725
v -0.531496 8.086135 -4.733814
v -0.289865 8.086135 -4.445850
v 0.080334 8.086135 -4.380574
v 0.405882 8.086135 -4.568529
v 0.534451 8.086135 -4.921769
v -0.015093 5.041320 -4.921769
v 0.235572 8.395070 -5.124222
v 0.048991 8.395070 -5.231944
v -0.005701 8.480998 -4.921769
v -0.163181 8.395070 -5.194532
v -0.301666 8.395070 -5.029492
v -0.301666 8.395070 -4.814047
v -0.163181 8.395070 -4.649006
v 0.048991 8.395070 -4.611594
v 0.235572 8.395070 -4.719317
v 0.309259 8.395070 -4.921769
vt 0.000000 0.142857
vt 0.111111 0.142857
vt 0.222222 0.142857
vt 0.333333 0.142857
vt 0.444444 0.142857
vt 0.555556 0.142857
vt 0.666667 0.142857
vt 0.777778 0.142857
vt 0.888889 0.142857
vt 1.000000 0.142857
vt 0.000000 0.285714
vt 0.111111 0.285714
vt 0.222222 0.285714
vt 0.333333 0.285714
vt 0.444444 0.285714
vt 0.555556 0.285714
vt 0.666667 0.285714
vt 0.777778 0.285714
vt 0.888889 0.285714
vt 1.000000 0.285714
vt 0.000000 0.428571
vt 0.111111 0.428571
vt 0.222222 0.428571
vt 0.333333 0.428571
vt 0.444444 0.428571
vt 0.555556 0.428571
vt 0.666667 0.428571
vt 0.777778 0.428571
vt 0.888889 0.428571
vt 1.000000 0.428571
vt 0.000000 0.571429
vt 0.111111 0.571429
vt 0.222222 0.571429
vt 0.333333 0.571429
vt 0.444444 0.571429
vt 0.555556 0.571429
vt 0.666667 0.571429
vt 0.777778 0.571429
vt 0.888889 0.571429
vt 1.000000 0.571429
vt 0.000000 0.714286
vt 0.111111 0.714286
vt 0.222222 0.714286
vt 0.333333 0.714286
vt 0.444444 0.714286
vt 0.555556 0.714286
vt 0.666667 0.714286
vt 0.777778 0.714286
vt 0.888889 0.714286
vt 1.000000 0.714286
vt 0.000000 0.857143
vt 0.111111 0.857143
vt 0.222222 0.857143
vt 0.333333 0.857143
vt 0.444444 0.857143
vt 0.555556 0.857143
vt 0.666667 0.857143
vt 0.777778 0.857143
vt 0.888889 0.857143
vt 1.000000 0.857143
vt 0.055556 0.000000
vt 0.166667 0.000000
vt 0.277778 0.000000
vt 0.388889 0.000000
vt 0.500000 0.000000
vt 0.611111 0.000000
vt 0.722222 0.000000
vt 0.833333 0.000000
vt 0.944444 0.000000
vt 0.055556 1.000000
vt 0.166667 1.000000
vt 0.277778 1.000000
vt 0.388889 1.000000
vt 0.500000 1.000000
vt 0.611111 1.000000
vt 0.722222 1.000000
vt 0.833333 1.000000
vt 0.944444 1.000000
vt 0.000000 0.857143
vt 0.111111 0.857143
vt 0.222222 0.857143
vt 0.333333 0.857143
vt 0.444444 0.857143
vt 0.555556 0.857143
vt 0.666667 0.857143
vt 0.777778 0.857143
vt 0.888889 0.857143
vt 1.000000 0.857143
vn 0.365811 -0.681711 -0.633603
vn 0.365811 -0.681711 -0.633603
vn 0.365811 -0.681711 -0.633603
vn 0.365811 -0.681711 -0.633603
vn -0.127045 -0.681710 -0.720507
vn -0.127045 -0.681711 -0.720507
vn -0.127045 -0.681710 -0.720507
vn -0.127045 -0.681710 -0.720507
vn -0.560455 -0.681711 -0.470277
vn -0.560455 -0.681711 -0.470277
vn -0.560455 -0.681711 -0.470278
vn -0.560455 -0.681711 -0.470278
vn -0.731622 -0.681710 -0.000000
vn -0.731622 -0.681711 -0.000000
vn -0.731622 -0.681710 -0.000000
vn -0.731622 -0.681710 -0.000000
vn -0.560455 -0.681711 0.470278
vn -0.560455 -0.681711 0.470278
vn -0.560455 -0.681711 0.470278
vn -0.560455 -0.681711 0.470278
vn -0.127045 -0.681710 0.720507
vn -0.127045 -0.681710 0.720507
vn -0.127045 -0.681710 0.720507
vn -0.127045 -0.681710 0.720507
vn 0.365811 -0.681711 0.633603
vn 0.365811 -0.681711 0.633603
vn 0.365811 -0.681710 0.633603
vn 0.365811 -0.681710 0.633603
vn 0.687500 -0.681711 0.250229
vn 0.687500 -0.681710 0.250229
vn 0.687500 -0.681711 0.250229
vn 0.687500 -0.681711 0.250229
vn 0.687500 -0.681711 -0.250229
vn 0.687500 -0.681710 -0.250229
vn 0.687500 -0.681710 -0.250229
vn 0.687500 -0.681710 -0.250229
vn 0.470767 -0.336921 -0.815391
vn 0.470767 -0.336921 -0.815391
vn 0.470767 -0.336921 -0.815391
vn 0.470767 -0.336921 -0.815391
vn -0.163496 -0.336921 -0.927229
vn -0.163495 -0.336921 -0.927229
vn -0.163495 -0.336921 -0.927229
vn -0.163495 -0.336921 -0.927229
vn -0.721256 -0.336921 -0.605206
vn -0.721256 -0.336921 -0.605206
vn -0.721256 -0.336921 -0.605206
vn -0.721256 -0.336921 -0.605206
vn -0.941533 -0.336921 0.000000
vn -0.941533 -0.336921 0.000000
vn -0.941533 -0.336921 0.000000
vn -0.941533 -0.336921 0.000000
vn -0.721256 -0.336920 0.605206
vn -0.721256 -0.336920 0.605206
vn -0.721256 -0.336920 0.605206
vn -0.721256 -0.336920 0.605206
vn -0.163496 -0.336921 0.927229
vn -0.163496 -0.336921 0.927229
vn -0.163496 -0.336921 0.927229
vn -0.163496 -0.336921 0.927229
vn 0.470767 -0.336921 0.815392
vn 0.470767 -0.336921 0.815392
vn 0.470767 -0.336921 0.815392
vn 0.470767 -0.336921 0.815392
vn 0.884752 -0.336921 0.322023
vn 0.884752 -0.336921 0.322023
vn 0.884752 -0.336921 0.322023
vn 0.884752 -0.336921 0.322023
vn 0.884752 -0.336921 -0.322023
vn 0.884752 -0.336921 -0.322023
vn 0.884752 -0.336921 -0.322023
vn 0.884752 -0.336921 -0.322023
vn 0.500000 0.000000 -0.866025
vn 0.500000 0.000000 -0.866025
vn 0.500000 0.000000 -0.866025
vn 0.500000 0.000000 -0.866025
vn -0.173648 0.000000 -0.984808
vn -0.173648 0.000000 -0.984808
vn -0.173648 0.000000 -0.984808
vn -0.173648 0.000000 -0.984808
vn -0.766044 0.000000 -0.642788
vn -0.766044 0.000000 -0.642788
vn -0.766044 0.000000 -0.642788
vn -0.766044 0.000000 -0.642788
vn -1.000000 0.000000 0.000000
vn -1.000000 0.000000 0.000000
vn -1.000000 0.000000 0.000000
vn -1.000000 0.000000 0.000000
vn -0.766044 0.000000 0.642788
vn -0.766044 0.000000 0.642788
vn -0.766044 0.000000 0.642788
vn -0.766044 0.000000 0.642788
vn -0.173648 0.000000 0.984808
vn -0.173648 0.000000 0.984808
vn -0.173648 0.000000 0.984808
vn -0.173648 0.000000 0.984808
vn 0.500000 0.000000 0.866025
vn 0.500000 0.000000 0.866025
vn 0.500000 0.000000 0.866025
vn 0.500000 0.000000 0.866025
vn 0.939693 0.000000 0.342020
vn 0.939693 0.000000 0.342020
vn 0.939693 0.000000 0.342020
vn 0.939693 0.000000 0.342020
vn 0.939693 0.000000 -0.342020
vn 0.939693 0.000000 -0.342020
vn 0.939693 0.000000 -0.342020
vn 0.939693 0.000000 -0.342020
vn 0.470767 0.336921 -0.815391
vn 0.470767 0.336921 -0.815391
vn 0.470767 0.336921 -0.815391
vn 0.470766 0.336921 -0.815391
vn -0.163495 0.336921 -0.927229
vn -0.163495 0.336921 -0.927229
vn -0.163496 0.336921 -0.927229
vn -0.163495 0.336921 -0.927229
vn -0.721256 0.336921 -0.605206
vn -0.721256 0.336921 -0.605206
vn -0.721256 0.336921 -0.605206
vn -0.721256 0.336921 -0.605206
vn -0.941533 0.336921 0.000000
vn -0.941533 0.336921 0.000000
vn -0.941533 0.336921 0.000000
vn -0.941533 0.336921 0.000000
vn -0.721256 0.336921 0.605206
vn -0.721256 0.336921 0.605206
vn -0.721256 0.336921 0.605206
vn -0.721256 0.336921 0.605206
vn -0.163495 0.336921 0.927229
vn -0.163495 0.336921 0.927229
vn -0.163495 0.336921 0.927229
vn -0.163495 0.336921 0.927229
vn 0.470766 0.336921 0.815391
vn 0.470766 0.336921 0.815391
vn 0.470766 0.336921 0.815391
vn 0.470766 0.336921 0.815391
vn 0.884752 0.336921 0.322023
vn 0.884752 0.336921 0.322023
vn 0.884752 0.336921 0.322023
vn 0.884752 0.336921 0.322023
vn 0.884752 0.336921 -0.322023
vn 0.884752 0.336921 -0.322023
vn 0.884752 0.336921 -0.322023
vn 0.884752 0.336921 -0.322023
vn 0.365811 0.681711 -0.633603
vn 0.365811 0.681711 -0.633603
vn 0.365811 0.681711 -0.633603
vn 0.365811 0.681711 -0.633603
vn -0.127045 0.681710 -0.720507
vn -0.127045 0.681710 -0.720507
vn -0.127045 0.681710 -0.720507
vn -0.127045 0.681710 -0.720507
vn -0.560455 0.681711 -0.470277
vn -0.560455 0.681711 -0.470277
vn -0.560455 0.681711 -0.470277
vn -0.560455 0.681711 -0.470277
vn -0.731622 0.681711 0.000000
vn -0.731622 0.681711 0.000000
vn -0.731622 0.681711 0.000000
vn -0.731622 0.681711 0.000000
vn -0.560455 0.681711 0.470278
vn -0.560455 0.681711 0.470278
vn -0.560455 0.681710 0.470278
vn -0.560455 0.681711 0.470278
vn -0.127045 0.681711 0.720507
vn -0.127045 0.681711 0.720507
vn -0.127045 0.681711 0.720507
vn -0.127045 0.681711 0.720507
vn 0.365811 0.681710 0.633603
vn 0.365811 0.681710 0.633603
vn 0.365811 0.681711 0.633603
vn 0.365811 0.681711 0.633603
vn 0.687500 0.681711 0.250229
vn 0.687500 0.681711 0.250229
vn 0.687500 0.681711 0.250229
vn 0.687500 0.681711 0.250229
vn 0.687500 0.681711 -0.250229
vn 0.687500 0.681711 -0.250229
vn 0.687500 0.681711 -0.250229
vn 0.687500 0.681711 -0.250229
vn 0.146812 -0.955921 -0.254286
vn 0.146812 -0.955921 -0.254286
vn 0.146812 -0.955921 -0.254286
vn -0.050987 -0.955921 -0.289164
vn -0.050987 -0.955921 -0.289164
vn -0.050987 -0.955921 -0.289164
vn -0.224930 -0.955921 -0.188738
vn -0.224930 -0.955921 -0.188738
vn -0.224930 -0.955921 -0.188738
vn -0.293625 -0.955921 -0.000000
vn -0.293625 -0.955921 -0.000000
vn -0.293625 -0.955921 -0.000000
vn -0.224930 -0.955921 0.188738
vn -0.224930 -0.955921 0.188738
vn -0.224930 -0.955921 0.188738
vn -0.050987 -0.955921 0.289164
vn -0.050987 -0.955921 0.289164
vn -0.050987 -0.955921 0.289164
vn 0.146812 -0.955921 0.254286
vn 0.146812 -0.955921 0.254286
vn 0.146812 -0.955921 0.254286
vn 0.275917 -0.955921 0.100425
vn 0.275917 -0.955921 0.100425
vn 0.275917 -0.955921 0.100425
vn 0.275917 -0.955921 -0.100425
vn 0.275917 -0.955921 -0.100425
vn 0.275917 -0.955921 -0.100425
vn 0.139408 0.960344 -0.241462
vn 0.139408 0.960344 -0.241462
vn 0.139408 0.960344 -0.241462
vn -0.048416 0.960344 -0.274581
vn -0.048416 0.960344 -0.274581
vn -0.048416 0.960344 -0.274581
vn -0.213586 0.960344 -0.179219
vn -0.213586 0.960344 -0.179219
vn -0.213586 0.960344 -0.179219
vn -0.278816 0.960344 0.000000
vn -0.278816 0.960344 0.000000
vn -0.278816 0.960344 0.000000
vn -0.213586 0.960345 0.179218
vn -0.213586 0.960345 0.179218
vn -0.213586 0.960345 0.179218
vn -0.048416 0.960344 0.274581
vn -0.048416 0.960344 0.274581
vn -0.048416 0.960344 0.274581
vn 0.139408 0.960344 0.241462
vn 0.139408 0.960344 0.241462
vn 0.139408 0.960344 0.241462
vn 0.262002 0.960345 0.095359
vn 0.262002 0.960345 0.095359
vn 0.262002 0.960345 0.095359
vn 0.262002 0.960344 -0.095361
vn 0.262002 0.960344 -0.095361
vn 0.262002 0.960344 -0.095361
vn 0.409936 0.572547 -0.710030
vn 0.409936 0.572547 -0.710030
vn 0.409936 0.572547 -0.710030
vn 0.409936 0.572547 -0.710030
vn -0.141001 0.583673 -0.799653
vn -0.141001 0.583673 -0.799653
vn -0.141001 0.583673 -0.799653
vn -0.141001 0.583672 -0.799653
vn -0.616713 0.593192 -0.517483
vn -0.616713 0.593192 -0.517483
vn -0.616713 0.593192 -0.517483
vn -0.616713 0.593192 -0.517483
vn -0.802327 0.596884 0.000000
vn -0.802327 0.596884 0.000000
vn -0.802327 0.596884 0.000000
vn -0.802327 0.596884 0.000000
vn -0.616713 0.593192 0.517483
vn -0.616713 0.593192 0.517483
vn -0.616713 0.593192 0.517483
vn -0.616713 0.593192 0.517484
vn -0.141001 0.583672 0.799653
vn -0.141001 0.583672 0.799653
vn -0.141001 0.583672 0.799653
vn -0.141001 0.583672 0.799653
vn 0.409936 0.572546 0.710030
vn 0.409936 0.572546 0.710030
vn 0.409936 0.572546 0.710030
vn 0.409936 0.572546 0.710030
vn 0.775261 0.565110 0.282172
vn 0.775261 0.565110 0.282172
vn 0.775261 0.565110 0.282172
vn 0.775261 0.565110 0.282172
vn 0.775261 0.565110 -0.282172
vn 0.775261 0.565110 -0.282172
vn 0.775261 0.565110 -0.282172
vn 0.775261 0.565110 -0.282172
s off
g pSphere2
usemtl initialShadingGroup
f 1/1/1 2/2/2 11/12/3 10/11/4
f 2/2/5 3/3/6 12/13/7 11/12/8
f 3/3/9 4/4/10 13/14/11 12/13/12
f 4/4/13 5/5/14 14/15/15 13/14/16
f 5/5/17 6/6/18 15/16/19 14/15/20
f 6/6/21 7/7/22 16/17/23 15/16/24
f 7/7/25 8/8/26 17/18/27 16/17/28
f 8/8/29 9/9/30 18/19/31 17/18/32
f 9/9/33 1/10/34 10/20/35 18/19/36
f 10/11/37 11/12/38 20/22/39 19/21/40
f 11/12/41 12/13/42 21/23/43 20/22/44
f 12/13/45 13/14/46 22/24/47 21/23/48
f 13/14/49 14/15/50 23/25/51 22/24/52
f 14/15/53 15/16/54 24/26/55 23/25/56
f 15/16/57 16/17/58 25/27/59 24/26/60
f 16/17/61 17/18/62 26/28/63 25/27/64
f 17/18/65 18/19/66 27/29/67 26/28/68
f 18/19/69 10/20/70 19/30/71 27/29/72
f 19/21/73 20/22/74 29/32/75 28/31/76
f 20/22/77 21/23/78 30/33/79 29/32/80
f 21/23/81 22/24/82 31/34/83 30/33/84
f 22/24/85 23/25/86 32/35/87 31/34/88
f 23/25/89 24/26/90 33/36/91 32/35/92
f 24/26/93 25/27/94 34/37/95 33/36/96
f 25/27/97 26/28/98 35/38/99 34/37/100
f 26/28/101 27/29/102 36/39/103 35/38/104
f 27/29/105 19/30/106 28/40/107 36/39/108
f 28/31/109 29/32/110 38/42/111 37/41/112
f 29/32/113 30/33/114 39/43/115 38/42/116
f 30/33/117 31/34/118 40/44/119 39/43/120
f 31/34/121 32/35/122 41/45/123 40/44/124
f 32/35/125 33/36/126 42/46/127 41/45/128
f 33/36/129 34/37/130 43/47/131 42/46/132
f 34/37/133 35/38/134 44/48/135 43/47/136
f 35/38/137 36/39/138 45/49/139 44/48/140
f 36/39/141 28/40/142 37/50/143 45/49/144
f 37/41/145 38/42/146 47/52/147 46/51/148
f 38/42/149 39/43/150 48/53/151 47/52/152
f 39/43/153 40/44/154 49/54/155 48/53/156
f 40/44/157 41/45/158 50/55/159 49/54/160
f 41/45/161 42/46/162 51/56/163 50/55/164
f 42/46/165 43/47/166 52/57/167 51/56/168
f 43/47/169 44/48/170 53/58/171 52/57/172
f 44/48/173 45/49/174 54/59/175 53/58/176
f 45/49/177 37/50/178 46/60/179 54/59/180
f 2/2/181 1/1/182 55/61/183
f 3/3/184 2/2/185 55/62/186
f 4/4/187 3/3/188 55/63/189
f 5/5/190 4/4/191 55/64/192
f 6/6/193 5/5/194 55/65/195
f 7/7/196 6/6/197 55/66/198
f 8/8/199 7/7/200 55/67/201
f 9/9/202 8/8/203 55/68/204
f 1/10/205 9/9/206 55/69/207
f 56/79/208 57/80/209 58/70/210
f 57/80/211 59/81/212 58/71/213
f 59/81/214 60/82/215 58/72/216
f 60/82/217 61/83/218 58/73/219
f 61/83/220 62/84/221 58/74/222
f 62/84/223 63/85/224 58/75/225
f 63/85/226 64/86/227 58/76/228
f 64/86/229 65/87/230 58/77/231
f 65/87/232 56/88/233 58/78/234
f 46/51/235 47/52/236 57/80/237 56/79/238
f 47/52/239 48/53/240 59/81/241 57/80/242
f 48/53/243 49/54/244 60/82/245 59/81/246
f 49/54/247 50/55/248 61/83/249 60/82/250
f 50/55/251 51/56/252 62/84/253 61/83/254
f 51/56/255 52/57/256 63/85/257 62/84/258
f 52/57/259 53/58/260 64/86/261 63/85/262
f 53/58/263 54/59/264 65/87/265 64/86/266
f 54/59/267 46/60/268 56/88/269 65/87/270
g default
v 0.538912 5.023431 -0.469017
v 0.106664 5.023431 -0.718575
v -0.384870 5.023431 -0.631905
v -0.705697 5.023431 -0.249559
v -0.705697 5.023431 0.249559
v -0.384870 5.023431 0.631904
v 0.106664 5.023431 0.718575
v 0.538912 5.023431 0.469017
v 0.709620 5.023431 0.000000
v 0.987157 5.613543 -0.845139
v 0.208273 5.613543 -1.294828
v -0.677441 5.613543 -1.138653
v -1.255551 5.613543 -0.449689
v -1.255551 5.613543 0.449689
v -0.677442 5.613543 1.138652
v 0.208273 5.613543 1.294828
v 0.987157 5.613543 0.845139
v 1.294762 5.613543 0.000000
v 1.235914 6.466281 -1.053871
v 0.264662 6.466281 -1.614624
v -0.839806 6.466281 -1.419877
v -1.560697 6.466281 -0.560753
v -1.560697 6.466281 0.560753
v -0.839806 6.466281 1.419876
v 0.264661 6.466281 1.614624
v 1.235914 6.466281 1.053871
v 1.619492 6.466281 0.000000
v 1.235914 7.412745 -1.053871
v 0.264662 7.412745 -1.614624
v -0.839806 7.412745 -1.419877
v -1.560697 7.412745 -0.560753
v -1.560697 7.412745 0.560753
v -0.839806 7.412745 1.419876
v 0.264661 7.412745 1.614624
v 1.235914 7.412745 1.053871
v 1.619492 7.412745 0.000000
v 0.987157 8.265482 -0.845139
v 0.208273 8.265482 -1.294828
v -0.677441 8.265482 -1.138653
v -1.255551 8.265482 -0.449689
v -1.255551 8.265482 0.449689
v -0.677442 8.265482 1.138652
v 0.208273 8.265482 1.294828
v 0.987157 8.265482 0.845139
v 1.294762 8.265482 0.000000
v 0.538912 8.855593 -0.469017
v 0.106664 8.855593 -0.718575
v -0.384870 8.855593 -0.631905
v -0.705697 8.855593 -0.249559
v -0.705697 8.855593 0.249559
v -0.384870 8.855593 0.631904
v 0.106664 8.855593 0.718575
v 0.538912 8.855593 0.469017
v 0.709620 8.855593 0.000000
v -0.020040 4.812822 0.000000
v 0.312783 9.265784 -0.268807
v 0.065049 9.265784 -0.411836
v -0.007569 9.379875 0.000000
v -0.216664 9.265784 -0.362163
v -0.400539 9.265784 -0.143029
v -0.400539 9.265784 0.143029
v -0.216664 9.265784 0.362163
v 0.065049 9.265784 0.411837
v 0.312783 9.265784 0.268808
v 0.410620 9.265784 0.000000
vt 0.000000 0.142857
vt 0.111111 0.142857
vt 0.222222 0.142857
vt 0.333333 0.142857
vt 0.444444 0.142857
vt 0.555556 0.142857
vt 0.666667 0.142857
vt 0.777778 0.142857
vt 0.888889 0.142857
vt 1.000000 0.142857
vt 0.000000 0.285714
vt 0.111111 0.285714
vt 0.222222 0.285714
vt 0.333333 0.285714
vt 0.444444 0.285714
vt 0.555556 0.285714
vt 0.666667 0.285714
vt 0.777778 0.285714
vt 0.888889 0.285714
vt 1.000000 0.285714
vt 0.000000 0.428571
vt 0.111111 0.428571
vt 0.222222 0.428571
vt 0.333333 0.428571
vt 0.444444 0.428571
vt 0.555556 0.428571
vt 0.666667 0.428571
vt 0.777778 0.428571
vt 0.888889 0.428571
vt 1.000000 0.428571
vt 0.000000 0.571429
vt 0.111111 0.571429
vt 0.222222 0.571429
vt 0.333333 0.571429
vt 0.444444 0.571429
vt 0.555556 0.571429
vt 0.666667 0.571429
vt 0.777778 0.571429
vt 0.888889 0.571429
vt 1.000000 0.571429
vt 0.000000 0.714286
vt 0.111111 0.714286
vt 0.222222 0.714286
vt 0.333333 0.714286
vt 0.444444 0.714286
vt 0.555556 0.714286
vt 0.666667 0.714286
vt 0.777778 0.714286
vt 0.888889 0.714286
vt 1.000000 0.714286
vt 0.000000 0.857143
vt 0.111111 0.857143
vt 0.222222 0.857143
vt 0.333333 0.857143
vt 0.444444 0.857143
vt 0.555556 0.857143
vt 0.666667 0.857143
vt 0.777778 0.857143
vt 0.888889 0.857143
vt 1.000000 0.857143
vt 0.055556 0.000000
vt 0.166667 0.000000
vt 0.277778 0.000000
vt 0.388889 0.000000
vt 0.500000 0.000000
vt 0.611111 0.000000
vt 0.722222 0.000000
vt 0.833333 0.000000
vt 0.944444 0.000000
vt 0.055556 1.000000
vt 0.166667 1.000000
vt 0.277778 1.000000
vt 0.388889 1.000000
vt 0.500000 1.000000
vt 0.611111 1.000000
vt 0.722222 1.000000
vt 0.833333 1.000000
vt 0.944444 1.000000
vt 0.000000 0.857143
vt 0.111111 0.857143
vt 0.222222 0.857143
vt 0.333333 0.857143
vt 0.444444 0.857143
vt 0.555556 0.857143
vt 0.666667 0.857143
vt 0.777778 0.857143
vt 0.888889 0.857143
vt 1.000000 0.857143
vn 0.365811 -0.681711 -0.633603
vn 0.365811 -0.681711 -0.633603
vn 0.365811 -0.681711 -0.633603
vn 0.365811 -0.681711 -0.633603
vn -0.127045 -0.681711 -0.720507
vn -0.127045 -0.681711 -0.720507
vn -0.127045 -0.681711 -0.720507
vn -0.127045 -0.681711 -0.720507
vn -0.560455 -0.681711 -0.470278
vn -0.560455 -0.681711 -0.470278
vn -0.560455 -0.681711 -0.470278
vn -0.560455 -0.681711 -0.470278
vn -0.731622 -0.681711 -0.000000
vn -0.731622 -0.681711 -0.000000
vn -0.731622 -0.681711 -0.000000
vn -0.731622 -0.681711 -0.000000
vn -0.560455 -0.681711 0.470278
vn -0.560455 -0.681711 0.470278
vn -0.560455 -0.681711 0.470278
vn -0.560455 -0.681711 0.470278
vn -0.127045 -0.681711 0.720507
vn -0.127045 -0.681711 0.720507
vn -0.127045 -0.681711 0.720507
vn -0.127045 -0.681711 0.720507
vn 0.365811 -0.681711 0.633603
vn 0.365811 -0.681711 0.633603
vn 0.365811 -0.681711 0.633603
vn 0.365811 -0.681711 0.633603
vn 0.687500 -0.681711 0.250229
vn 0.687500 -0.681711 0.250229
vn 0.687500 -0.681711 0.250229
vn 0.687500 -0.681711 0.250230
vn 0.687500 -0.681711 -0.250229
vn 0.687500 -0.681710 -0.250229
vn 0.687500 -0.681710 -0.250229
vn 0.687500 -0.681711 -0.250229
vn 0.470767 -0.336921 -0.815391
vn 0.470767 -0.336921 -0.815391
vn 0.470767 -0.336921 -0.815391
vn 0.470767 -0.336921 -0.815391
vn -0.163495 -0.336921 -0.927229
vn -0.163495 -0.336921 -0.927229
vn -0.163495 -0.336921 -0.927229
vn -0.163495 -0.336921 -0.927229
vn -0.721256 -0.336920 -0.605206
vn -0.721256 -0.336921 -0.605206
vn -0.721256 -0.336921 -0.605206
vn -0.721256 -0.336921 -0.605206
vn -0.941533 -0.336921 0.000000
vn -0.941533 -0.336921 0.000000
vn -0.941533 -0.336921 0.000000
vn -0.941533 -0.336921 0.000000
vn -0.721256 -0.336920 0.605206
vn -0.721256 -0.336920 0.605206
vn -0.721256 -0.336920 0.605206
vn -0.721256 -0.336920 0.605206
vn -0.163496 -0.336921 0.927229
vn -0.163496 -0.336921 0.927229
vn -0.163496 -0.336920 0.927229
vn -0.163496 -0.336920 0.927229
vn 0.470767 -0.336920 0.815391
vn 0.470767 -0.336921 0.815392
vn 0.470767 -0.336921 0.815391
vn 0.470767 -0.336921 0.815392
vn 0.884752 -0.336921 0.322023
vn 0.884752 -0.336921 0.322023
vn 0.884752 -0.336921 0.322023
vn 0.884752 -0.336921 0.322023
vn 0.884752 -0.336921 -0.322023
vn 0.884752 -0.336921 -0.322023
vn 0.884752 -0.336921 -0.322023
vn 0.884752 -0.336921 -0.322023
vn 0.500000 0.000000 -0.866025
vn 0.500000 0.000000 -0.866025
vn 0.500000 0.000000 -0.866025
vn 0.500000 0.000000 -0.866025
vn -0.173648 0.000000 -0.984808
vn -0.173648 0.000000 -0.984808
vn -0.173648 0.000000 -0.984808
vn -0.173648 0.000000 -0.984808
vn -0.766044 0.000000 -0.642788
vn -0.766044 0.000000 -0.642788
vn -0.766044 0.000000 -0.642788
vn -0.766044 0.000000 -0.642788
vn -1.000000 0.000000 0.000000
vn -1.000000 0.000000 0.000000
vn -1.000000 0.000000 0.000000
vn -1.000000 0.000000 0.000000
vn -0.766044 0.000000 0.642788
vn -0.766044 0.000000 0.642788
vn -0.766044 0.000000 0.642788
vn -0.766044 0.000000 0.642788
vn -0.173648 0.000000 0.984808
vn -0.173648 0.000000 0.984808
vn -0.173648 0.000000 0.984808
vn -0.173648 0.000000 0.984808
vn 0.500000 0.000000 0.866025
vn 0.500000 0.000000 0.866025
vn 0.500000 0.000000 0.866025
vn 0.500000 0.000000 0.866025
vn 0.939693 0.000000 0.342020
vn 0.939693 0.000000 0.342020
vn 0.939693 0.000000 0.342020
vn 0.939693 0.000000 0.342020
vn 0.939693 0.000000 -0.342020
vn 0.939693 0.000000 -0.342020
vn 0.939693 0.000000 -0.342020
vn 0.939693 0.000000 -0.342020
vn 0.470767 0.336921 -0.815391
vn 0.470767 0.336921 -0.815391
vn 0.470767 0.336921 -0.815391
vn 0.470767 0.336921 -0.815391
vn -0.163495 0.336921 -0.927229
vn -0.163495 0.336921 -0.927229
vn -0.163495 0.336921 -0.927229
vn -0.163495 0.336921 -0.927229
vn -0.721256 0.336921 -0.605206
vn -0.721256 0.336921 -0.605206
vn -0.721256 0.336921 -0.605206
vn -0.721256 0.336921 -0.605206
vn -0.941533 0.336921 0.000000
vn -0.941533 0.336921 0.000000
vn -0.941533 0.336921 0.000000
vn -0.941533 0.336921 0.000000
vn -0.721256 0.336921 0.605206
vn -0.721256 0.336921 0.605206
vn -0.721256 0.336921 0.605206
vn -0.721256 0.336921 0.605206
vn -0.163495 0.336921 0.927229
vn -0.163495 0.336921 0.927229
vn -0.163495 0.336921 0.927229
vn -0.163495 0.336921 0.927229
vn 0.470766 0.336921 0.815391
vn 0.470766 0.336921 0.815391
vn 0.470766 0.336921 0.815391
vn 0.470766 0.336921 0.815391
vn 0.884751 0.336921 0.322023
vn 0.884751 0.336921 0.322023
vn 0.884751 0.336921 0.322023
vn 0.884751 0.336921 0.322023
vn 0.884752 0.336921 -0.322023
vn 0.884752 0.336921 -0.322023
vn 0.884752 0.336921 -0.322023
vn 0.884751 0.336921 -0.322023
vn 0.365811 0.681711 -0.633603
vn 0.365811 0.681711 -0.633603
vn 0.365811 0.681711 -0.633603
vn 0.365811 0.681711 -0.633603
vn -0.127045 0.681711 -0.720507
vn -0.127045 0.681711 -0.720507
vn -0.127045 0.681711 -0.720507
vn -0.127045 0.681711 -0.720507
vn -0.560455 0.681711 -0.470277
vn -0.560455 0.681711 -0.470278
vn -0.560455 0.681711 -0.470277
vn -0.560455 0.681711 -0.470277
vn -0.731622 0.681711 0.000000
vn -0.731622 0.681711 0.000000
vn -0.731622 0.681711 0.000000
vn -0.731622 0.681711 0.000000
vn -0.560455 0.681711 0.470278
vn -0.560455 0.681711 0.470278
vn -0.560455 0.681711 0.470278
vn -0.560455 0.681711 0.470278
vn -0.127045 0.681711 0.720507
vn -0.127045 0.681711 0.720507
vn -0.127045 0.681711 0.720507
vn -0.127045 0.681711 0.720507
vn 0.365811 0.681711 0.633603
vn 0.365811 0.681711 0.633603
vn 0.365811 0.681711 0.633603
vn 0.365811 0.681711 0.633603
vn 0.687500 0.681711 0.250229
vn 0.687500 0.681711 0.250229
vn 0.687500 0.681711 0.250229
vn 0.687500 0.681711 0.250229
vn 0.687500 0.681711 -0.250229
vn 0.687500 0.681711 -0.250229
vn 0.687500 0.681711 -0.250229
vn 0.687500 0.681711 -0.250229
vn 0.146812 -0.955921 -0.254286
vn 0.146812 -0.955921 -0.254286
vn 0.146812 -0.955921 -0.254286
vn -0.050987 -0.955921 -0.289164
vn -0.050987 -0.955921 -0.289164
vn -0.050987 -0.955921 -0.289164
vn -0.224930 -0.955921 -0.188738
vn -0.224930 -0.955921 -0.188738
vn -0.224930 -0.955921 -0.188738
vn -0.293625 -0.955921 -0.000000
vn -0.293625 -0.955921 -0.000000
vn -0.293625 -0.955921 -0.000000
vn -0.224930 -0.955921 0.188738
vn -0.224930 -0.955921 0.188738
vn -0.224930 -0.955921 0.188738
vn -0.050987 -0.955921 0.289164
vn -0.050987 -0.955921 0.289164
vn -0.050987 -0.955921 0.289164
vn 0.146812 -0.955921 0.254286
vn 0.146812 -0.955921 0.254286
vn 0.146812 -0.955921 0.254286
vn 0.275917 -0.955921 0.100425
vn 0.275917 -0.955921 0.100425
vn 0.275917 -0.955921 0.100425
vn 0.275917 -0.955921 -0.100425
vn 0.275917 -0.955921 -0.100425
vn 0.275917 -0.955921 -0.100425
vn 0.139408 0.960344 -0.241462
vn 0.139408 0.960344 -0.241462
vn 0.139408 0.960344 -0.241462
vn -0.048416 0.960344 -0.274581
vn -0.048416 0.960344 -0.274581
vn -0.048416 0.960344 -0.274581
vn -0.213586 0.960344 -0.179219
vn -0.213586 0.960344 -0.179219
vn -0.213586 0.960344 -0.179219
vn -0.278816 0.960344 0.000000
vn -0.278816 0.960344 0.000000
vn -0.278816 0.960344 0.000000
vn -0.213586 0.960345 0.179218
vn -0.213586 0.960345 0.179218
vn -0.213586 0.960345 0.179218
vn -0.048416 0.960344 0.274581
vn -0.048416 0.960344 0.274581
vn -0.048416 0.960344 0.274581
vn 0.139408 0.960344 0.241462
vn 0.139408 0.960344 0.241462
vn 0.139408 0.960344 0.241462
vn 0.262002 0.960344 0.095359
vn 0.262002 0.960344 0.095359
vn 0.262002 0.960344 0.095359
vn 0.262002 0.960344 -0.095361
vn 0.262002 0.960344 -0.095361
vn 0.262002 0.960344 -0.095361
vn 0.409936 0.572547 -0.710030
vn 0.409936 0.572547 -0.710030
vn 0.409936 0.572547 -0.710030
vn 0.409936 0.572547 -0.710030
vn -0.141001 0.583672 -0.799653
vn -0.141001 0.583672 -0.799653
vn -0.141001 0.583672 -0.799653
vn -0.141001 0.583672 -0.799653
vn -0.616713 0.593192 -0.517483
vn -0.616713 0.593192 -0.517483
vn -0.616713 0.593192 -0.517483
vn -0.616713 0.593192 -0.517483
vn -0.802327 0.596884 0.000000
vn -0.802327 0.596884 0.000000
vn -0.802327 0.596884 0.000000
vn -0.802327 0.596884 0.000000
vn -0.616713 0.593192 0.517483
vn -0.616713 0.593192 0.517483
vn -0.616713 0.593192 0.517483
vn -0.616713 0.593192 0.517483
vn -0.141001 0.583672 0.799653
vn -0.141001 0.583672 0.799653
vn -0.141001 0.583672 0.799653
vn -0.141001 0.583672 0.799653
vn 0.409936 0.572546 0.710030
vn 0.409936 0.572546 0.710030
vn 0.409936 0.572546 0.710030
vn 0.409936 0.572546 0.710030
vn 0.775261 0.565110 0.282172
vn 0.775261 0.565109 0.282172
vn 0.775261 0.565110 0.282172
vn 0.775261 0.565109 0.282172
vn 0.775261 0.565110 -0.282172
vn 0.775261 0.565110 -0.282172
vn 0.775261 0.565110 -0.282172
vn 0.775261 0.565110 -0.282172
s off
g pSphere1
usemtl initialShadingGroup
f 66/89/271 67/90/272 76/100/273 75/99/274
f 67/90/275 68/91/276 77/101/277 76/100/278
f 68/91/279 69/92/280 78/102/281 77/101/282
f 69/92/283 70/93/284 79/103/285 78/102/286
f 70/93/287 71/94/288 80/104/289 79/103/290
f 71/94/291 72/95/292 81/105/293 80/104/294
f 72/95/295 73/96/296 82/106/297 81/105/298
f 73/96/299 74/97/300 83/107/301 82/106/302
f 74/97/303 66/98/304 75/108/305 83/107/306
f 75/99/307 76/100/308 85/110/309 84/109/310
f 76/100/311 77/101/312 86/111/313 85/110/314
f 77/101/315 78/102/316 87/112/317 86/111/318
f 78/102/319 79/103/320 88/113/321 87/112/322
f 79/103/323 80/104/324 89/114/325 88/113/326
f 80/104/327 81/105/328 90/115/329 89/114/330
f 81/105/331 82/106/332 91/116/333 90/115/334
f 82/106/335 83/107/336 92/117/337 91/116/338
f 83/107/339 75/108/340 84/118/341 92/117/342
f 84/109/343 85/110/344 94/120/345 93/119/346
f 85/110/347 86/111/348 95/121/349 94/120/350
f 86/111/351 87/112/352 96/122/353 95/121/354
f 87/112/355 88/113/356 97/123/357 96/122/358
f 88/113/359 89/114/360 98/124/361 97/123/362
f 89/114/363 90/115/364 99/125/365 98/124/366
f 90/115/367 91/116/368 100/126/369 99/125/370
f 91/116/371 92/117/372 101/127/373 100/126/374
f 92/117/375 84/118/376 93/128/377 101/127/378
f 93/119/379 94/120/380 103/130/381 102/129/382
f 94/120/383 95/121/384 104/131/385 103/130/386
f 95/121/387 96/122/388 105/132/389 104/131/390
f 96/122/391 97/123/392 106/133/393 105/132/394
f 97/123/395 98/124/396 107/134/397 106/133/398
f 98/124/399 99/125/400 108/135/401 107/134/402
f 99/125/403 100/126/404 109/136/405 108/135/406
f 100/126/407 101/127/408 110/137/409 109/136/410
f 101/127/411 93/128/412 102/138/413 110/137/414
f 102/129/415 103/130/416 112/140/417 111/139/418
f 103/130/419 104/131/420 113/141/421 112/140/422
f 104/131/423 105/132/424 114/142/425 113/141/426
f 105/132/427 106/133/428 115/143/429 114/142/430
f 106/133/431 107/134/432 116/144/433 115/143/434
f 107/134/435 108/135/436 117/145/437 116/144/438
f 108/135/439 109/136/440 118/146/441 117/145/442
f 109/136/443 110/137/444 119/147/445 118/146/446
f 110/137/447 102/138/448 111/148/449 119/147/450
f 67/90/451 66/89/452 120/149/453
f 68/91/454 67/90/455 120/150/456
f 69/92/457 68/91/458 120/151/459
f 70/93/460 69/92/461 120/152/462
f 71/94/463 70/93/464 120/153/465
f 72/95/466 71/94/467 120/154/468
f 73/96/469 72/95/470 120/155/471
f 74/97/472 73/96/473 120/156/474
f 66/98/475 74/97/476 120/157/477
f 121/167/478 122/168/479 123/158/480
f 122/168/481 124/169/482 123/159/483
f 124/169/484 125/170/485 123/160/486
f 125/170/487 126/171/488 123/161/489
f 126/171/490 127/172/491 123/162/492
f 127/172/493 128/173/494 123/163/495
f 128/173/496 129/174/497 123/164/498
f 129/174/499 130/175/500 123/165/501
f 130/175/502 121/176/503 123/166/504
f 111/139/505 112/140/506 122/168/507 121/167/508
f 112/140/509 113/141/510 124/169/511 122/168/512
f 113/141/513 114/142/514 125/170/515 124/169/516
f 114/142/517 115/143/518 126/171/519 125/170/520
f 115/143/521 116/144/522 127/172/523 126/171/524
f 116/144/525 117/145/526 128/173/527 127/172/528
f 117/145/529 118/146/530 129/174/531 128/173/532
f 118/146/533 119/147/534 130/175/535 129/174/536
f 119/147/537 111/148/538 121/176/539 130/175/540
g default
v 3.325558 -0.782283 -1.080539
v 2.828889 -0.782283 -2.055308
v 2.055308 -0.782283 -2.828888
v 1.080539 -0.782283 -3.325558
v 0.000000 -0.782283 -3.496698
v -1.080539 -0.782283 -3.325557
v -2.055307 -0.782283 -2.828888
v -2.828888 -0.782283 -2.055307
v -3.325556 -0.782283 -1.080539
v -3.496697 -0.782283 0.000000
v -3.325556 -0.782283 1.080539
v -2.828888 -0.782283 2.055307
v -2.055307 -0.782283 2.828888
v -1.080539 -0.782283 3.325557
v 0.000000 -0.782283 3.496697
v 1.080539 -0.782283 3.325557
v 2.055307 -0.782283 2.828887
v 2.828887 -0.782283 2.055307
v 3.325556 -0.782283 1.080539
v 3.496697 -0.782283 0.000000
v 6.471132 2.250011 -2.102596
v 5.504674 2.250011 -3.999377
v 3.999378 2.250011 -5.504673
v 2.102598 2.250011 -6.471129
v 0.000001 2.250011 -6.804149
v -2.102597 2.250011 -6.471129
v -3.999377 2.250011 -5.504671
v -5.504671 2.250011 -3.999376
v -6.471128 2.250011 -2.102596
v -6.804147 2.250011 0.000001
v -6.471128 2.250011 2.102598
v -5.504671 2.250011 3.999378
v -3.999376 2.250011 5.504672
v -2.102596 2.250011 6.471130
v 0.000000 2.250011 6.804148
v 2.102597 2.250011 6.471128
v 3.999377 2.250011 5.504672
v 5.504671 2.250011 3.999377
v 6.471127 2.250011 2.102598
v 6.804145 2.250011 0.000001
v 0.000000 -0.813930 0.000000
v 6.835836 2.388054 -2.221096
v 5.814907 2.388054 -4.224775
v 4.224777 2.388054 -5.814904
v 2.221097 2.388054 -6.835830
v 0.000001 2.388054 -7.187618
v -2.221096 2.388054 -6.835830
v -4.224775 2.388054 -5.814903
v -5.814903 2.388054 -4.224775
v -6.835830 2.388054 -2.221094
v -7.187616 2.388054 0.000001
v -6.835830 2.388054 2.221097
v -5.814903 2.388054 4.224776
v -4.224774 2.388054 5.814906
v -2.221096 2.388054 6.835830
v 0.000001 2.388054 7.187617
v 2.221096 2.388054 6.835829
v 4.224775 2.388054 5.814903
v 5.814906 2.388054 4.224775
v 6.835829 2.388054 2.221097
v 7.187616 2.388054 0.000001
v 6.835836 3.161302 -2.221094
v 5.814907 3.161302 -4.224773
v 4.224777 3.161302 -5.814903
v 2.221097 3.161302 -6.835830
v 0.000001 3.161302 -7.187618
v -2.221096 3.161302 -6.835830
v -4.224774 3.161302 -5.814902
v -5.814903 3.161302 -4.224774
v -6.835830 3.161302 -2.221093
v -7.187616 3.161302 0.000001
v -6.835830 3.161302 2.221097
v -5.814903 3.161302 4.224776
v -4.224774 3.161302 5.814903
v -2.221095 3.161302 6.835828
v 0.000001 3.161302 7.187617
v 2.221096 3.161302 6.835829
v 4.224774 3.161302 5.814901
v 5.814906 3.161302 4.224772
v 6.835829 3.161302 2.221096
v 7.187616 3.161302 0.000001
v 5.920659 3.161302 -1.923735
v 5.036413 3.161302 -3.659163
v 3.659169 3.161302 -5.036411
v 1.923739 3.161302 -5.920656
v 0.000001 3.161302 -6.225346
v -1.923737 3.161302 -5.920655
v -3.659165 3.161302 -5.036409
v -5.036411 3.161302 -3.659165
v -5.920655 3.161302 -1.923735
v -6.225345 3.161302 0.000001
v -5.920655 3.161302 1.923739
v -5.036410 3.161302 3.659168
v -3.659165 3.161302 5.036410
v -1.923737 3.161302 5.920655
v 0.000000 3.161302 6.225346
v 1.923738 3.161302 5.920655
v 3.659165 3.161302 5.036408
v 5.036411 3.161302 3.659164
v 5.920655 3.161302 1.923737
v 6.225344 3.161302 0.000001
v 5.426211 1.457000 -1.763088
v 4.615809 1.457001 -3.353577
v 3.353581 1.457001 -4.615808
v 1.763083 1.457001 -5.426207
v 0.000003 1.457001 -5.705454
v -1.763082 1.457001 -5.426204
v -3.353582 1.457001 -4.615811
v -4.615808 1.457001 -3.353587
v -5.426208 1.457001 -1.763079
v -5.705451 1.457001 0.000002
v -5.426208 1.457001 1.763083
v -4.615809 1.457001 3.353591
v -3.353580 1.457001 4.615818
v -1.763081 1.457001 5.426207
v 0.000000 1.457001 5.705452
v 1.763082 1.457000 5.426207
v 3.353580 1.457001 4.615808
v 4.615809 1.457001 3.353579
v 5.426207 1.457001 1.763082
v 5.705451 1.457000 -0.000007
v 2.752475 0.202430 -0.894337
v 2.341393 0.202430 -1.701123
v -0.000000 -0.454840 -0.000002
v 1.701122 0.202431 -2.341397
v 0.894334 0.202431 -2.752477
v 0.000003 0.202431 -2.894127
v -0.894333 0.202430 -2.752474
v -1.701124 0.202431 -2.341399
v -2.341393 0.202430 -1.701128
v -2.752474 0.202430 -0.894333
v -2.894122 0.202430 -0.000002
v -2.752474 0.202430 0.894331
v -2.341394 0.202430 1.701126
v -1.701122 0.202430 2.341398
v -0.894333 0.202430 2.752472
v -0.000001 0.202430 2.894121
v 0.894333 0.202430 2.752473
v 1.701122 0.202430 2.341391
v 2.341395 0.202430 1.701119
v 2.752474 0.202430 0.894332
v 2.894121 0.202430 -0.000005
vt 0.648603 0.107966
vt 0.626409 0.064408
vt 0.591842 0.029841
vt 0.548284 0.007647
vt 0.500000 -0.000000
vt 0.451716 0.007647
vt 0.408159 0.029841
vt 0.373591 0.064409
vt 0.351397 0.107966
vt 0.343750 0.156250
vt 0.351397 0.204534
vt 0.373591 0.248091
vt 0.408159 0.282659
vt 0.451716 0.304853
vt 0.500000 0.312500
vt 0.548284 0.304853
vt 0.591841 0.282659
vt 0.626409 0.248091
vt 0.648603 0.204534
vt 0.656250 0.156250
vt 0.375000 0.312500
vt 0.387500 0.312500
vt 0.400000 0.312500
vt 0.412500 0.312500
vt 0.425000 0.312500
vt 0.437500 0.312500
vt 0.450000 0.312500
vt 0.462500 0.312500
vt 0.475000 0.312500
vt 0.487500 0.312500
vt 0.500000 0.312500
vt 0.512500 0.312500
vt 0.525000 0.312500
vt 0.537500 0.312500
vt 0.550000 0.312500
vt 0.562500 0.312500
vt 0.575000 0.312500
vt 0.587500 0.312500
vt 0.600000 0.312500
vt 0.612500 0.312500
vt 0.625000 0.312500
vt 0.375000 0.687500
vt 0.387500 0.687500
vt 0.400000 0.687500
vt 0.412500 0.687500
vt 0.425000 0.687500
vt 0.437500 0.687500
vt 0.450000 0.687500
vt 0.462500 0.687500
vt 0.475000 0.687500
vt 0.487500 0.687500
vt 0.500000 0.687500
vt 0.512500 0.687500
vt 0.525000 0.687500
vt 0.537500 0.687500
vt 0.550000 0.687500
vt 0.562500 0.687500
vt 0.575000 0.687500
vt 0.587500 0.687500
vt 0.600000 0.687500
vt 0.612500 0.687500
vt 0.625000 0.687500
vt 0.648603 0.795466
vt 0.626409 0.751908
vt 0.591842 0.717341
vt 0.548284 0.695147
vt 0.500000 0.687500
vt 0.451716 0.695147
vt 0.408159 0.717341
vt 0.373591 0.751909
vt 0.351397 0.795466
vt 0.343750 0.843750
vt 0.351397 0.892034
vt 0.373591 0.935591
vt 0.408159 0.970159
vt 0.451716 0.992353
vt 0.500000 1.000000
vt 0.548284 0.992353
vt 0.591841 0.970159
vt 0.626409 0.935591
vt 0.648603 0.892034
vt 0.656250 0.843750
vt 0.500000 0.156250
vt 0.500000 0.843750
vt 0.648603 0.892034
vt 0.626409 0.935591
vt 0.591841 0.970159
vt 0.548284 0.992353
vt 0.500000 1.000000
vt 0.451716 0.992353
vt 0.408159 0.970159
vt 0.373591 0.935591
vt 0.351397 0.892034
vt 0.343750 0.843750
vt 0.351397 0.795466
vt 0.373591 0.751909
vt 0.408159 0.717341
vt 0.451716 0.695147
vt 0.500000 0.687500
vt 0.548284 0.695147
vt 0.591842 0.717341
vt 0.626409 0.751908
vt 0.648603 0.795466
vt 0.656250 0.843750
vt 0.648603 0.892034
vt 0.626409 0.935591
vt 0.591841 0.970159
vt 0.548284 0.992353
vt 0.500000 1.000000
vt 0.451716 0.992353
vt 0.408159 0.970159
vt 0.373591 0.935591
vt 0.351397 0.892034
vt 0.343750 0.843750
vt 0.351397 0.795466
vt 0.373591 0.751909
vt 0.408159 0.717341
vt 0.451716 0.695147
vt 0.500000 0.687500
vt 0.548284 0.695147
vt 0.591842 0.717341
vt 0.626409 0.751908
vt 0.648603 0.795466
vt 0.656250 0.843750
vt 0.648603 0.892034
vt 0.626409 0.935591
vt 0.591841 0.970159
vt 0.548284 0.992353
vt 0.500000 1.000000
vt 0.451716 0.992353
vt 0.408159 0.970159
vt 0.373591 0.935591
vt 0.351397 0.892034
vt 0.343750 0.843750
vt 0.351397 0.795466
vt 0.373591 0.751909
vt 0.408159 0.717341
vt 0.451716 0.695147
vt 0.500000 0.687500
vt 0.548284 0.695147
vt 0.591842 0.717341
vt 0.626409 0.751908
vt 0.648603 0.795466
vt 0.656250 0.843750
vt 0.648603 0.892034
vt 0.626409 0.935591
vt 0.591841 0.970159
vt 0.548284 0.992353
vt 0.500000 1.000000
vt 0.451716 0.992353
vt 0.408159 0.970159
vt 0.373591 0.935591
vt 0.351397 0.892034
vt 0.343750 0.843750
vt 0.351397 0.795466
vt 0.373591 0.751909
vt 0.408159 0.717341
vt 0.451716 0.695147
vt 0.500000 0.687500
vt 0.548284 0.695147
vt 0.591842 0.717341
vt 0.626409 0.751908
vt 0.648603 0.795466
vt 0.656250 0.843750
vt 0.648603 0.892034
vt 0.626409 0.935591
vt 0.591841 0.970159
vt 0.548284 0.992353
vt 0.500000 1.000000
vt 0.451716 0.992353
vt 0.408159 0.970159
vt 0.373591 0.935591
vt 0.351397 0.892034
vt 0.343750 0.843750
vt 0.351397 0.795466
vt 0.373591 0.751909
vt 0.408159 0.717341
vt 0.451716 0.695147
vt 0.500000 0.687500
vt 0.548284 0.695147
vt 0.591842 0.717341
vt 0.626409 0.751908
vt 0.648603 0.795466
vt 0.656250 0.843750
vn 0.642706 -0.737103 -0.208827
vn 0.546718 -0.737103 -0.397214
vn 0.517046 -0.769121 -0.375656
vn 0.607824 -0.769121 -0.197493
vn 0.397214 -0.737103 -0.546718
vn 0.375656 -0.769121 -0.517046
vn 0.208828 -0.737103 -0.642706
vn 0.197494 -0.769121 -0.607824
vn -0.000000 -0.737103 -0.675781
vn -0.000000 -0.769121 -0.639104
vn -0.208828 -0.737103 -0.642706
vn -0.197494 -0.769121 -0.607824
vn -0.397214 -0.737103 -0.546718
vn -0.375656 -0.769121 -0.517046
vn -0.546718 -0.737103 -0.397214
vn -0.517046 -0.769120 -0.375656
vn -0.642706 -0.737103 -0.208828
vn -0.607824 -0.769120 -0.197494
vn -0.675781 -0.737103 -0.000000
vn -0.639104 -0.769121 0.000000
vn -0.642706 -0.737103 0.208828
vn -0.607824 -0.769121 0.197494
vn -0.546718 -0.737103 0.397214
vn -0.517046 -0.769121 0.375656
vn -0.397214 -0.737103 0.546718
vn -0.375656 -0.769121 0.517046
vn -0.208828 -0.737103 0.642706
vn -0.197494 -0.769121 0.607824
vn 0.000000 -0.737103 0.675781
vn 0.000000 -0.769121 0.639104
vn 0.208828 -0.737103 0.642706
vn 0.197494 -0.769121 0.607824
vn 0.397214 -0.737103 0.546718
vn 0.375656 -0.769121 0.517046
vn 0.546718 -0.737103 0.397214
vn 0.517046 -0.769121 0.375656
vn 0.642706 -0.737103 0.208828
vn 0.607824 -0.769121 0.197494
vn 0.675781 -0.737102 0.000001
vn 0.639104 -0.769121 0.000001
vn 0.007322 -0.999959 -0.005320
vn 0.008607 -0.999959 -0.002797
vn -0.000000 -1.000000 0.000000
vn 0.005320 -0.999959 -0.007322
vn 0.002797 -0.999959 -0.008607
vn -0.000000 -0.999959 -0.009050
vn -0.002797 -0.999959 -0.008607
vn -0.005320 -0.999959 -0.007322
vn -0.007322 -0.999959 -0.005320
vn -0.008607 -0.999959 -0.002797
vn -0.009050 -0.999959 0.000000
vn -0.008607 -0.999959 0.002797
vn -0.007322 -0.999959 0.005320
vn -0.005320 -0.999959 0.007322
vn -0.002797 -0.999959 0.008607
vn 0.000000 -0.999959 0.009050
vn 0.002797 -0.999959 0.008607
vn 0.005320 -0.999959 0.007322
vn 0.007322 -0.999959 0.005320
vn 0.008607 -0.999959 0.002797
vn 0.009050 -0.999959 -0.000000
vn -0.210626 0.975168 0.068437
vn -0.179169 0.975168 0.130175
vn 0.000000 1.000000 0.000000
vn -0.130174 0.975168 0.179169
vn -0.068437 0.975168 0.210626
vn 0.000000 0.975168 0.221466
vn 0.068437 0.975168 0.210626
vn 0.130174 0.975168 0.179170
vn 0.179170 0.975168 0.130174
vn 0.210626 0.975168 0.068437
vn 0.221466 0.975168 -0.000000
vn 0.210626 0.975168 -0.068436
vn 0.179169 0.975168 -0.130174
vn 0.130174 0.975168 -0.179170
vn 0.068436 0.975168 -0.210627
vn 0.000000 0.975168 -0.221466
vn -0.068437 0.975168 -0.210626
vn -0.130175 0.975168 -0.179169
vn -0.179169 0.975168 -0.130174
vn -0.210626 0.975168 -0.068437
vn -0.221466 0.975168 -0.000000
vn 0.274019 -0.940892 -0.199087
vn 0.322128 -0.940893 -0.104666
vn 0.199087 -0.940892 -0.274020
vn 0.104667 -0.940892 -0.322130
vn 0.000000 -0.940892 -0.338708
vn -0.104667 -0.940892 -0.322130
vn -0.199087 -0.940892 -0.274020
vn -0.274020 -0.940892 -0.199087
vn -0.322130 -0.940892 -0.104666
vn -0.338707 -0.940892 0.000000
vn -0.322130 -0.940892 0.104666
vn -0.274020 -0.940892 0.199087
vn -0.199087 -0.940892 0.274020
vn -0.104666 -0.940892 0.322130
vn 0.000000 -0.940892 0.338707
vn 0.104666 -0.940892 0.322130
vn 0.199087 -0.940892 0.274020
vn 0.274019 -0.940892 0.199087
vn 0.322129 -0.940892 0.104666
vn 0.338706 -0.940892 0.000000
vn 0.951057 0.000001 -0.309016
vn 0.809016 0.000002 -0.587786
vn 0.809017 0.000002 -0.587786
vn 0.951057 0.000001 -0.309016
vn 0.587785 0.000001 -0.809017
vn 0.587785 0.000001 -0.809017
vn 0.309017 0.000000 -0.951056
vn 0.309017 0.000000 -0.951056
vn -0.000000 0.000000 -1.000000
vn -0.000000 0.000000 -1.000000
vn -0.309018 0.000001 -0.951056
vn -0.309018 0.000001 -0.951056
vn -0.587785 0.000001 -0.809017
vn -0.587785 0.000001 -0.809017
vn -0.809017 0.000001 -0.587785
vn -0.809017 0.000001 -0.587785
vn -0.951057 0.000000 -0.309017
vn -0.951057 0.000000 -0.309017
vn -1.000000 0.000000 -0.000000
vn -1.000000 0.000000 -0.000000
vn -0.951056 0.000000 0.309017
vn -0.951056 0.000000 0.309017
vn -0.809017 0.000001 0.587785
vn -0.809017 0.000001 0.587785
vn -0.587785 0.000002 0.809017
vn -0.587785 0.000002 0.809017
vn -0.309017 0.000002 0.951057
vn -0.309017 0.000002 0.951057
vn 0.000000 0.000001 1.000000
vn 0.000000 0.000001 1.000000
vn 0.309018 0.000001 0.951056
vn 0.309018 0.000001 0.951056
vn 0.587785 0.000002 0.809017
vn 0.587785 0.000002 0.809017
vn 0.809017 0.000001 0.587786
vn 0.809017 0.000001 0.587785
vn 0.951057 0.000000 0.309017
vn 0.951057 0.000000 0.309017
vn 1.000000 -0.000000 0.000002
vn 1.000000 -0.000000 0.000002
vn 0.000000 1.000000 -0.000000
vn 0.000000 1.000000 -0.000000
vn 0.000000 1.000000 -0.000000
vn 0.000000 1.000000 -0.000000
vn -0.000000 1.000000 0.000000
vn -0.000000 1.000000 0.000000
vn -0.000000 1.000000 0.000000
vn -0.000000 1.000000 0.000000
vn 0.000000 1.000000 -0.000000
vn 0.000000 1.000000 -0.000000
vn 0.000000 1.000000 -0.000000
vn 0.000000 1.000000 -0.000000
vn 0.000000 1.000000 0.000000
vn 0.000000 1.000000 0.000000
vn 0.000000 1.000000 0.000000
vn 0.000000 1.000000 0.000000
vn 0.000000 1.000000 -0.000000
vn 0.000000 1.000000 -0.000000
vn 0.000000 1.000000 -0.000000
vn 0.000000 1.000000 -0.000000
vn -0.000000 1.000000 0.000000
vn -0.000000 1.000000 0.000000
vn -0.000000 1.000000 0.000000
vn -0.000000 1.000000 0.000000
vn 0.000000 1.000000 -0.000000
vn 0.000000 1.000000 -0.000000
vn 0.000000 1.000000 -0.000000
vn 0.000000 1.000000 -0.000000
vn 0.000000 1.000000 0.000000
vn 0.000000 1.000000 0.000000
vn 0.000000 1.000000 0.000000
vn 0.000000 1.000000 0.000000
vn 0.000000 1.000000 0.000000
vn 0.000000 1.000000 0.000000
vn 0.000000 1.000000 0.000000
vn 0.000000 1.000000 0.000000
vn 0.000000 1.000000 0.000000
vn 0.000000 1.000000 0.000000
vn 0.000000 1.000000 0.000000
vn 0.000000 1.000000 0.000000
vn 0.000000 1.000000 0.000000
vn 0.000000 1.000000 0.000000
vn 0.000000 1.000000 0.000000
vn 0.000000 1.000000 0.000000
vn 0.000000 1.000000 -0.000000
vn 0.000000 1.000000 -0.000000
vn 0.000000 1.000000 -0.000000
vn 0.000000 1.000000 -0.000000
vn 0.000000 1.000000 -0.000000
vn 0.000000 1.000000 -0.000000
vn 0.000000 1.000000 -0.000000
vn 0.000000 1.000000 -0.000000
vn 0.000000 1.000000 0.000000
vn 0.000000 1.000000 0.000000
vn 0.000000 1.000000 0.000000
vn 0.000000 1.000000 0.000000
vn 0.000000 1.000000 0.000000
vn 0.000000 1.000000 0.000000
vn 0.000000 1.000000 0.000000
vn 0.000000 1.000000 0.000000
vn 0.000000 1.000000 0.000000
vn 0.000000 1.000000 0.000000
vn 0.000000 1.000000 0.000000
vn 0.000000 1.000000 0.000000
vn 0.000000 1.000000 -0.000000
vn 0.000000 1.000000 -0.000000
vn 0.000000 1.000000 -0.000000
vn 0.000000 1.000000 -0.000000
vn 0.000000 1.000000 0.000000
vn 0.000000 1.000000 0.000000
vn 0.000000 1.000000 0.000000
vn 0.000000 1.000000 0.000000
vn 0.000000 1.000000 -0.000000
vn 0.000000 1.000000 -0.000000
vn 0.000000 1.000000 -0.000000
vn 0.000000 1.000000 -0.000000
vn 0.000000 1.000000 0.000000
vn 0.000000 1.000000 0.000000
vn 0.000000 1.000000 0.000000
vn 0.000000 1.000000 0.000000
vn -0.909674 0.291774 0.295570
vn -0.773814 0.291774 0.562210
vn -0.592488 0.680922 0.430469
vn -0.696513 0.680921 0.226311
vn -0.562209 0.291775 0.773814
vn -0.430469 0.680921 0.592489
vn -0.295571 0.291774 0.909673
vn -0.226311 0.680921 0.696512
vn 0.000001 0.291775 0.956487
vn 0.000000 0.680921 0.732357
vn 0.295571 0.291774 0.909673
vn 0.226310 0.680922 0.696512
vn 0.562209 0.291773 0.773815
vn 0.430468 0.680921 0.592490
vn 0.773815 0.291772 0.562209
vn 0.592489 0.680921 0.430468
vn 0.909674 0.291774 0.295570
vn 0.696512 0.680922 0.226310
vn 0.956487 0.291774 0.000000
vn 0.732357 0.680921 -0.000000
vn 0.909674 0.291774 -0.295570
vn 0.696512 0.680922 -0.226310
vn 0.773815 0.291772 -0.562209
vn 0.592489 0.680921 -0.430468
vn 0.562209 0.291771 -0.773816
vn 0.430467 0.680921 -0.592490
vn 0.295570 0.291773 -0.909674
vn 0.226309 0.680921 -0.696513
vn 0.000000 0.291774 -0.956487
vn 0.000000 0.680922 -0.732356
vn -0.295571 0.291774 -0.909673
vn -0.226311 0.680922 -0.696512
vn -0.562210 0.291774 -0.773814
vn -0.430469 0.680921 -0.592489
vn -0.773814 0.291774 -0.562209
vn -0.592489 0.680921 -0.430469
vn -0.909674 0.291774 -0.295570
vn -0.696512 0.680922 -0.226310
vn -0.956487 0.291774 -0.000001
vn -0.732356 0.680922 -0.000001
vn -0.329689 0.913197 0.239534
vn -0.387573 0.913197 0.125930
vn -0.239534 0.913197 0.329690
vn -0.125931 0.913197 0.387573
vn 0.000000 0.913197 0.407519
vn 0.125930 0.913197 0.387574
vn 0.239533 0.913197 0.329690
vn 0.329690 0.913197 0.239533
vn 0.387574 0.913197 0.125930
vn 0.407519 0.913197 0.000000
vn 0.387573 0.913197 -0.125930
vn 0.329690 0.913197 -0.239533
vn 0.239532 0.913197 -0.329690
vn 0.125929 0.913197 -0.387574
vn 0.000000 0.913197 -0.407519
vn -0.125930 0.913197 -0.387573
vn -0.239534 0.913197 -0.329689
vn -0.329689 0.913197 -0.239533
vn -0.387573 0.913197 -0.125930
vn -0.407519 0.913197 -0.000000
s 1
g pCylinder1
usemtl initialShadingGroup
f 131/197/541 132/198/542 152/219/543 151/218/544
f 132/198/542 133/199/545 153/220/546 152/219/543
f 133/199/545 134/200/547 154/221/548 153/220/546
f 134/200/547 135/201/549 155/222/550 154/221/548
f 135/201/549 136/202/551 156/223/552 155/222/550
f 136/202/551 137/203/553 157/224/554 156/223/552
f 137/203/553 138/204/555 158/225/556 157/224/554
f 138/204/555 139/205/557 159/226/558 158/225/556
f 139/205/557 140/206/559 160/227/560 159/226/558
f 140/206/559 141/207/561 161/228/562 160/227/560
f 141/207/561 142/208/563 162/229/564 161/228/562
f 142/208/563 143/209/565 163/230/566 162/229/564
f 143/209/565 144/210/567 164/231/568 163/230/566
f 144/210/567 145/211/569 165/232/570 164/231/568
f 145/211/569 146/212/571 166/233/572 165/232/570
f 146/212/571 147/213/573 167/234/574 166/233/572
f 147/213/573 148/214/575 168/235/576 167/234/574
f 148/214/575 149/215/577 169/236/578 168/235/576
f 149/215/577 150/216/579 170/237/580 169/236/578
f 150/216/579 131/217/541 151/238/544 170/237/580
s 2
f 132/178/581 131/177/582 171/259/583
f 133/179/584 132/178/581 171/259/583
f 134/180/585 133/179/584 171/259/583
f 135/181/586 134/180/585 171/259/583
f 136/182/587 135/181/586 171/259/583
f 137/183/588 136/182/587 171/259/583
f 138/184/589 137/183/588 171/259/583
f 139/185/590 138/184/589 171/259/583
f 140/186/591 139/185/590 171/259/583
f 141/187/592 140/186/591 171/259/583
f 142/188/593 141/187/592 171/259/583
f 143/189/594 142/188/593 171/259/583
f 144/190/595 143/189/594 171/259/583
f 145/191/596 144/190/595 171/259/583
f 146/192/597 145/191/596 171/259/583
f 147/193/598 146/192/597 171/259/583
f 148/194/599 147/193/598 171/259/583
f 149/195/600 148/194/599 171/259/583
f 150/196/601 149/195/600 171/259/583
f 131/177/582 150/196/601 171/259/583
s 3
f 252/341/602 253/342/603 254/260/604
f 253/342/603 255/343/605 254/260/604
f 255/343/605 256/344/606 254/260/604
f 256/344/606 257/345/607 254/260/604
f 257/345/607 258/346/608 254/260/604
f 258/346/608 259/347/609 254/260/604
f 259/347/609 260/348/610 254/260/604
f 260/348/610 261/349/611 254/260/604
f 261/349/611 262/350/612 254/260/604
f 262/350/612 263/351/613 254/260/604
f 263/351/613 264/352/614 254/260/604
f 264/352/614 265/353/615 254/260/604
f 265/353/615 266/354/616 254/260/604
f 266/354/616 267/355/617 254/260/604
f 267/355/617 268/356/618 254/260/604
f 268/356/618 269/357/619 254/260/604
f 269/357/619 270/358/620 254/260/604
f 270/358/620 271/359/621 254/260/604
f 271/359/621 272/360/622 254/260/604
f 272/360/622 252/341/602 254/260/604
s 1
f 151/257/544 152/256/543 173/262/623 172/261/624
f 152/256/543 153/255/546 174/263/625 173/262/623
f 153/255/546 154/254/548 175/264/626 174/263/625
f 154/254/548 155/253/550 176/265/627 175/264/626
f 155/253/550 156/252/552 177/266/628 176/265/627
f 156/252/552 157/251/554 178/267/629 177/266/628
f 157/251/554 158/250/556 179/268/630 178/267/629
f 158/250/556 159/249/558 180/269/631 179/268/630
f 159/249/558 160/248/560 181/270/632 180/269/631
f 160/248/560 161/247/562 182/271/633 181/270/632
f 161/247/562 162/246/564 183/272/634 182/271/633
f 162/246/564 163/245/566 184/273/635 183/272/634
f 163/245/566 164/244/568 185/274/636 184/273/635
f 164/244/568 165/243/570 186/275/637 185/274/636
f 165/243/570 166/242/572 187/276/638 186/275/637
f 166/242/572 167/241/574 188/277/639 187/276/638
f 167/241/574 168/240/576 189/278/640 188/277/639
f 168/240/576 169/239/578 190/279/641 189/278/640
f 169/239/578 170/258/580 191/280/642 190/279/641
f 170/258/580 151/257/544 172/261/624 191/280/642
s 4
f 172/261/643 173/262/644 193/282/645 192/281/646
f 173/262/644 174/263/647 194/283/648 193/282/645
f 174/263/647 175/264/649 195/284/650 194/283/648
f 175/264/649 176/265/651 196/285/652 195/284/650
f 176/265/651 177/266/653 197/286/654 196/285/652
f 177/266/653 178/267/655 198/287/656 197/286/654
f 178/267/655 179/268/657 199/288/658 198/287/656
f 179/268/657 180/269/659 200/289/660 199/288/658
f 180/269/659 181/270/661 201/290/662 200/289/660
f 181/270/661 182/271/663 202/291/664 201/290/662
f 182/271/663 183/272/665 203/292/666 202/291/664
f 183/272/665 184/273/667 204/293/668 203/292/666
f 184/273/667 185/274/669 205/294/670 204/293/668
f 185/274/669 186/275/671 206/295/672 205/294/670
f 186/275/671 187/276/673 207/296/674 206/295/672
f 187/276/673 188/277/675 208/297/676 207/296/674
f 188/277/675 189/278/677 209/298/678 208/297/676
f 189/278/677 190/279/679 210/299/680 209/298/678
f 190/279/679 191/280/681 211/300/682 210/299/680
f 191/280/681 172/261/643 192/281/646 211/300/682
s off
f 192/281/683 193/282/684 213/302/685 212/301/686
f 193/282/687 194/283/688 214/303/689 213/302/690
f 194/283/691 195/284/692 215/304/693 214/303/694
f 195/284/695 196/285/696 216/305/697 215/304/698
f 196/285/699 197/286/700 217/306/701 216/305/702
f 197/286/703 198/287/704 218/307/705 217/306/706
f 198/287/707 199/288/708 219/308/709 218/307/710
f 199/288/711 200/289/712 220/309/713 219/308/714
f 200/289/715 201/290/716 221/310/717 220/309/718
f 201/290/719 202/291/720 222/311/721 221/310/722
f 202/291/723 203/292/724 223/312/725 222/311/726
f 203/292/727 204/293/728 224/313/729 223/312/730
f 204/293/731 205/294/732 225/314/733 224/313/734
f 205/294/735 206/295/736 226/315/737 225/314/738
f 206/295/739 207/296/740 227/316/741 226/315/742
f 207/296/743 208/297/744 228/317/745 227/316/746
f 208/297/747 209/298/748 229/318/749 228/317/750
f 209/298/751 210/299/752 230/319/753 229/318/754
f 210/299/755 211/300/756 231/320/757 230/319/758
f 211/300/759 192/281/760 212/301/761 231/320/762
s 5
f 212/301/763 213/302/764 233/322/765 232/321/766
f 213/302/764 214/303/767 234/323/768 233/322/765
f 214/303/767 215/304/769 235/324/770 234/323/768
f 215/304/769 216/305/771 236/325/772 235/324/770
f 216/305/771 217/306/773 237/326/774 236/325/772
f 217/306/773 218/307/775 238/327/776 237/326/774
f 218/307/775 219/308/777 239/328/778 238/327/776
f 219/308/777 220/309/779 240/329/780 239/328/778
f 220/309/779 221/310/781 241/330/782 240/329/780
f 221/310/781 222/311/783 242/331/784 241/330/782
f 222/311/783 223/312/785 243/332/786 242/331/784
f 223/312/785 224/313/787 244/333/788 243/332/786
f 224/313/787 225/314/789 245/334/790 244/333/788
f 225/314/789 226/315/791 246/335/792 245/334/790
f 226/315/791 227/316/793 247/336/794 246/335/792
f 227/316/793 228/317/795 248/337/796 247/336/794
f 228/317/795 229/318/797 249/338/798 248/337/796
f 229/318/797 230/319/799 250/339/800 249/338/798
f 230/319/799 231/320/801 251/340/802 250/339/800
f 231/320/801 212/301/763 232/321/766 251/340/802
f 232/321/766 233/322/765 253/342/803 252/341/804
f 233/322/765 234/323/768 255/343/805 253/342/803
f 234/323/768 235/324/770 256/344/806 255/343/805
f 235/324/770 236/325/772 257/345/807 256/344/806
f 236/325/772 237/326/774 258/346/808 257/345/807
f 237/326/774 238/327/776 259/347/809 258/346/808
f 238/327/776 239/328/778 260/348/810 259/347/809
f 239/328/778 240/329/780 261/349/811 260/348/810
f 240/329/780 241/330/782 262/350/812 261/349/811
f 241/330/782 242/331/784 263/351/813 262/350/812
f 242/331/784 243/332/786 264/352/814 263/351/813
f 243/332/786 244/333/788 265/353/815 264/352/814
f 244/333/788 245/334/790 266/354/816 265/353/815
f 245/334/790 246/335/792 267/355/817 266/354/816
f 246/335/792 247/336/794 268/356/818 267/355/817
f 247/336/794 248/337/796 269/357/819 268/356/818
f 248/337/796 249/338/798 270/358/820 269/357/819
f 249/338/798 250/339/800 271/359/821 270/358/820
f 250/339/800 251/340/802 272/360/822 271/359/821
f 251/340/802 232/321/766 252/341/804 272/360/822
