# This file uses centimeters as units for non-parametric coordinates.

mtllib Kettle.mtl
g default
v 2.576005 -0.595022 -3.809028
v 2.531077 -0.595022 -3.897203
v 2.461102 -0.595022 -3.967179
v 2.372926 -0.595022 -4.012106
v 2.275184 -0.595022 -4.027587
v 2.177441 -0.595022 -4.012106
v 2.089266 -0.595022 -3.967179
v 2.019290 -0.595022 -3.897203
v 1.974363 -0.595022 -3.809028
v 1.958881 -0.595022 -3.711285
v 1.974363 -0.595022 -3.613543
v 2.019290 -0.595022 -3.525368
v 2.089266 -0.595022 -3.455392
v 2.177441 -0.595022 -3.410464
v 2.275184 -0.595022 -3.394983
v 2.372926 -0.595022 -3.410464
v 2.461101 -0.595022 -3.455392
v 2.531077 -0.595022 -3.525368
v 2.576005 -0.595022 -3.613543
v 2.591485 -0.595022 -3.711285
v 2.343691 0.496902 -3.733545
v 2.333459 0.496902 -3.753625
v 2.317524 0.496902 -3.769561
v 2.297443 0.496902 -3.779793
v 2.275184 0.496902 -3.783318
v 2.252924 0.496902 -3.779793
v 2.232843 0.496902 -3.769561
v 2.216908 0.496902 -3.753625
v 2.206676 0.496902 -3.733545
v 2.203151 0.496902 -3.711285
v 2.206676 0.496902 -3.689026
v 2.216908 0.496902 -3.668946
v 2.232843 0.496902 -3.653009
v 2.252924 0.496902 -3.642778
v 2.275184 0.496902 -3.639252
v 2.297443 0.496902 -3.642778
v 2.317524 0.496902 -3.653010
v 2.333459 0.496902 -3.668946
v 2.343691 0.496902 -3.689026
v 2.347217 0.496902 -3.711285
v 2.275184 -0.595022 -3.711285
v 2.275184 0.595022 -3.711285
v 2.479124 0.437941 -3.777550
v 2.489619 0.437941 -3.711285
v 2.479124 0.437941 -3.645021
v 2.448665 0.437941 -3.585243
v 2.401225 0.437941 -3.537803
v 2.341448 0.437941 -3.507345
v 2.275184 0.437941 -3.496850
v 2.208920 0.437941 -3.507345
v 2.149142 0.437941 -3.537803
v 2.101702 0.437941 -3.585243
v 2.071244 0.437941 -3.645021
v 2.060748 0.437941 -3.711285
v 2.071244 0.437941 -3.777550
v 2.101702 0.437941 -3.837328
v 2.149142 0.437941 -3.884767
v 2.208920 0.437941 -3.915226
v 2.275184 0.437941 -3.925721
v 2.341448 0.437941 -3.915226
v 2.401226 0.437941 -3.884767
v 2.448665 0.437941 -3.837328
v 2.413071 0.485927 -3.711285
v 2.406323 0.485927 -3.668676
v 2.386737 0.485927 -3.630237
v 2.356232 0.485927 -3.599732
v 2.317793 0.485927 -3.580146
v 2.275184 0.485927 -3.573398
v 2.232574 0.485927 -3.580146
v 2.194135 0.485927 -3.599732
v 2.163630 0.485927 -3.630237
v 2.144044 0.485927 -3.668676
v 2.137296 0.485927 -3.711285
v 2.144044 0.485927 -3.753895
v 2.163630 0.485927 -3.792334
v 2.194135 0.485927 -3.822839
v 2.232574 0.485927 -3.842425
v 2.275184 0.485927 -3.849173
v 2.317793 0.485927 -3.842425
v 2.356232 0.485927 -3.822839
v 2.386737 0.485927 -3.792334
v 2.406323 0.485927 -3.753895
v 2.456781 0.336214 -3.579347
v 2.407122 0.336214 -3.529687
v 2.344548 0.336214 -3.497804
v 2.275184 0.336214 -3.486818
v 2.205819 0.336214 -3.497804
v 2.143245 0.336214 -3.529687
v 2.093586 0.336214 -3.579347
v 2.061703 0.336214 -3.641921
v 2.050716 0.336214 -3.711285
v 2.061703 0.336214 -3.780650
v 2.093586 0.336214 -3.843224
v 2.143245 0.336214 -3.892883
v 2.205819 0.336214 -3.924767
v 2.275184 0.336214 -3.935753
v 2.344548 0.336214 -3.924767
v 2.407122 0.336214 -3.892883
v 2.456781 0.336214 -3.843224
v 2.488665 0.336214 -3.780650
v 2.499651 0.336214 -3.711285
v 2.488665 0.336214 -3.641921
v 2.457193 0.331053 -3.579048
v 2.407421 0.331053 -3.529276
v 2.375265 0.331053 -3.373609
v 2.275184 0.331053 -3.486309
v 2.205662 0.331053 -3.497320
v 2.142946 0.331053 -3.529276
v 2.093174 0.331053 -3.579048
v 2.061219 0.331053 -3.641764
v 2.050207 0.331053 -3.711285
v 2.061219 0.331053 -3.780807
v 2.093174 0.331053 -3.843523
v 2.142946 0.331053 -3.893295
v 2.205662 0.331053 -3.925251
v 2.275184 0.331053 -3.936262
v 2.344705 0.331053 -3.925251
v 2.407421 0.331053 -3.893295
v 2.457193 0.331053 -3.843523
v 2.489149 0.331053 -3.780807
v 2.500160 0.331053 -3.711285
v 2.489149 0.331053 -3.641764
v 2.470279 0.167031 -3.569540
v 2.416929 0.167031 -3.516190
v 2.349704 0.167031 -3.481937
v 2.275184 0.167031 -3.470134
v 2.200664 0.167031 -3.481937
v 2.133438 0.167031 -3.516190
v 2.080088 0.167031 -3.569540
v 2.045835 0.167031 -3.636766
v 2.034032 0.167031 -3.711285
v 2.045835 0.167031 -3.785806
v 2.080088 0.167031 -3.853031
v 2.133438 0.167031 -3.906381
v 2.275184 0.167031 -3.952437
v 2.349704 0.167031 -3.940634
v 2.416929 0.167031 -3.906381
v 2.470280 0.167031 -3.853031
v 2.504532 0.167031 -3.785806
v 2.516335 0.167031 -3.711285
v 2.504532 0.167031 -3.636766
v 2.392659 0.331629 -3.510970
v 2.370666 0.331629 -3.392006
v 2.392427 0.335638 -3.511289
v 2.346783 0.335638 -3.486525
v 2.289946 0.331629 -3.477596
v 2.289946 0.335638 -3.477991
v 2.369067 0.146952 -3.667817
v 2.338202 0.146465 -3.540201
v 2.368835 0.150960 -3.668137
v 2.338080 0.150474 -3.643451
v 2.302052 0.145979 -3.634602
v 2.302052 0.149988 -3.634997
v 2.275184 -0.434313 -4.011739
v 2.368029 -0.434313 -3.997034
v 2.451786 -0.434313 -3.954358
v 2.518257 -0.434313 -3.887888
v 2.560933 -0.434313 -3.804131
v 2.575637 -0.434313 -3.711285
v 2.560932 -0.434313 -3.618440
v 2.518256 -0.434313 -3.534684
v 2.451786 -0.434313 -3.468214
v 2.368029 -0.434313 -3.425537
v 2.275184 -0.434313 -3.410832
v 2.182339 -0.434313 -3.425537
v 2.098582 -0.434313 -3.468214
v 2.032112 -0.434313 -3.534684
v 1.989436 -0.434313 -3.618440
v 1.974730 -0.434313 -3.711285
v 1.989436 -0.434313 -3.804131
v 2.032112 -0.434313 -3.887888
v 2.098582 -0.434313 -3.954358
v 2.182339 -0.434313 -3.997034
v 2.275184 -0.421587 -4.010484
v 2.367641 -0.421587 -3.995840
v 2.451048 -0.421587 -3.953343
v 2.517241 -0.421587 -3.887150
v 2.559739 -0.421587 -3.803743
v 2.574383 -0.421587 -3.711285
v 2.559738 -0.421587 -3.618828
v 2.517241 -0.421587 -3.535421
v 2.451048 -0.421587 -3.469229
v 2.367641 -0.421587 -3.426731
v 2.275184 -0.421587 -3.412087
v 2.182726 -0.421587 -3.426731
v 2.099319 -0.421587 -3.469229
v 2.033127 -0.421587 -3.535421
v 1.990630 -0.421587 -3.618828
v 1.975986 -0.421587 -3.711285
v 1.990630 -0.421587 -3.803743
v 2.033127 -0.421587 -3.887150
v 2.099319 -0.421587 -3.953343
v 2.182726 -0.421587 -3.995840
v 2.133438 0.167031 -3.906381
v 2.142946 0.331053 -3.893295
v 2.205662 0.331053 -3.925251
v 2.275184 0.167031 -3.952437
v 2.275184 0.331053 -3.936262
v 2.099319 -0.421587 -3.953343
v 2.182726 -0.421587 -3.995840
v 2.275184 -0.421587 -4.010484
v 2.055988 0.107810 -4.159006
v 2.118253 0.107982 -4.188743
v 2.068243 0.209963 -4.125369
v 2.128256 0.209963 -4.152030
v 2.186105 0.107810 -4.201284
v 2.192479 0.209963 -4.165736
v 2.041258 -0.255574 -4.162511
v 2.114070 -0.255574 -4.195692
v 2.192479 -0.255574 -4.211645
v 2.210266 0.123873 -4.133788
v 2.214912 0.242807 -4.103495
v 2.149251 0.242807 -4.090520
v 2.088505 0.242807 -4.062422
v 2.076995 0.123873 -4.090486
v 2.057006 -0.300602 -4.105777
v 2.132692 -0.300602 -4.141485
v 2.214912 -0.300602 -4.157083
v 2.214070 -0.223707 -4.152863
v 2.275184 -0.314957 -3.999969
v 2.275184 -0.314957 -3.999969
v 2.364392 -0.314957 -3.985839
v 2.444868 -0.314957 -3.944835
v 2.508734 -0.314957 -3.880969
v 2.549738 -0.314957 -3.800494
v 2.563867 -0.314957 -3.711285
v 2.549738 -0.314957 -3.622077
v 2.508734 -0.314957 -3.541602
v 2.444868 -0.314957 -3.477736
v 2.364392 -0.314957 -3.436732
v 2.275184 -0.314957 -3.422602
v 2.185976 -0.314957 -3.436732
v 2.105500 -0.314957 -3.477736
v 2.041634 -0.314957 -3.541602
v 2.000630 -0.314957 -3.622077
v 1.986501 -0.314957 -3.711285
v 2.000630 -0.314957 -3.800494
v 2.041634 -0.314957 -3.880969
v 2.105500 -0.314957 -3.944835
v 2.105500 -0.314957 -3.944835
v 2.060627 -0.223707 -4.103007
v 2.043926 -0.189745 -4.161876
v 2.114828 -0.189714 -4.194433
v 2.191325 -0.189745 -4.209768
vt 0.648603 0.107966
vt 0.626409 0.064408
vt 0.591842 0.029841
vt 0.548284 0.007647
vt 0.500000 -0.000000
vt 0.451716 0.007647
vt 0.408159 0.029841
vt 0.373591 0.064409
vt 0.351397 0.107966
vt 0.343750 0.156250
vt 0.351397 0.204534
vt 0.373591 0.248091
vt 0.408159 0.282659
vt 0.451716 0.304853
vt 0.500000 0.312500
vt 0.548284 0.304853
vt 0.591841 0.282659
vt 0.626409 0.248091
vt 0.648603 0.204534
vt 0.656250 0.156250
vt 0.375000 0.312500
vt 0.387500 0.312500
vt 0.400000 0.312500
vt 0.412500 0.312500
vt 0.425000 0.312500
vt 0.437500 0.312500
vt 0.450000 0.312500
vt 0.462500 0.312500
vt 0.475000 0.312500
vt 0.487500 0.312500
vt 0.500000 0.312500
vt 0.512500 0.312500
vt 0.525000 0.312500
vt 0.537500 0.312500
vt 0.550000 0.312500
vt 0.562500 0.312500
vt 0.575000 0.312500
vt 0.587500 0.312500
vt 0.600000 0.312500
vt 0.612500 0.312500
vt 0.625000 0.312500
vt 0.375000 0.687500
vt 0.387500 0.687500
vt 0.400000 0.687500
vt 0.412500 0.687500
vt 0.425000 0.687500
vt 0.437500 0.687500
vt 0.450000 0.687500
vt 0.462500 0.687500
vt 0.475000 0.687500
vt 0.487500 0.687500
vt 0.500000 0.687500
vt 0.512500 0.687500
vt 0.525000 0.687500
vt 0.537500 0.687500
vt 0.550000 0.687500
vt 0.562500 0.687500
vt 0.575000 0.687500
vt 0.587500 0.687500
vt 0.600000 0.687500
vt 0.612500 0.687500
vt 0.625000 0.687500
vt 0.648603 0.795466
vt 0.626409 0.751908
vt 0.591842 0.717341
vt 0.548284 0.695147
vt 0.500000 0.687500
vt 0.451716 0.695147
vt 0.408159 0.717341
vt 0.373591 0.751909
vt 0.351397 0.795466
vt 0.343750 0.843750
vt 0.351397 0.892034
vt 0.373591 0.935591
vt 0.408159 0.970159
vt 0.451716 0.992353
vt 0.500000 1.000000
vt 0.548284 0.992353
vt 0.591841 0.970159
vt 0.626409 0.935591
vt 0.648603 0.892034
vt 0.656250 0.843750
vt 0.500000 0.156250
vt 0.500000 0.843750
vt 0.625000 0.638002
vt 0.375000 0.638002
vt 0.612500 0.638002
vt 0.600000 0.638002
vt 0.587500 0.638002
vt 0.575000 0.638002
vt 0.562500 0.638002
vt 0.550000 0.638002
vt 0.537500 0.638002
vt 0.525000 0.638002
vt 0.512500 0.638002
vt 0.500000 0.638002
vt 0.487500 0.638002
vt 0.475000 0.638002
vt 0.462500 0.638002
vt 0.450000 0.638002
vt 0.437500 0.638002
vt 0.425000 0.638002
vt 0.412500 0.638002
vt 0.400000 0.638002
vt 0.387500 0.638002
vt 0.612500 0.678286
vt 0.600000 0.678286
vt 0.587500 0.678286
vt 0.575000 0.678286
vt 0.562500 0.678286
vt 0.550000 0.678286
vt 0.537500 0.678286
vt 0.525000 0.678286
vt 0.512500 0.678286
vt 0.500000 0.678286
vt 0.487500 0.678286
vt 0.475000 0.678286
vt 0.462500 0.678286
vt 0.450000 0.678286
vt 0.437500 0.678286
vt 0.425000 0.678286
vt 0.412500 0.678286
vt 0.400000 0.678286
vt 0.387500 0.678286
vt 0.625000 0.678286
vt 0.375000 0.678286
vt 0.587500 0.605946
vt 0.575000 0.605946
vt 0.562500 0.605946
vt 0.550000 0.605946
vt 0.537500 0.605946
vt 0.525000 0.605946
vt 0.512500 0.605946
vt 0.500000 0.605946
vt 0.487500 0.605946
vt 0.475000 0.605946
vt 0.462500 0.605946
vt 0.450000 0.605946
vt 0.437500 0.605946
vt 0.425000 0.605946
vt 0.412500 0.605946
vt 0.400000 0.605946
vt 0.387500 0.605946
vt 0.625000 0.605946
vt 0.375000 0.605946
vt 0.612500 0.605946
vt 0.600000 0.605946
vt 0.587500 0.604320
vt 0.575000 0.604320
vt 0.562500 0.604320
vt 0.550000 0.604320
vt 0.537500 0.604320
vt 0.525000 0.604320
vt 0.512500 0.604320
vt 0.500000 0.604320
vt 0.487500 0.604320
vt 0.475000 0.604320
vt 0.462500 0.604320
vt 0.450000 0.604320
vt 0.437500 0.604320
vt 0.425000 0.604320
vt 0.412500 0.604320
vt 0.400000 0.604320
vt 0.387500 0.604320
vt 0.625000 0.604320
vt 0.375000 0.604320
vt 0.612500 0.604320
vt 0.600000 0.604320
vt 0.587500 0.552634
vt 0.575000 0.552634
vt 0.562500 0.552634
vt 0.550000 0.552634
vt 0.537500 0.552634
vt 0.525000 0.552634
vt 0.512500 0.552634
vt 0.500000 0.552634
vt 0.487500 0.552634
vt 0.475000 0.552634
vt 0.462500 0.552634
vt 0.450000 0.552634
vt 0.437500 0.552634
vt 0.425000 0.552634
vt 0.412500 0.552634
vt 0.400000 0.552634
vt 0.387500 0.552634
vt 0.625000 0.552634
vt 0.375000 0.552634
vt 0.612500 0.552634
vt 0.600000 0.552634
vt 0.562500 0.604320
vt 0.575000 0.604320
vt 0.575000 0.605946
vt 0.562500 0.605946
vt 0.550000 0.604320
vt 0.550000 0.605946
vt 0.562500 0.604320
vt 0.575000 0.604320
vt 0.575000 0.605946
vt 0.562500 0.605946
vt 0.550000 0.604320
vt 0.550000 0.605946
vt 0.425000 0.363142
vt 0.412500 0.363142
vt 0.400000 0.363142
vt 0.387500 0.363142
vt 0.625000 0.363142
vt 0.375000 0.363142
vt 0.612500 0.363142
vt 0.600000 0.363142
vt 0.587500 0.363142
vt 0.575000 0.363142
vt 0.562500 0.363142
vt 0.550000 0.363142
vt 0.537500 0.363142
vt 0.525000 0.363142
vt 0.512500 0.363142
vt 0.500000 0.363142
vt 0.487500 0.363142
vt 0.475000 0.363142
vt 0.462500 0.363142
vt 0.450000 0.363142
vt 0.437500 0.363142
vt 0.425000 0.367152
vt 0.412500 0.367152
vt 0.400000 0.367152
vt 0.387500 0.367152
vt 0.625000 0.367152
vt 0.375000 0.367152
vt 0.612500 0.367152
vt 0.600000 0.367152
vt 0.587500 0.367152
vt 0.575000 0.367152
vt 0.562500 0.367152
vt 0.550000 0.367152
vt 0.537500 0.367152
vt 0.525000 0.367152
vt 0.512500 0.367152
vt 0.500000 0.367152
vt 0.487500 0.367152
vt 0.475000 0.367152
vt 0.462500 0.367152
vt 0.450000 0.367152
vt 0.437500 0.367152
vt 0.450000 0.552634
vt 0.450000 0.604320
vt 0.437500 0.604320
vt 0.425000 0.604320
vt 0.425000 0.552634
vt 0.437500 0.367152
vt 0.450000 0.367152
vt 0.425000 0.367152
vt 0.450000 0.552634
vt 0.450000 0.604320
vt 0.437500 0.604320
vt 0.425000 0.604320
vt 0.425000 0.552634
vt 0.437500 0.367152
vt 0.450000 0.367152
vt 0.425000 0.367152
vt 0.425000 0.552634
vt 0.425000 0.604320
vt 0.437500 0.604320
vt 0.450000 0.604320
vt 0.450000 0.552634
vt 0.450000 0.367152
vt 0.437500 0.367152
vt 0.425000 0.367152
vt 0.425000 0.400753
vt 0.425000 0.400753
vt 0.425000 0.400753
vt 0.412500 0.400753
vt 0.400000 0.400753
vt 0.387500 0.400753
vt 0.625000 0.400753
vt 0.375000 0.400753
vt 0.612500 0.400753
vt 0.600000 0.400753
vt 0.587500 0.400753
vt 0.575000 0.400753
vt 0.562500 0.400753
vt 0.550000 0.400753
vt 0.537500 0.400753
vt 0.525000 0.400753
vt 0.512500 0.400753
vt 0.500000 0.400753
vt 0.487500 0.400753
vt 0.475000 0.400753
vt 0.462500 0.400753
vt 0.450000 0.400753
vt 0.450000 0.400753
vt 0.450000 0.400753
vt 0.450000 0.400753
vt 0.437500 0.400753
vt 0.425000 0.400753
vn 0.946467 0.098137 -0.307522
vn 0.805112 0.098137 -0.584947
vn 0.805113 0.098140 -0.584946
vn 0.946467 0.098139 -0.307522
vn 0.584946 0.098139 -0.805113
vn 0.584946 0.098140 -0.805113
vn 0.307522 0.098140 -0.946466
vn 0.307522 0.098140 -0.946466
vn -0.000000 0.098141 -0.995173
vn -0.000000 0.098141 -0.995173
vn -0.307523 0.098140 -0.946466
vn -0.307523 0.098141 -0.946466
vn -0.584947 0.098141 -0.805112
vn -0.584947 0.098141 -0.805112
vn -0.805113 0.098142 -0.584945
vn -0.805113 0.098141 -0.584945
vn -0.946465 0.098143 -0.307525
vn -0.946465 0.098143 -0.307526
vn -0.995172 0.098143 0.000000
vn -0.995172 0.098144 0.000000
vn -0.946465 0.098143 0.307526
vn -0.946465 0.098143 0.307526
vn -0.805112 0.098143 0.584946
vn -0.805113 0.098141 0.584946
vn -0.584948 0.098142 0.805111
vn -0.584949 0.098141 0.805111
vn -0.307526 0.098140 0.946465
vn -0.307526 0.098141 0.946465
vn -0.000000 0.098140 0.995173
vn -0.000000 0.098141 0.995173
vn 0.307526 0.098140 0.946465
vn 0.307526 0.098140 0.946465
vn 0.584949 0.098140 0.805111
vn 0.584949 0.098139 0.805110
vn 0.805111 0.098140 0.584948
vn 0.805112 0.098139 0.584947
vn 0.946465 0.098140 0.307525
vn 0.946466 0.098138 0.307525
vn 0.995173 0.098139 0.000003
vn 0.995173 0.098138 0.000003
vn 0.000000 -1.000000 0.000000
vn 0.000000 -1.000000 0.000000
vn 0.000000 -1.000000 0.000000
vn 0.000000 -1.000000 0.000000
vn 0.000000 -1.000000 0.000000
vn 0.000000 -1.000000 0.000000
vn 0.000000 -1.000000 0.000000
vn 0.000000 -1.000000 0.000000
vn 0.000000 -1.000000 0.000000
vn 0.000000 -1.000000 0.000000
vn 0.000000 -1.000000 0.000000
vn 0.000000 -1.000000 0.000000
vn 0.000000 -1.000000 0.000000
vn 0.000000 -1.000000 0.000000
vn 0.000000 -1.000000 0.000000
vn 0.000000 -1.000000 0.000000
vn 0.000000 -1.000000 0.000000
vn 0.000000 -1.000000 0.000000
vn 0.000000 -1.000000 0.000000
vn 0.000000 -1.000000 0.000000
vn 0.000000 -1.000000 0.000000
vn 0.766643 0.591784 -0.249099
vn 0.652147 0.591785 -0.473809
vn -0.000000 1.000000 0.000001
vn 0.473811 0.591786 -0.652145
vn 0.249095 0.591785 -0.766643
vn -0.000000 0.591785 -0.806096
vn -0.249095 0.591786 -0.766643
vn -0.473808 0.591786 -0.652146
vn -0.652143 0.591787 -0.473811
vn -0.766643 0.591787 -0.249092
vn -0.806096 0.591785 -0.000000
vn -0.766643 0.591786 0.249093
vn -0.652146 0.591786 0.473810
vn -0.473808 0.591786 0.652146
vn -0.249095 0.591784 0.766644
vn -0.000000 0.591785 0.806096
vn 0.249100 0.591784 0.766643
vn 0.473812 0.591785 0.652145
vn 0.652148 0.591784 0.473809
vn 0.766642 0.591784 0.249101
vn 0.806096 0.591785 -0.000000
vn 0.903089 0.429454 -0.000000
vn 0.858889 0.429454 -0.279068
vn 0.418754 0.897849 -0.136061
vn 0.440305 0.897848 -0.000000
vn 0.858889 0.429453 0.279069
vn 0.418754 0.897849 0.136061
vn 0.730614 0.429454 0.530823
vn 0.356214 0.897848 0.258805
vn 0.530822 0.429454 0.730615
vn 0.258804 0.897849 0.356214
vn 0.279070 0.429454 0.858888
vn 0.136061 0.897849 0.418754
vn -0.000000 0.429454 0.903089
vn 0.000000 0.897849 0.440304
vn -0.279069 0.429454 0.858889
vn -0.136061 0.897849 0.418754
vn -0.530821 0.429454 0.730615
vn -0.258804 0.897849 0.356214
vn -0.730615 0.429453 0.530821
vn -0.356214 0.897848 0.258804
vn -0.858889 0.429454 0.279069
vn -0.418755 0.897848 0.136060
vn -0.903089 0.429453 -0.000000
vn -0.440304 0.897849 -0.000000
vn -0.858889 0.429454 -0.279068
vn -0.418756 0.897848 -0.136060
vn -0.730615 0.429453 -0.530822
vn -0.356215 0.897848 -0.258804
vn -0.530821 0.429453 -0.730615
vn -0.258804 0.897848 -0.356215
vn -0.279071 0.429454 -0.858888
vn -0.136062 0.897849 -0.418754
vn -0.000001 0.429453 -0.903089
vn -0.000001 0.897849 -0.440304
vn 0.279072 0.429453 -0.858888
vn 0.136062 0.897849 -0.418753
vn 0.530823 0.429453 -0.730614
vn 0.258804 0.897849 -0.356214
vn 0.730614 0.429453 -0.530822
vn 0.356215 0.897848 -0.258804
vn 0.164398 0.986394 0.000000
vn 0.156352 0.986394 0.050801
vn 0.133001 0.986394 0.096630
vn 0.096631 0.986394 0.133001
vn 0.050802 0.986394 0.156352
vn 0.000000 0.986394 0.164398
vn -0.050801 0.986394 0.156352
vn -0.096630 0.986394 0.133001
vn -0.133001 0.986394 0.096630
vn -0.156352 0.986394 0.050800
vn -0.164399 0.986394 0.000000
vn -0.156352 0.986394 -0.050800
vn -0.133001 0.986394 -0.096630
vn -0.096630 0.986394 -0.133001
vn -0.050801 0.986394 -0.156352
vn 0.000000 0.986394 -0.164398
vn 0.050802 0.986394 -0.156352
vn 0.096631 0.986394 -0.133001
vn 0.133001 0.986394 -0.096630
vn 0.156352 0.986394 -0.050801
vn 0.588288 0.098138 0.802675
vn 0.805111 0.098138 0.584949
vn 0.307525 0.098139 0.946465
vn -0.004134 0.098139 0.995164
vn -0.307525 0.098140 0.946465
vn -0.584948 0.098139 0.805112
vn -0.805112 0.098138 0.584947
vn -0.946466 0.098140 0.307525
vn -0.995173 0.098141 0.000000
vn -0.946465 0.098140 -0.307525
vn -0.805113 0.098139 -0.584947
vn -0.584948 0.098139 -0.805112
vn -0.307528 0.098139 -0.946465
vn -0.000001 0.098137 -0.995173
vn 0.307528 0.098137 -0.946465
vn 0.584948 0.098138 -0.805112
vn 0.805112 0.098139 -0.584947
vn 0.946465 0.098140 -0.307525
vn 0.995173 0.098140 -0.000000
vn 0.946466 0.098139 0.307525
vn 0.816328 -0.042835 0.575998
vn 0.805112 0.098139 0.584947
vn -0.004792 0.997019 0.077004
vn 0.170999 0.982378 0.075457
vn 0.170999 0.982378 0.075457
vn 0.059233 0.995292 0.076719
vn -0.104827 0.991519 0.076817
vn -0.104827 0.991519 0.076817
vn -0.307525 0.098140 0.946466
vn -0.355302 -0.056946 0.933015
vn -0.584948 0.098140 0.805111
vn -0.805113 0.098139 0.584946
vn -0.946465 0.098139 0.307526
vn -0.995173 0.098139 0.000000
vn -0.946466 0.098139 -0.307524
vn -0.805112 0.098140 -0.584947
vn -0.697722 0.097069 -0.709762
vn -0.307525 0.098099 -0.946470
vn 0.147283 0.097068 -0.984320
vn 0.307525 0.098140 -0.946466
vn 0.584947 0.098141 -0.805112
vn 0.805111 0.098141 -0.584948
vn 0.946466 0.098141 -0.307524
vn 0.995173 0.098141 -0.000000
vn 0.946465 0.098140 0.307528
vn 0.592212 0.098136 0.799784
vn 0.805111 0.098141 0.584949
vn 0.314736 0.023845 0.948880
vn -0.009008 0.098136 0.995132
vn -0.307525 0.098139 0.946465
vn -0.584947 0.098140 0.805112
vn -0.805112 0.098140 0.584947
vn -0.946465 0.098140 0.307525
vn -0.995173 0.098140 0.000000
vn -0.946465 0.098140 -0.307525
vn -0.805112 0.098140 -0.584947
vn -0.703776 0.096943 -0.703776
vn -0.306413 0.101212 -0.946503
vn -0.420425 0.103081 -0.901453
vn -0.394631 0.337548 -0.854592
vn -0.292247 0.341399 -0.893330
vn -0.189729 0.101723 -0.976553
vn -0.182799 0.341075 -0.922091
vn 0.307524 0.098140 -0.946466
vn 0.155697 0.096943 -0.983036
vn 0.584947 0.098141 -0.805112
vn 0.805111 0.098141 -0.584949
vn 0.946466 0.098141 -0.307525
vn 0.995173 0.098141 0.000000
vn 0.946465 0.098141 0.307526
vn 0.226582 -0.561108 0.796127
vn 0.059344 0.998169 0.011701
vn 0.059344 0.998169 0.011701
vn 0.059344 0.998169 0.011701
vn 0.059344 0.998169 0.011701
vn 0.776388 0.094708 0.623098
vn 0.776388 0.094708 0.623098
vn 0.776389 0.094708 0.623098
vn 0.776389 0.094708 0.623098
vn 0.026006 0.998427 0.049680
vn 0.026006 0.998427 0.049680
vn 0.026006 0.998427 0.049680
vn 0.026006 0.998426 0.049680
vn -0.060458 0.996647 0.055128
vn -0.060458 0.996647 0.055128
vn -0.060458 0.996647 0.055128
vn -0.060458 0.996647 0.055128
vn 0.007829 0.998688 0.050611
vn 0.007829 0.998688 0.050611
vn 0.007829 0.998688 0.050611
vn 0.007829 0.998688 0.050611
vn -0.508930 0.084463 0.856654
vn -0.508930 0.084463 0.856654
vn -0.508930 0.084463 0.856654
vn -0.508930 0.084463 0.856654
vn -0.931227 0.305296 -0.199023
vn -0.931227 0.305296 -0.199023
vn -0.931227 0.305296 -0.199023
vn -0.931227 0.305296 -0.199023
vn -0.979768 -0.041175 0.195854
vn -0.979768 -0.041175 0.195854
vn -0.979768 -0.041175 0.195854
vn -0.979768 -0.041175 0.195854
vn 0.435712 -0.604122 0.667227
vn 0.263300 -0.632167 0.728723
vn 0.314641 -0.626218 0.713338
vn 0.435712 -0.604122 0.667227
vn 0.777493 0.373659 -0.505850
vn 0.777493 0.373659 -0.505850
vn 0.777493 0.373659 -0.505850
vn 0.777493 0.373659 -0.505850
vn 0.141670 -0.638867 0.756160
vn 0.141670 -0.638867 0.756160
vn 0.997601 0.006793 0.068887
vn 0.997601 0.006793 0.068887
vn 0.997601 0.006793 0.068887
vn 0.997601 0.006793 0.068887
vn 0.124862 0.097370 -0.987385
vn 0.307523 0.098138 -0.946466
vn 0.584947 0.098140 -0.805112
vn 0.805111 0.098141 -0.584948
vn 0.946466 0.098140 -0.307525
vn 0.995173 0.098136 0.000001
vn 0.946466 0.098134 0.307526
vn 0.805111 0.098135 0.584950
vn 0.584947 0.098138 0.805112
vn 0.307525 0.098140 0.946466
vn -0.000000 0.098142 0.995173
vn -0.307525 0.098141 0.946465
vn -0.584946 0.098140 0.805113
vn -0.805112 0.098137 0.584947
vn -0.946466 0.098137 0.307524
vn -0.995173 0.098138 0.000000
vn -0.946466 0.098138 -0.307523
vn -0.805113 0.098139 -0.584946
vn -0.681385 0.097372 -0.725419
vn -0.307521 0.098144 -0.946466
vn 0.155697 0.096943 -0.983036
vn 0.307524 0.098140 -0.946466
vn 0.584947 0.098140 -0.805112
vn 0.805111 0.098140 -0.584949
vn 0.946466 0.098140 -0.307524
vn 0.995173 0.098140 0.000000
vn 0.946465 0.098140 0.307526
vn 0.805111 0.098140 0.584949
vn 0.584948 0.098140 0.805111
vn 0.307525 0.098140 0.946465
vn 0.000000 0.098140 0.995173
vn -0.307525 0.098140 0.946466
vn -0.584947 0.098140 0.805112
vn -0.805112 0.098140 0.584947
vn -0.946465 0.098139 0.307525
vn -0.995173 0.098139 -0.000000
vn -0.946466 0.098139 -0.307525
vn -0.805112 0.098140 -0.584947
vn -0.703777 0.096943 -0.703776
vn -0.309588 0.023477 -0.950581
vn -0.415862 0.023894 -0.909114
vn -0.422040 0.024013 -0.906259
vn -0.309372 0.023580 -0.950649
vn -0.197924 0.022744 -0.979953
vn -0.191215 0.022792 -0.981284
vn 0.000000 0.000000 0.000000
vn 0.000000 0.000000 0.000000
vn 0.000000 0.000000 0.000000
vn 0.000000 0.000000 0.000000
vn 0.000000 0.000000 0.000000
vn 0.000000 0.000000 0.000000
vn 0.000000 0.000000 0.000000
vn 0.000000 0.000000 0.000000
vn 0.000000 0.000000 0.000000
vn 0.000000 0.000000 0.000000
vn 0.000000 0.000000 0.000000
vn 0.000000 0.000000 0.000000
vn 0.000000 0.000000 0.000000
vn 0.000000 0.000000 0.000000
vn 0.000000 0.000000 0.000000
vn 0.000000 0.000000 0.000000
vn 0.000000 0.000000 0.000000
vn 0.000000 0.000000 0.000000
vn 0.000000 0.000000 0.000000
vn 0.000000 0.000000 0.000000
vn 0.000000 0.000000 0.000000
vn 0.000000 0.000000 0.000000
vn 0.000000 0.000000 0.000000
vn 0.000000 0.000000 0.000000
vn 0.000000 0.000000 0.000000
vn 0.000000 0.000000 0.000000
vn 0.000000 0.000000 0.000000
vn 0.000000 0.000000 0.000000
vn 0.000000 0.000000 0.000000
vn 0.000000 0.000000 0.000000
vn 0.000000 0.000000 0.000000
vn 0.000000 0.000000 0.000000
vn -0.956723 0.028955 0.289557
vn -0.956723 0.028955 0.289557
vn -0.956667 0.028219 0.289814
vn -0.956690 0.030023 0.289557
vn -0.197306 0.892482 -0.405643
vn -0.138061 0.893850 -0.426582
vn -0.138834 0.893867 -0.426294
vn -0.194587 0.892633 -0.406624
vn -0.079064 0.891738 -0.445592
vn -0.081762 0.891919 -0.444742
vn 0.935104 0.042428 -0.351824
vn 0.935104 0.042428 -0.351824
vn 0.935191 0.039994 -0.351877
vn 0.934825 0.044110 -0.352358
vn -0.189129 -0.788931 -0.584652
vn -0.272398 -0.786595 -0.554136
vn -0.269529 -0.786825 -0.555212
vn -0.190309 -0.789001 -0.584175
vn -0.956131 0.033180 0.291054
vn -0.956131 0.033180 0.291054
vn -0.956470 0.034505 0.289783
vn -0.956060 0.033496 0.291251
vn -0.105646 -0.785161 -0.610214
vn -0.108509 -0.785435 -0.609359
vn 0.934153 0.032813 -0.355361
vn 0.934153 0.032813 -0.355361
vn 0.934006 0.032093 -0.355813
vn 0.935298 0.029805 -0.352603
vn 0.936074 0.032436 -0.350304
vn 0.932047 0.059964 -0.357340
vn -0.090770 0.892472 -0.441875
vn -0.138986 0.893898 -0.426179
vn -0.185806 0.893068 -0.409763
vn -0.956108 0.021213 0.292246
vn -0.956817 0.033360 0.288771
vn -0.956758 0.035273 0.288737
vn -0.955689 0.035140 0.292272
vn -0.259322 -0.787582 -0.558988
vn -0.190540 -0.789152 -0.583896
vn -0.119063 -0.786382 -0.606158
vn 0.936213 0.028059 -0.350311
vn 0.933232 0.028352 -0.358154
vn 0.000000 0.000000 0.000000
vn 0.000000 0.000000 0.000000
vn 0.000000 0.000000 0.000000
vn 0.000000 0.000000 0.000000
vn 0.000000 0.000000 0.000000
vn 0.000000 0.000000 0.000000
vn 0.000000 0.000000 0.000000
vn 0.000000 0.000000 0.000000
vn 0.150038 0.874216 0.461773
vn 0.150038 0.874216 0.461773
vn 0.150038 0.874216 0.461773
vn 0.150038 0.874216 0.461773
vn 0.308648 -0.048754 0.949926
vn 0.308648 -0.048754 0.949926
vn 0.308648 -0.048754 0.949926
vn 0.308648 -0.048754 0.949926
vn 0.067590 -0.975786 0.208021
vn 0.067590 -0.975786 0.208021
vn 0.067590 -0.975786 0.208021
vn 0.067590 -0.975786 0.208021
vn -0.307666 0.093380 -0.946901
vn -0.307666 0.093380 -0.946901
vn -0.307666 0.093380 -0.946901
vn -0.307666 0.093380 -0.946901
s 1
g pCylinder6
usemtl initialShadingGroup
f 1/21/1 2/22/2 157/205/3 158/207/4
f 2/22/2 3/23/5 156/204/6 157/205/3
f 3/23/5 4/24/7 155/203/8 156/204/6
f 4/24/7 5/25/9 154/202/10 155/203/8
f 5/25/9 6/26/11 173/222/12 154/202/10
f 6/26/11 7/27/13 172/221/14 173/222/12
f 7/27/13 8/28/15 171/220/16 172/221/14
f 8/28/15 9/29/17 170/219/18 171/220/16
f 9/29/17 10/30/19 169/218/20 170/219/18
f 10/30/19 11/31/21 168/217/22 169/218/20
f 11/31/21 12/32/23 167/216/24 168/217/22
f 12/32/23 13/33/25 166/215/26 167/216/24
f 13/33/25 14/34/27 165/214/28 166/215/26
f 14/34/27 15/35/29 164/213/30 165/214/28
f 15/35/29 16/36/31 163/212/32 164/213/30
f 16/36/31 17/37/33 162/211/34 163/212/32
f 17/37/33 18/38/35 161/210/36 162/211/34
f 18/38/35 19/39/37 160/209/38 161/210/36
f 19/39/37 20/40/39 159/208/40 160/209/38
f 20/40/39 1/41/1 158/206/4 159/208/40
s 2
f 2/2/41 1/1/42 41/83/43
f 3/3/44 2/2/41 41/83/43
f 4/4/45 3/3/44 41/83/43
f 5/5/46 4/4/45 41/83/43
f 6/6/47 5/5/46 41/83/43
f 7/7/48 6/6/47 41/83/43
f 8/8/49 7/7/48 41/83/43
f 9/9/50 8/8/49 41/83/43
f 10/10/51 9/9/50 41/83/43
f 11/11/52 10/10/51 41/83/43
f 12/12/53 11/11/52 41/83/43
f 13/13/54 12/12/53 41/83/43
f 14/14/55 13/13/54 41/83/43
f 15/15/56 14/14/55 41/83/43
f 16/16/57 15/15/56 41/83/43
f 17/17/58 16/16/57 41/83/43
f 18/18/59 17/17/58 41/83/43
f 19/19/60 18/18/59 41/83/43
f 20/20/61 19/19/60 41/83/43
f 1/1/42 20/20/61 41/83/43
s 3
f 21/81/62 22/80/63 42/84/64
f 22/80/63 23/79/65 42/84/64
f 23/79/65 24/78/66 42/84/64
f 24/78/66 25/77/67 42/84/64
f 25/77/67 26/76/68 42/84/64
f 26/76/68 27/75/69 42/84/64
f 27/75/69 28/74/70 42/84/64
f 28/74/70 29/73/71 42/84/64
f 29/73/71 30/72/72 42/84/64
f 30/72/72 31/71/73 42/84/64
f 31/71/73 32/70/74 42/84/64
f 32/70/74 33/69/75 42/84/64
f 33/69/75 34/68/76 42/84/64
f 34/68/76 35/67/77 42/84/64
f 35/67/77 36/66/78 42/84/64
f 36/66/78 37/65/79 42/84/64
f 37/65/79 38/64/80 42/84/64
f 38/64/80 39/63/81 42/84/64
f 39/63/81 40/82/82 42/84/64
f 40/82/82 21/81/62 42/84/64
s 1
f 44/87/83 43/85/84 82/125/85 63/106/86
f 45/88/87 44/87/83 63/106/86 64/107/88
f 46/89/89 45/88/87 64/107/88 65/108/90
f 47/90/91 46/89/89 65/108/90 66/109/92
f 48/91/93 47/90/91 66/109/92 67/110/94
f 49/92/95 48/91/93 67/110/94 68/111/96
f 50/93/97 49/92/95 68/111/96 69/112/98
f 51/94/99 50/93/97 69/112/98 70/113/100
f 52/95/101 51/94/99 70/113/100 71/114/102
f 53/96/103 52/95/101 71/114/102 72/115/104
f 54/97/105 53/96/103 72/115/104 73/116/106
f 55/98/107 54/97/105 73/116/106 74/117/108
f 56/99/109 55/98/107 74/117/108 75/118/110
f 57/100/111 56/99/109 75/118/110 76/119/112
f 58/101/113 57/100/111 76/119/112 77/120/114
f 59/102/115 58/101/113 77/120/114 78/121/116
f 60/103/117 59/102/115 78/121/116 79/122/118
f 61/104/119 60/103/117 79/122/118 80/123/120
f 62/105/121 61/104/119 80/123/120 81/124/122
f 43/86/84 62/105/121 81/124/122 82/126/85
f 64/107/88 63/106/86 40/61/123 39/60/124
f 65/108/90 64/107/88 39/60/124 38/59/125
f 66/109/92 65/108/90 38/59/125 37/58/126
f 67/110/94 66/109/92 37/58/126 36/57/127
f 68/111/96 67/110/94 36/57/127 35/56/128
f 69/112/98 68/111/96 35/56/128 34/55/129
f 70/113/100 69/112/98 34/55/129 33/54/130
f 71/114/102 70/113/100 33/54/130 32/53/131
f 72/115/104 71/114/102 32/53/131 31/52/132
f 73/116/106 72/115/104 31/52/132 30/51/133
f 74/117/108 73/116/106 30/51/133 29/50/134
f 75/118/110 74/117/108 29/50/134 28/49/135
f 76/119/112 75/118/110 28/49/135 27/48/136
f 77/120/114 76/119/112 27/48/136 26/47/137
f 78/121/116 77/120/114 26/47/137 25/46/138
f 79/122/118 78/121/116 25/46/138 24/45/139
f 80/123/120 79/122/118 24/45/139 23/44/140
f 81/124/122 80/123/120 23/44/140 22/43/141
f 82/126/85 81/124/122 22/43/141 21/42/142
f 63/106/86 82/125/85 21/62/142 40/61/123
f 84/128/143 83/127/144 46/89/89 47/90/91
f 85/129/145 84/128/143 47/90/91 48/91/93
f 86/130/146 85/129/145 48/91/93 49/92/95
f 87/131/147 86/130/146 49/92/95 50/93/97
f 88/132/148 87/131/147 50/93/97 51/94/99
f 89/133/149 88/132/148 51/94/99 52/95/101
f 90/134/150 89/133/149 52/95/101 53/96/103
f 91/135/151 90/134/150 53/96/103 54/97/105
f 92/136/152 91/135/151 54/97/105 55/98/107
f 93/137/153 92/136/152 55/98/107 56/99/109
f 94/138/154 93/137/153 56/99/109 57/100/111
f 95/139/155 94/138/154 57/100/111 58/101/113
f 96/140/156 95/139/155 58/101/113 59/102/115
f 97/141/157 96/140/156 59/102/115 60/103/117
f 98/142/158 97/141/157 60/103/117 61/104/119
f 99/143/159 98/142/158 61/104/119 62/105/121
f 100/145/160 99/143/159 62/105/121 43/86/84
f 101/146/161 100/144/160 43/85/84 44/87/83
f 102/147/162 101/146/161 44/87/83 45/88/87
f 83/127/144 102/147/162 45/88/87 46/89/89
f 104/149/163 103/148/164 83/127/144 84/128/143
s 5
f 149/196/165 148/197/166 150/198/167 151/199/168
f 152/200/169 149/196/165 151/199/168 153/201/170
s 1
f 107/152/171 106/151/172 86/130/146 87/131/147
f 108/153/173 107/152/171 87/131/147 88/132/148
f 109/154/174 108/153/173 88/132/148 89/133/149
f 110/155/175 109/154/174 89/133/149 90/134/150
f 111/156/176 110/155/175 90/134/150 91/135/151
f 112/157/177 111/156/176 91/135/151 92/136/152
f 113/158/178 112/157/177 92/136/152 93/137/153
f 114/159/179 113/158/178 93/137/153 94/138/154
f 115/160/180 114/159/179 94/138/154 95/139/155
f 116/161/181 115/160/180 95/139/155 96/140/156
f 117/162/182 116/161/181 96/140/156 97/141/157
f 118/163/183 117/162/182 97/141/157 98/142/158
f 119/164/184 118/163/183 98/142/158 99/143/159
f 120/166/185 119/164/184 99/143/159 100/145/160
f 121/167/186 120/165/185 100/144/160 101/146/161
f 122/168/187 121/167/186 101/146/161 102/147/162
f 103/148/164 122/168/187 102/147/162 83/127/144
f 124/170/188 123/169/189 103/148/164 104/149/163
f 125/171/190 124/170/188 104/149/163
f 126/172/191 125/171/190 106/151/172
f 127/173/192 126/172/191 106/151/172 107/152/171
f 128/174/193 127/173/192 107/152/171 108/153/173
f 129/175/194 128/174/193 108/153/173 109/154/174
f 130/176/195 129/175/194 109/154/174 110/155/175
f 131/177/196 130/176/195 110/155/175 111/156/176
f 132/178/197 131/177/196 111/156/176 112/157/177
f 133/179/198 132/178/197 112/157/177 113/158/178
f 134/180/199 133/179/198 113/158/178 114/159/179
s 7
f 203/181/200 202/252/201 204/253/202 205/254/203
f 206/256/204 203/181/200 205/254/203 207/255/205
s 1
f 136/183/206 135/182/207 116/161/181 117/162/182
f 137/184/208 136/183/206 117/162/182 118/163/183
f 138/185/209 137/184/208 118/163/183 119/164/184
f 139/187/210 138/185/209 119/164/184 120/166/185
f 140/188/211 139/186/210 120/165/185 121/167/186
f 141/189/212 140/188/211 121/167/186 122/168/187
f 123/169/189 141/189/212 122/168/187 103/148/164
f 125/171/190 104/149/163 105/150/213
f 106/151/172 125/171/190 105/150/213
s off
f 105/150/214 104/149/215 142/191/216 143/190/217
f 104/149/218 84/128/219 144/192/220 142/191/221
f 84/128/222 85/129/223 145/193/224 144/192/225
f 106/151/226 105/150/227 143/190/228 146/194/229
f 85/129/230 86/130/231 147/195/232 145/193/233
f 86/130/234 106/151/235 146/194/236 147/195/237
f 143/190/238 142/191/239 148/197/240 149/196/241
f 142/191/242 144/192/243 150/198/244 148/197/245
s 8
f 144/192/246 145/193/247 151/199/248 150/198/249
s off
f 146/194/250 143/190/251 149/196/252 152/200/253
s 8
f 145/193/247 147/195/254 153/201/255 151/199/248
s off
f 147/195/256 146/194/257 152/200/258 153/201/259
s 1
f 155/203/8 154/202/10 174/223/260 175/224/261
f 156/204/6 155/203/8 175/224/261 176/225/262
f 157/205/3 156/204/6 176/225/262 177/226/263
f 158/207/4 157/205/3 177/226/263 178/228/264
f 159/208/40 158/206/4 178/227/264 179/229/265
f 160/209/38 159/208/40 179/229/265 180/230/266
f 161/210/36 160/209/38 180/230/266 181/231/267
f 162/211/34 161/210/36 181/231/267 182/232/268
f 163/212/32 162/211/34 182/232/268 183/233/269
f 164/213/30 163/212/32 183/233/269 184/234/270
f 165/214/28 164/213/30 184/234/270 185/235/271
f 166/215/26 165/214/28 185/235/271 186/236/272
f 167/216/24 166/215/26 186/236/272 187/237/273
f 168/217/22 167/216/24 187/237/273 188/238/274
f 169/218/20 168/217/22 188/238/274 189/239/275
f 170/219/18 169/218/20 189/239/275 190/240/276
f 171/220/16 170/219/18 190/240/276 191/241/277
f 172/221/14 171/220/16 191/241/277 192/242/278
f 173/222/12 172/221/14 192/242/278 193/243/279
f 154/202/10 173/222/12 193/243/279 174/223/260
f 175/224/261 174/223/260 221/270/280 222/271/281
f 176/225/262 175/224/261 222/271/281 223/272/282
f 177/226/263 176/225/262 223/272/282 224/273/283
f 178/228/264 177/226/263 224/273/283 225/275/284
f 179/229/265 178/227/264 225/274/284 226/276/285
f 180/230/266 179/229/265 226/276/285 227/277/286
f 181/231/267 180/230/266 227/277/286 228/278/287
f 182/232/268 181/231/267 228/278/287 229/279/288
f 183/233/269 182/232/268 229/279/288 230/280/289
f 184/234/270 183/233/269 230/280/289 231/281/290
f 185/235/271 184/234/270 231/281/290 232/282/291
f 186/236/272 185/235/271 232/282/291 233/283/292
f 187/237/273 186/236/272 233/283/292 234/284/293
f 188/238/274 187/237/273 234/284/293 235/285/294
f 189/239/275 188/238/274 235/285/294 236/286/295
f 190/240/276 189/239/275 236/286/295 237/287/296
f 191/241/277 190/240/276 237/287/296 238/288/297
f 192/242/278 191/241/277 238/288/297 239/289/298
s 7
f 209/257/299 208/258/300 242/292/301 243/293/302
f 210/259/303 209/257/299 243/293/302 244/294/304
s off
f 134/180/305 114/159/306 195/245/307 194/244/308
f 114/159/309 115/160/310 196/246/311 195/245/312
f 115/160/313 116/161/314 198/247/315 196/246/316
f 116/161/317 135/182/318 197/248/319 198/247/320
f 193/243/321 192/242/322 199/250/323 200/249/324
f 192/242/325 239/289/326 240/290/327 199/250/328
f 174/223/329 193/243/330 200/249/331 201/251/332
f 221/270/333 174/223/334 201/251/335 220/269/336
s 9
f 194/244/337 195/245/338 214/263/339 215/264/340
s 10
f 195/245/341 196/246/342 213/262/343 214/263/344
f 196/246/342 198/247/345 212/261/346 213/262/343
s 11
f 198/247/347 197/248/348 211/260/349 212/261/350
s 12
f 200/249/351 199/250/352 216/265/353 217/266/354
s 9
f 199/250/355 240/290/356 241/291/357 216/265/358
s 12
f 201/251/359 200/249/351 217/266/354 218/267/360
s 11
f 220/269/361 201/251/362 218/267/363 219/268/364
f 212/261/350 211/260/349 206/256/365 207/255/366
s 10
f 213/262/343 212/261/346 207/255/367 205/254/368
f 214/263/344 213/262/343 205/254/368 204/253/369
s 9
f 215/264/340 214/263/339 204/253/370 202/252/371
f 216/265/358 241/291/357 242/292/372 208/258/373
s 12
f 217/266/354 216/265/353 208/258/374 209/257/375
f 218/267/360 217/266/354 209/257/375 210/259/376
s 11
f 244/294/377 219/268/364 218/267/363 210/259/378
s off
f 135/182/379 221/270/380 220/269/381 197/248/382
s 1
f 222/271/281 221/270/280 135/182/207 136/183/206
f 223/272/282 222/271/281 136/183/206 137/184/208
f 224/273/283 223/272/282 137/184/208 138/185/209
f 225/275/284 224/273/283 138/185/209 139/187/210
f 226/276/285 225/274/284 139/186/210 140/188/211
f 227/277/286 226/276/285 140/188/211 141/189/212
f 228/278/287 227/277/286 141/189/212 123/169/189
f 229/279/288 228/278/287 123/169/189 124/170/188
f 230/280/289 229/279/288 124/170/188 125/171/190
f 231/281/290 230/280/289 125/171/190 126/172/191
f 232/282/291 231/281/290 126/172/191 127/173/192
f 233/283/292 232/282/291 127/173/192 128/174/193
f 234/284/293 233/283/292 128/174/193 129/175/194
f 235/285/294 234/284/293 129/175/194 130/176/195
f 236/286/295 235/285/294 130/176/195 131/177/196
f 237/287/296 236/286/295 131/177/196 132/178/197
f 238/288/297 237/287/296 132/178/197 133/179/198
f 239/289/298 238/288/297 133/179/198 134/180/199
s off
f 240/290/383 239/289/384 134/180/385 194/244/386
s 9
f 242/292/372 241/291/357 215/264/340 202/252/371
s 7
f 243/293/302 242/292/301 202/252/201 203/181/200
f 244/294/304 243/293/302 203/181/200 206/256/204
s 11
f 211/260/349 219/268/364 244/294/377 206/256/365
s off
f 220/269/387 219/268/388 241/291/389 240/290/390
f 215/264/391 241/291/392 219/268/393 211/260/394
f 194/244/395 215/264/396 211/260/397 197/248/398
f 220/269/399 240/290/400 194/244/401 197/248/402
