# This file uses centimeters as units for non-parametric coordinates.

mtllib mIXER.mtl
g default
v 1.552903 5.062526 -0.504569
v 1.320978 5.062526 -0.959747
v 0.959747 5.062526 -1.320978
v 0.504569 5.062526 -1.552903
v 0.000000 5.062526 -1.632819
v -0.504569 5.062526 -1.552903
v -0.959746 5.062526 -1.320978
v -1.320978 5.062526 -0.959746
v -1.552902 5.062526 -0.504569
v -1.632818 5.062526 0.000000
v -1.552902 5.062526 0.504569
v -1.320978 5.062526 0.959746
v -0.959746 5.062526 1.320978
v -0.504569 5.062526 1.552902
v -0.000000 5.062526 1.632818
v 0.504568 5.062526 1.552902
v 0.959746 5.062526 1.320977
v 1.320977 5.062526 0.959746
v 1.552902 5.062526 0.504568
v 1.632817 5.062526 0.000000
v 1.552903 6.318442 -0.504569
v 1.320978 6.318442 -0.959747
v 0.959747 6.318442 -1.320978
v 0.504569 6.318442 -1.552903
v 0.000000 6.318442 -1.632819
v -0.504569 6.318442 -1.552903
v -0.959746 6.318442 -1.320978
v -1.320978 6.318442 -0.959746
v -1.552902 6.318442 -0.504569
v -1.632818 6.318442 0.000000
v -1.552902 6.318442 0.504569
v -1.320978 6.318442 0.959746
v -0.959746 6.318442 1.320978
v -0.504569 6.318442 1.552902
v -0.000000 6.318442 1.632818
v 0.504568 6.318442 1.552902
v 0.959746 6.318442 1.320977
v 1.320977 6.318442 0.959746
v 1.552902 6.318442 0.504568
v 1.632817 6.318442 0.000000
v 1.472019 5.062526 -0.478288
v 1.252174 5.062526 -0.909758
v 0.909758 5.062526 -1.252174
v 0.478288 5.062526 -1.472019
v -0.000000 5.062526 -1.547772
v -0.478288 5.062526 -1.472019
v -0.909758 5.062526 -1.252174
v -1.252174 5.062526 -0.909758
v -1.472019 5.062526 -0.478288
v -1.547772 5.062526 -0.000000
v -1.472019 5.062526 0.478288
v -1.252174 5.062526 0.909758
v -0.909758 5.062526 1.252174
v -0.478288 5.062526 1.472019
v -0.000000 5.062526 1.547772
v 0.478288 5.062526 1.472019
v 0.909757 5.062526 1.252173
v 1.252173 5.062526 0.909757
v 1.472018 5.062526 0.478288
v 1.547771 5.062526 -0.000000
v 1.472019 6.128902 -0.478288
v 1.252174 6.128902 -0.909757
v -0.000000 6.128902 -0.000000
v 0.909758 6.128902 -1.252174
v 0.478288 6.128902 -1.472019
v -0.000000 6.128902 -1.547772
v -0.478288 6.128902 -1.472019
v -0.909758 6.128902 -1.252174
v -1.252174 6.128902 -0.909758
v -1.472019 6.128902 -0.478288
v -1.547772 6.128902 -0.000000
v -1.472019 6.128902 0.478288
v -1.252174 6.128902 0.909757
v -0.909758 6.128902 1.252173
v -0.478288 6.128902 1.472019
v -0.000000 6.128902 1.547772
v 0.478288 6.128902 1.472018
v 0.909757 6.128902 1.252173
v 1.252173 6.128902 0.909757
v 1.472018 6.128902 0.478288
v 1.547771 6.128902 -0.000001
v 1.316519 6.570481 -0.427763
v 1.119898 6.570481 -0.813654
v 0.813654 6.570481 -1.119898
v 0.427763 6.570481 -1.316520
v -0.000000 6.570481 -1.384271
v -0.427763 6.570481 -1.316519
v -0.813654 6.570481 -1.119898
v -1.119898 6.570481 -0.813654
v -1.316519 6.570481 -0.427763
v -1.384270 6.570481 -0.000000
v -1.316519 6.570481 0.427763
v -1.119898 6.570481 0.813653
v -0.813653 6.570481 1.119898
v -0.427763 6.570481 1.316519
v -0.000000 6.570481 1.384270
v 0.427763 6.570481 1.316519
v 0.813653 6.570481 1.119898
v 1.119898 6.570481 0.813653
v 1.316519 6.570481 0.427763
v 1.384269 6.570481 -0.000000
v 0.938046 6.733477 -0.304790
v 0.797950 6.733477 -0.579745
v 0.579744 6.733477 -0.797950
v 0.304790 6.733477 -0.938046
v -0.000000 6.733477 -0.986320
v -0.304790 6.733477 -0.938046
v -0.579745 6.733477 -0.797950
v -0.797950 6.733477 -0.579745
v -0.938046 6.733477 -0.304790
v -0.986320 6.733477 -0.000000
v -0.938046 6.733477 0.304789
v -0.797950 6.733477 0.579744
v -0.579744 6.733477 0.797949
v -0.304790 6.733477 0.938046
v -0.000000 6.733477 0.986320
v 0.304789 6.733477 0.938046
v 0.579744 6.733477 0.797949
v 0.797949 6.733477 0.579744
v 0.938046 6.733477 0.304789
v 0.986320 6.733477 -0.000000
v 0.938046 7.231122 -0.304790
v 0.797950 7.231122 -0.579745
v 0.579744 7.231122 -0.797950
v 0.304790 7.231122 -0.938047
v -0.000000 7.231122 -0.986320
v -0.304790 7.231122 -0.938046
v -0.579745 7.231122 -0.797950
v -0.797950 7.231122 -0.579745
v -0.938046 7.231122 -0.304790
v -0.986320 7.231122 -0.000000
v -0.938046 7.231122 0.304789
v -0.797950 7.231122 0.579744
v -0.579744 7.231122 0.797949
v -0.304790 7.231122 0.938046
v -0.000000 7.231122 0.986320
v 0.304789 7.231122 0.938045
v 0.579744 7.231122 0.797950
v 0.797949 7.231122 0.579744
v 0.938046 7.231122 0.304789
v 0.986320 7.231122 -0.000000
v 1.019436 7.231122 -0.331235
v 0.867184 7.231122 -0.630046
v 0.630046 7.231122 -0.867185
v 0.331235 7.231122 -1.019437
v -0.000000 7.231122 -1.071899
v -0.331235 7.231122 -1.019436
v -0.630046 7.231122 -0.867184
v -0.867184 7.231122 -0.630046
v -1.019436 7.231122 -0.331235
v -1.071899 7.231122 -0.000000
v -1.019436 7.231122 0.331235
v -0.867184 7.231122 0.630046
v -0.630046 7.231122 0.867184
v -0.331235 7.231122 1.019436
v -0.000000 7.231122 1.071898
v 0.331235 7.231122 1.019435
v 0.630046 7.231122 0.867184
v 0.867184 7.231122 0.630046
v 1.019435 7.231122 0.331234
v 1.071898 7.231122 -0.000000
v 1.019436 7.457824 -0.331235
v 0.867184 7.457824 -0.630047
v 0.630046 7.457824 -0.867185
v 0.331235 7.457824 -1.019437
v -0.000000 7.457824 -1.071899
v -0.331235 7.457824 -1.019436
v -0.630046 7.457824 -0.867184
v -0.867184 7.457824 -0.630046
v -1.019436 7.457824 -0.331235
v -1.071899 7.457824 -0.000000
v -1.019436 7.457824 0.331235
v -0.867184 7.457824 0.630046
v -0.630046 7.457824 0.867184
v -0.331235 7.457824 1.019436
v -0.000000 7.457824 1.071898
v 0.331235 7.457824 1.019435
v 0.630046 7.457824 0.867184
v 0.867184 7.457824 0.630046
v 1.019436 7.457824 0.331234
v 1.071898 7.457824 -0.000000
v 0.846155 7.622010 -0.274932
v 0.719782 7.622010 -0.522953
v 0.522952 7.622010 -0.719783
v 0.274932 7.622010 -0.846156
v -0.000000 7.622010 -0.889700
v -0.274932 7.622010 -0.846155
v -0.522952 7.622010 -0.719782
v -0.719782 7.622010 -0.522952
v -0.846155 7.622010 -0.274932
v -0.889700 7.622010 -0.000000
v -0.846155 7.622010 0.274932
v -0.719782 7.622010 0.522952
v -0.522952 7.622010 0.719782
v -0.274932 7.622010 0.846154
v -0.000000 7.622010 0.889699
v 0.274932 7.622010 0.846154
v 0.522952 7.622010 0.719782
v 0.719782 7.622010 0.522952
v 0.846154 7.622010 0.274932
v 0.889699 7.622010 -0.000000
v 0.212102 7.797670 -0.068917
v 0.180424 7.797670 -0.131087
v 0.131086 7.797670 -0.180425
v 0.068916 7.797670 -0.212103
v -0.000000 7.797670 -0.223018
v -0.068916 7.797670 -0.212102
v -0.131087 7.797670 -0.180425
v -0.180425 7.797670 -0.131087
v -0.212102 7.797670 -0.068917
v -0.223018 7.797670 -0.000000
v -0.212102 7.797670 0.068916
v -0.180425 7.797670 0.131086
v -0.131087 7.797670 0.180424
v -0.068916 7.797670 0.212101
v -0.000000 7.797670 0.223017
v 0.068916 7.797670 0.212101
v 0.131086 7.797670 0.180424
v 0.180424 7.797670 0.131086
v 0.212102 7.797670 0.068916
v 0.223017 7.797670 -0.000000
v 0.212099 6.680969 -0.068908
v 0.180422 6.680969 -0.131095
v -0.000000 6.680970 0.000001
v 0.131085 6.680969 -0.180430
v 0.068915 6.680969 -0.212098
v -0.000000 6.680969 -0.223018
v -0.068916 6.680969 -0.212102
v -0.131085 6.680969 -0.180430
v -0.180423 6.680969 -0.131082
v -0.212100 6.680969 -0.068908
v -0.223015 6.680969 -0.000000
v -0.212100 6.680969 0.068916
v -0.180423 6.680969 0.131094
v -0.131085 6.680969 0.180433
v -0.068916 6.680969 0.212099
v -0.000000 6.680969 0.223016
v 0.068915 6.680969 0.212101
v 0.131084 6.680969 0.180426
v 0.180422 6.680969 0.131090
v 0.212099 6.680969 0.068907
v 0.223014 6.680969 -0.000000
vt 0.648603 0.107966
vt 0.626409 0.064408
vt 0.591842 0.029841
vt 0.548284 0.007647
vt 0.500000 -0.000000
vt 0.451716 0.007647
vt 0.408159 0.029841
vt 0.373591 0.064409
vt 0.351397 0.107966
vt 0.343750 0.156250
vt 0.351397 0.204534
vt 0.373591 0.248091
vt 0.408159 0.282659
vt 0.451716 0.304853
vt 0.500000 0.312500
vt 0.548284 0.304853
vt 0.591841 0.282659
vt 0.626409 0.248091
vt 0.648603 0.204534
vt 0.656250 0.156250
vt 0.375000 0.312500
vt 0.387500 0.312500
vt 0.400000 0.312500
vt 0.412500 0.312500
vt 0.425000 0.312500
vt 0.437500 0.312500
vt 0.450000 0.312500
vt 0.462500 0.312500
vt 0.475000 0.312500
vt 0.487500 0.312500
vt 0.500000 0.312500
vt 0.512500 0.312500
vt 0.525000 0.312500
vt 0.537500 0.312500
vt 0.550000 0.312500
vt 0.562500 0.312500
vt 0.575000 0.312500
vt 0.587500 0.312500
vt 0.600000 0.312500
vt 0.612500 0.312500
vt 0.625000 0.312500
vt 0.375000 0.687500
vt 0.387500 0.687500
vt 0.400000 0.687500
vt 0.412500 0.687500
vt 0.425000 0.687500
vt 0.437500 0.687500
vt 0.450000 0.687500
vt 0.462500 0.687500
vt 0.475000 0.687500
vt 0.487500 0.687500
vt 0.500000 0.687500
vt 0.512500 0.687500
vt 0.525000 0.687500
vt 0.537500 0.687500
vt 0.550000 0.687500
vt 0.562500 0.687500
vt 0.575000 0.687500
vt 0.587500 0.687500
vt 0.600000 0.687500
vt 0.612500 0.687500
vt 0.625000 0.687500
vt 0.648603 0.795466
vt 0.626409 0.751908
vt 0.591842 0.717341
vt 0.548284 0.695147
vt 0.500000 0.687500
vt 0.451716 0.695147
vt 0.408159 0.717341
vt 0.373591 0.751909
vt 0.351397 0.795466
vt 0.343750 0.843750
vt 0.351397 0.892034
vt 0.373591 0.935591
vt 0.408159 0.970159
vt 0.451716 0.992353
vt 0.500000 1.000000
vt 0.548284 0.992353
vt 0.591841 0.970159
vt 0.626409 0.935591
vt 0.648603 0.892034
vt 0.656250 0.843750
vt 0.500000 0.156250
vt 0.500000 0.843750
vt 0.626409 0.064408
vt 0.648603 0.107966
vt 0.591842 0.029841
vt 0.548284 0.007647
vt 0.500000 -0.000000
vt 0.451716 0.007647
vt 0.408159 0.029841
vt 0.373591 0.064409
vt 0.351397 0.107966
vt 0.343750 0.156250
vt 0.351397 0.204534
vt 0.373591 0.248091
vt 0.408159 0.282659
vt 0.451716 0.304853
vt 0.500000 0.312500
vt 0.548284 0.304853
vt 0.591841 0.282659
vt 0.626409 0.248091
vt 0.648603 0.204534
vt 0.656250 0.156250
vt 0.626409 0.064408
vt 0.648603 0.107966
vt 0.591842 0.029841
vt 0.548284 0.007647
vt 0.500000 -0.000000
vt 0.451716 0.007647
vt 0.408159 0.029841
vt 0.373591 0.064409
vt 0.351397 0.107966
vt 0.343750 0.156250
vt 0.351397 0.204534
vt 0.373591 0.248091
vt 0.408159 0.282659
vt 0.451716 0.304853
vt 0.500000 0.312500
vt 0.548284 0.304853
vt 0.591841 0.282659
vt 0.626409 0.248091
vt 0.648603 0.204534
vt 0.656250 0.156250
vt 0.648603 0.892034
vt 0.626409 0.935591
vt 0.591841 0.970159
vt 0.548284 0.992353
vt 0.500000 1.000000
vt 0.451716 0.992353
vt 0.408159 0.970159
vt 0.373591 0.935591
vt 0.351397 0.892034
vt 0.343750 0.843750
vt 0.351397 0.795466
vt 0.373591 0.751909
vt 0.408159 0.717341
vt 0.451716 0.695147
vt 0.500000 0.687500
vt 0.548284 0.695147
vt 0.591842 0.717341
vt 0.626409 0.751908
vt 0.648603 0.795466
vt 0.656250 0.843750
vt 0.648603 0.892034
vt 0.626409 0.935591
vt 0.591841 0.970159
vt 0.548284 0.992353
vt 0.500000 1.000000
vt 0.451716 0.992353
vt 0.408159 0.970159
vt 0.373591 0.935591
vt 0.351397 0.892034
vt 0.343750 0.843750
vt 0.351397 0.795466
vt 0.373591 0.751909
vt 0.408159 0.717341
vt 0.451716 0.695147
vt 0.500000 0.687500
vt 0.548284 0.695147
vt 0.591842 0.717341
vt 0.626409 0.751908
vt 0.648603 0.795466
vt 0.656250 0.843750
vt 0.648603 0.892034
vt 0.626409 0.935591
vt 0.591841 0.970159
vt 0.548284 0.992353
vt 0.500000 1.000000
vt 0.451716 0.992353
vt 0.408159 0.970159
vt 0.373591 0.935591
vt 0.351397 0.892034
vt 0.343750 0.843750
vt 0.351397 0.795466
vt 0.373591 0.751909
vt 0.408159 0.717341
vt 0.451716 0.695147
vt 0.500000 0.687500
vt 0.548284 0.695147
vt 0.591842 0.717341
vt 0.626409 0.751908
vt 0.648603 0.795466
vt 0.656250 0.843750
vt 0.648603 0.892034
vt 0.626409 0.935591
vt 0.591841 0.970159
vt 0.548284 0.992353
vt 0.500000 1.000000
vt 0.451716 0.992353
vt 0.408159 0.970159
vt 0.373591 0.935591
vt 0.351397 0.892034
vt 0.343750 0.843750
vt 0.351397 0.795466
vt 0.373591 0.751909
vt 0.408159 0.717341
vt 0.451716 0.695147
vt 0.500000 0.687500
vt 0.548284 0.695147
vt 0.591842 0.717341
vt 0.626409 0.751908
vt 0.648603 0.795466
vt 0.656250 0.843750
vt 0.648603 0.892034
vt 0.626409 0.935591
vt 0.591841 0.970159
vt 0.548284 0.992353
vt 0.500000 1.000000
vt 0.451716 0.992353
vt 0.408159 0.970159
vt 0.373591 0.935591
vt 0.351397 0.892034
vt 0.343750 0.843750
vt 0.351397 0.795466
vt 0.373591 0.751909
vt 0.408159 0.717341
vt 0.451716 0.695147
vt 0.500000 0.687500
vt 0.548284 0.695147
vt 0.591842 0.717341
vt 0.626409 0.751908
vt 0.648603 0.795466
vt 0.656250 0.843750
vt 0.648603 0.892034
vt 0.626409 0.935591
vt 0.591841 0.970159
vt 0.548284 0.992353
vt 0.500000 1.000000
vt 0.451716 0.992353
vt 0.408159 0.970159
vt 0.373591 0.935591
vt 0.351397 0.892034
vt 0.343750 0.843750
vt 0.351397 0.795466
vt 0.373591 0.751909
vt 0.408159 0.717341
vt 0.451716 0.695147
vt 0.500000 0.687500
vt 0.548284 0.695147
vt 0.591842 0.717341
vt 0.626409 0.751908
vt 0.648603 0.795466
vt 0.656250 0.843750
vt 0.648603 0.892034
vt 0.626409 0.935591
vt 0.591841 0.970159
vt 0.548284 0.992353
vt 0.500000 1.000000
vt 0.451716 0.992353
vt 0.408159 0.970159
vt 0.373591 0.935591
vt 0.351397 0.892034
vt 0.343750 0.843750
vt 0.351397 0.795466
vt 0.373591 0.751909
vt 0.408159 0.717341
vt 0.451716 0.695147
vt 0.500000 0.687500
vt 0.548284 0.695147
vt 0.591842 0.717341
vt 0.626409 0.751908
vt 0.648603 0.795466
vt 0.656250 0.843750
vt 0.648603 0.892034
vt 0.626409 0.935591
vt 0.591841 0.970159
vt 0.548284 0.992353
vt 0.500000 1.000000
vt 0.451716 0.992353
vt 0.408159 0.970159
vt 0.373591 0.935591
vt 0.351397 0.892034
vt 0.343750 0.843750
vt 0.351397 0.795466
vt 0.373591 0.751909
vt 0.408159 0.717341
vt 0.451716 0.695147
vt 0.500000 0.687500
vt 0.548284 0.695147
vt 0.591842 0.717341
vt 0.626409 0.751908
vt 0.648603 0.795466
vt 0.656250 0.843750
vn 0.951057 0.000000 -0.309016
vn 0.809017 0.000000 -0.587785
vn 0.800641 0.143522 -0.581700
vn 0.941211 0.143522 -0.305817
vn 0.587785 0.000000 -0.809017
vn 0.581700 0.143522 -0.800641
vn 0.309017 0.000000 -0.951057
vn 0.305818 0.143522 -0.941210
vn -0.000000 0.000000 -1.000000
vn -0.000000 0.143522 -0.989647
vn -0.309017 0.000000 -0.951056
vn -0.305818 0.143522 -0.941210
vn -0.587786 0.000000 -0.809017
vn -0.581700 0.143522 -0.800641
vn -0.809017 0.000000 -0.587785
vn -0.800641 0.143522 -0.581700
vn -0.951056 0.000000 -0.309017
vn -0.941210 0.143522 -0.305818
vn -1.000000 0.000000 0.000000
vn -0.989647 0.143522 0.000000
vn -0.951056 0.000000 0.309017
vn -0.941210 0.143522 0.305818
vn -0.809017 0.000000 0.587785
vn -0.800641 0.143522 0.581700
vn -0.587785 0.000000 0.809017
vn -0.581700 0.143522 0.800641
vn -0.309017 0.000000 0.951056
vn -0.305818 0.143522 0.941210
vn 0.000000 0.000000 1.000000
vn 0.000000 0.143522 0.989647
vn 0.309017 0.000000 0.951056
vn 0.305818 0.143522 0.941210
vn 0.587785 0.000000 0.809017
vn 0.581700 0.143522 0.800641
vn 0.809017 0.000000 0.587785
vn 0.800641 0.143522 0.581700
vn 0.951057 0.000000 0.309017
vn 0.941210 0.143522 0.305818
vn 1.000000 0.000000 0.000001
vn 0.989647 0.143522 0.000001
vn 0.000000 -1.000000 0.000000
vn 0.000000 -1.000000 0.000000
vn 0.000000 -1.000000 -0.000000
vn 0.000000 -1.000000 0.000000
vn 0.000000 -1.000000 0.000000
vn 0.000000 -1.000000 0.000000
vn 0.000000 -1.000000 0.000000
vn 0.000000 -1.000000 0.000000
vn 0.000000 -1.000000 0.000000
vn 0.000000 -1.000000 0.000000
vn 0.000000 -1.000000 0.000000
vn 0.000000 -1.000000 -0.000000
vn 0.000000 -1.000000 -0.000000
vn 0.000000 -1.000000 0.000000
vn 0.000000 -1.000000 -0.000000
vn 0.000000 -1.000000 -0.000000
vn 0.000000 -1.000000 -0.000000
vn 0.000000 -1.000000 0.000000
vn 0.000000 -1.000000 0.000000
vn 0.000000 -1.000000 0.000000
vn 0.000000 -1.000000 0.000000
vn 0.000002 1.000000 -0.000001
vn 0.000001 1.000000 -0.000001
vn -0.000000 1.000000 0.000000
vn 0.000001 1.000000 -0.000001
vn 0.000001 1.000000 -0.000002
vn 0.000000 1.000000 -0.000002
vn -0.000001 1.000000 -0.000002
vn -0.000001 1.000000 -0.000001
vn -0.000001 1.000000 -0.000001
vn -0.000002 1.000000 -0.000001
vn -0.000002 1.000000 0.000000
vn -0.000002 1.000000 0.000001
vn -0.000001 1.000000 0.000001
vn -0.000001 1.000000 0.000001
vn -0.000001 1.000000 0.000002
vn -0.000000 1.000000 0.000002
vn 0.000001 1.000000 0.000002
vn 0.000001 1.000000 0.000001
vn 0.000001 1.000000 0.000001
vn 0.000002 1.000000 0.000001
vn 0.000002 1.000000 -0.000000
vn 0.000000 -1.000000 0.000000
vn 0.000000 -1.000000 0.000000
vn 0.000000 -1.000000 0.000000
vn 0.000000 -1.000000 0.000000
vn 0.000000 -1.000000 0.000000
vn 0.000000 -1.000000 0.000000
vn 0.000000 -1.000000 0.000000
vn 0.000000 -1.000000 0.000000
vn 0.000000 -1.000000 -0.000001
vn 0.000000 -1.000000 -0.000001
vn 0.000000 -1.000000 -0.000001
vn 0.000000 -1.000000 -0.000001
vn 0.000000 -1.000000 -0.000001
vn 0.000000 -1.000000 -0.000001
vn 0.000000 -1.000000 -0.000001
vn 0.000000 -1.000000 -0.000001
vn 0.000000 -1.000000 -0.000001
vn 0.000000 -1.000000 -0.000001
vn 0.000000 -1.000000 -0.000001
vn 0.000000 -1.000000 -0.000001
vn 0.000000 -1.000000 0.000000
vn 0.000000 -1.000000 0.000000
vn 0.000000 -1.000000 0.000000
vn 0.000000 -1.000000 0.000000
vn 0.000000 -1.000000 -0.000000
vn 0.000000 -1.000000 -0.000000
vn 0.000000 -1.000000 -0.000000
vn 0.000000 -1.000000 -0.000000
vn 0.000000 -1.000000 0.000000
vn 0.000000 -1.000000 0.000000
vn 0.000000 -1.000000 0.000000
vn 0.000000 -1.000000 0.000000
vn 0.000000 -1.000000 -0.000000
vn 0.000000 -1.000000 -0.000000
vn 0.000000 -1.000000 -0.000000
vn 0.000000 -1.000000 -0.000000
vn 0.000000 -1.000000 0.000000
vn 0.000000 -1.000000 0.000000
vn 0.000000 -1.000000 0.000000
vn 0.000000 -1.000000 0.000000
vn 0.000000 -1.000000 -0.000000
vn 0.000000 -1.000000 -0.000000
vn 0.000000 -1.000000 -0.000000
vn 0.000000 -1.000000 -0.000000
vn 0.000000 -1.000000 0.000000
vn 0.000000 -1.000000 0.000000
vn 0.000000 -1.000000 0.000000
vn 0.000000 -1.000000 0.000000
vn 0.000000 -1.000000 0.000001
vn 0.000000 -1.000000 0.000001
vn 0.000000 -1.000000 0.000001
vn 0.000000 -1.000000 0.000001
vn 0.000000 -1.000000 0.000002
vn 0.000000 -1.000000 0.000002
vn 0.000000 -1.000000 0.000002
vn 0.000000 -1.000000 0.000002
vn 0.000000 -1.000000 0.000001
vn 0.000000 -1.000000 0.000001
vn 0.000000 -1.000000 0.000001
vn 0.000000 -1.000000 0.000001
vn 0.000000 -1.000000 0.000002
vn 0.000000 -1.000000 0.000002
vn 0.000000 -1.000000 0.000002
vn 0.000000 -1.000000 0.000002
vn 0.000000 -1.000000 0.000000
vn 0.000000 -1.000000 0.000000
vn 0.000000 -1.000000 0.000000
vn 0.000000 -1.000000 0.000000
vn 0.000000 -1.000000 -0.000000
vn 0.000000 -1.000000 -0.000000
vn 0.000000 -1.000000 -0.000000
vn 0.000000 -1.000000 -0.000000
vn 0.000000 -1.000000 0.000000
vn 0.000000 -1.000000 0.000000
vn 0.000000 -1.000000 0.000000
vn 0.000000 -1.000000 0.000000
vn 0.000000 -1.000000 -0.000000
vn 0.000000 -1.000000 -0.000000
vn 0.000000 -1.000000 -0.000000
vn 0.000000 -1.000000 -0.000000
vn -0.809017 -0.000000 0.587785
vn -0.951057 -0.000000 0.309016
vn -0.951057 -0.000000 0.309016
vn -0.809017 -0.000000 0.587785
vn -0.587785 -0.000000 0.809017
vn -0.587785 -0.000000 0.809017
vn -0.309017 0.000000 0.951057
vn -0.309017 0.000000 0.951057
vn 0.000000 0.000000 1.000000
vn 0.000000 0.000000 1.000000
vn 0.309017 0.000000 0.951057
vn 0.309017 0.000000 0.951056
vn 0.587786 0.000000 0.809017
vn 0.587785 0.000000 0.809017
vn 0.809017 0.000000 0.587785
vn 0.809017 0.000000 0.587785
vn 0.951057 0.000000 0.309017
vn 0.951057 0.000000 0.309017
vn 1.000000 0.000000 0.000000
vn 1.000000 0.000000 0.000000
vn 0.951056 -0.000000 -0.309017
vn 0.951056 -0.000000 -0.309017
vn 0.809017 -0.000000 -0.587785
vn 0.809017 -0.000000 -0.587785
vn 0.587785 -0.000000 -0.809017
vn 0.587785 -0.000000 -0.809017
vn 0.309017 -0.000000 -0.951056
vn 0.309017 -0.000000 -0.951056
vn -0.000000 -0.000000 -1.000000
vn -0.000000 -0.000000 -1.000000
vn -0.309017 -0.000000 -0.951056
vn -0.309017 -0.000000 -0.951056
vn -0.587785 -0.000000 -0.809017
vn -0.587785 -0.000000 -0.809017
vn -0.809017 0.000000 -0.587785
vn -0.809017 0.000000 -0.587785
vn -0.951057 -0.000000 -0.309017
vn -0.951057 -0.000000 -0.309017
vn -1.000000 -0.000000 -0.000001
vn -1.000000 -0.000000 -0.000001
vn 0.576037 0.702158 -0.418516
vn 0.677172 0.702158 -0.220026
vn 0.418516 0.702158 -0.576037
vn 0.220027 0.702158 -0.677172
vn -0.000000 0.702158 -0.712021
vn -0.220027 0.702158 -0.677172
vn -0.418516 0.702158 -0.576037
vn -0.576038 0.702158 -0.418516
vn -0.677173 0.702158 -0.220027
vn -0.712022 0.702158 -0.000000
vn -0.677173 0.702158 0.220027
vn -0.576037 0.702158 0.418516
vn -0.418516 0.702158 0.576037
vn -0.220027 0.702158 0.677172
vn -0.000000 0.702158 0.712021
vn 0.220027 0.702158 0.677172
vn 0.418516 0.702158 0.576037
vn 0.576037 0.702158 0.418516
vn 0.677173 0.702158 0.220026
vn 0.712021 0.702158 0.000001
vn 0.360477 0.925385 -0.117126
vn 0.306640 0.925385 -0.222787
vn 0.306640 0.925385 -0.222787
vn 0.360477 0.925385 -0.117126
vn 0.222787 0.925385 -0.306640
vn 0.222787 0.925385 -0.306640
vn 0.117126 0.925385 -0.360477
vn 0.117126 0.925385 -0.360477
vn -0.000000 0.925385 -0.379028
vn -0.000000 0.925385 -0.379028
vn -0.117126 0.925385 -0.360477
vn -0.117126 0.925385 -0.360477
vn -0.222787 0.925385 -0.306640
vn -0.222787 0.925385 -0.306640
vn -0.306640 0.925385 -0.222787
vn -0.306640 0.925385 -0.222787
vn -0.360477 0.925385 -0.117126
vn -0.360477 0.925385 -0.117126
vn -0.379028 0.925385 0.000000
vn -0.379028 0.925385 0.000000
vn -0.360477 0.925385 0.117126
vn -0.360477 0.925385 0.117126
vn -0.306640 0.925385 0.222787
vn -0.306640 0.925385 0.222787
vn -0.222787 0.925385 0.306640
vn -0.222787 0.925385 0.306640
vn -0.117126 0.925385 0.360477
vn -0.117126 0.925385 0.360477
vn 0.000000 0.925385 0.379028
vn -0.000000 0.925385 0.379028
vn 0.117126 0.925385 0.360477
vn 0.117126 0.925385 0.360477
vn 0.222787 0.925385 0.306640
vn 0.222787 0.925385 0.306640
vn 0.306640 0.925385 0.222787
vn 0.306640 0.925385 0.222787
vn 0.360477 0.925385 0.117126
vn 0.360477 0.925385 0.117126
vn 0.379028 0.925385 0.000000
vn 0.379028 0.925385 0.000000
vn 0.951057 0.000000 -0.309016
vn 0.809017 -0.000000 -0.587785
vn 0.809017 -0.000000 -0.587785
vn 0.951057 0.000000 -0.309016
vn 0.587785 -0.000000 -0.809017
vn 0.587785 -0.000000 -0.809017
vn 0.309017 -0.000001 -0.951057
vn 0.309017 -0.000001 -0.951057
vn -0.000001 -0.000000 -1.000000
vn -0.000001 -0.000000 -1.000000
vn -0.309017 0.000000 -0.951056
vn -0.309017 0.000000 -0.951056
vn -0.587785 0.000000 -0.809017
vn -0.587785 0.000000 -0.809017
vn -0.809017 0.000000 -0.587785
vn -0.809017 0.000000 -0.587785
vn -0.951056 0.000000 -0.309017
vn -0.951056 0.000000 -0.309017
vn -1.000000 0.000000 0.000000
vn -1.000000 0.000000 0.000000
vn -0.951056 0.000000 0.309017
vn -0.951056 0.000000 0.309017
vn -0.809017 0.000000 0.587785
vn -0.809017 0.000000 0.587785
vn -0.587785 0.000000 0.809017
vn -0.587785 0.000000 0.809017
vn -0.309017 0.000000 0.951057
vn -0.309017 0.000000 0.951057
vn 0.000000 0.000000 1.000000
vn 0.000000 0.000000 1.000000
vn 0.309017 0.000000 0.951057
vn 0.309017 0.000000 0.951056
vn 0.587785 -0.000000 0.809017
vn 0.587785 -0.000000 0.809017
vn 0.809017 -0.000000 0.587785
vn 0.809017 -0.000000 0.587785
vn 0.951057 0.000000 0.309017
vn 0.951057 0.000000 0.309017
vn 1.000000 -0.000000 0.000001
vn 1.000000 -0.000000 0.000001
vn 0.000000 -1.000000 0.000000
vn 0.000000 -1.000000 0.000000
vn 0.000000 -1.000000 0.000000
vn 0.000000 -1.000000 0.000000
vn 0.000000 -1.000000 0.000000
vn 0.000000 -1.000000 0.000000
vn 0.000000 -1.000000 0.000000
vn 0.000000 -1.000000 0.000000
vn 0.000000 -1.000000 -0.000000
vn 0.000000 -1.000000 -0.000000
vn 0.000000 -1.000000 -0.000000
vn 0.000000 -1.000000 -0.000000
vn 0.000000 -1.000000 0.000000
vn 0.000000 -1.000000 0.000000
vn 0.000000 -1.000000 0.000000
vn 0.000000 -1.000000 0.000000
vn 0.000000 -1.000000 0.000000
vn 0.000000 -1.000000 0.000000
vn 0.000000 -1.000000 0.000000
vn 0.000000 -1.000000 0.000000
vn 0.000000 -1.000000 -0.000000
vn 0.000000 -1.000000 -0.000000
vn 0.000000 -1.000000 -0.000000
vn 0.000000 -1.000000 -0.000000
vn 0.000000 -1.000000 -0.000000
vn 0.000000 -1.000000 -0.000000
vn 0.000000 -1.000000 -0.000000
vn 0.000000 -1.000000 -0.000000
vn 0.000000 -1.000000 0.000000
vn 0.000000 -1.000000 0.000000
vn 0.000000 -1.000000 0.000000
vn 0.000000 -1.000000 0.000000
vn 0.000000 -1.000000 0.000000
vn 0.000000 -1.000000 0.000000
vn 0.000000 -1.000000 0.000000
vn 0.000000 -1.000000 0.000000
vn 0.000000 -1.000000 0.000000
vn 0.000000 -1.000000 0.000000
vn 0.000000 -1.000000 0.000000
vn 0.000000 -1.000000 0.000000
vn 0.000000 -1.000000 0.000000
vn 0.000000 -1.000000 0.000000
vn 0.000000 -1.000000 0.000000
vn 0.000000 -1.000000 0.000000
vn 0.000000 -1.000000 -0.000000
vn 0.000000 -1.000000 -0.000000
vn 0.000000 -1.000000 -0.000000
vn 0.000000 -1.000000 -0.000000
vn 0.000000 -1.000000 -0.000000
vn 0.000000 -1.000000 -0.000000
vn 0.000000 -1.000000 -0.000000
vn 0.000000 -1.000000 -0.000000
vn 0.000000 -1.000000 -0.000000
vn 0.000000 -1.000000 -0.000000
vn 0.000000 -1.000000 -0.000000
vn 0.000000 -1.000000 -0.000000
vn 0.000000 -1.000000 0.000000
vn 0.000000 -1.000000 0.000000
vn 0.000000 -1.000000 0.000000
vn 0.000000 -1.000000 0.000000
vn 0.000000 -1.000000 0.000000
vn 0.000000 -1.000000 0.000000
vn 0.000000 -1.000000 0.000000
vn 0.000000 -1.000000 0.000000
vn 0.000000 -1.000000 -0.000000
vn 0.000000 -1.000000 -0.000000
vn 0.000000 -1.000000 -0.000000
vn 0.000000 -1.000000 -0.000000
vn 0.000000 -1.000000 0.000000
vn 0.000000 -1.000000 0.000000
vn 0.000000 -1.000000 0.000000
vn 0.000000 -1.000000 0.000000
vn 0.000000 -1.000000 0.000000
vn 0.000000 -1.000000 0.000000
vn 0.000000 -1.000000 0.000000
vn 0.000000 -1.000000 0.000000
vn 0.000000 -1.000000 0.000000
vn 0.000000 -1.000000 0.000000
vn 0.000000 -1.000000 0.000000
vn 0.000000 -1.000000 0.000000
vn 0.951057 -0.000001 -0.309016
vn 0.809017 -0.000002 -0.587785
vn 0.745375 0.388771 -0.541546
vn 0.876241 0.388771 -0.284707
vn 0.587785 -0.000002 -0.809017
vn 0.541547 0.388771 -0.745375
vn 0.309016 -0.000001 -0.951057
vn 0.284707 0.388771 -0.876241
vn -0.000001 -0.000001 -1.000000
vn -0.000001 0.388771 -0.921334
vn -0.309017 -0.000001 -0.951056
vn -0.284708 0.388771 -0.876241
vn -0.587785 -0.000001 -0.809017
vn -0.541547 0.388771 -0.745375
vn -0.809017 -0.000001 -0.587785
vn -0.745375 0.388771 -0.541547
vn -0.951056 -0.000001 -0.309017
vn -0.876241 0.388771 -0.284708
vn -1.000000 -0.000001 -0.000000
vn -0.921334 0.388771 0.000000
vn -0.951056 -0.000001 0.309017
vn -0.876241 0.388771 0.284708
vn -0.809017 -0.000001 0.587785
vn -0.745375 0.388771 0.541547
vn -0.587785 -0.000001 0.809017
vn -0.541547 0.388771 0.745375
vn -0.309017 -0.000000 0.951057
vn -0.284708 0.388772 0.876241
vn 0.000001 -0.000000 1.000000
vn 0.000001 0.388772 0.921334
vn 0.309017 -0.000000 0.951057
vn 0.284708 0.388772 0.876241
vn 0.587785 -0.000001 0.809017
vn 0.541546 0.388772 0.745375
vn 0.809017 -0.000001 0.587785
vn 0.745375 0.388771 0.541546
vn 0.951057 -0.000001 0.309017
vn 0.876241 0.388771 0.284708
vn 1.000000 -0.000001 0.000001
vn 0.921334 0.388772 0.000001
vn 0.541580 0.742876 -0.393480
vn 0.636665 0.742876 -0.206864
vn 0.393481 0.742876 -0.541579
vn 0.206865 0.742876 -0.636665
vn -0.000001 0.742875 -0.669430
vn -0.206865 0.742875 -0.636665
vn -0.393481 0.742876 -0.541580
vn -0.541580 0.742876 -0.393481
vn -0.636665 0.742876 -0.206865
vn -0.669430 0.742876 -0.000000
vn -0.636665 0.742876 0.206865
vn -0.541579 0.742876 0.393481
vn -0.393480 0.742876 0.541580
vn -0.206865 0.742876 0.636665
vn 0.000000 0.742876 0.669429
vn 0.206865 0.742876 0.636665
vn 0.393480 0.742876 0.541579
vn 0.541580 0.742876 0.393480
vn 0.636665 0.742876 0.206865
vn 0.669429 0.742876 0.000001
vn 0.242319 0.966997 -0.078734
vn 0.206129 0.966997 -0.149761
vn 0.206129 0.966997 -0.149761
vn 0.242319 0.966997 -0.078734
vn 0.149761 0.966997 -0.206128
vn 0.149761 0.966997 -0.206128
vn 0.078734 0.966997 -0.242319
vn 0.078734 0.966997 -0.242319
vn -0.000000 0.966997 -0.254789
vn -0.000000 0.966997 -0.254789
vn -0.078734 0.966997 -0.242319
vn -0.078734 0.966997 -0.242319
vn -0.149761 0.966997 -0.206129
vn -0.149761 0.966997 -0.206129
vn -0.206129 0.966997 -0.149761
vn -0.206129 0.966997 -0.149761
vn -0.242319 0.966997 -0.078734
vn -0.242319 0.966997 -0.078734
vn -0.254789 0.966997 0.000000
vn -0.254789 0.966997 0.000000
vn -0.242319 0.966997 0.078735
vn -0.242319 0.966997 0.078735
vn -0.206129 0.966997 0.149761
vn -0.206129 0.966997 0.149761
vn -0.149761 0.966997 0.206129
vn -0.149761 0.966997 0.206129
vn -0.078734 0.966997 0.242319
vn -0.078734 0.966997 0.242319
vn 0.000000 0.966997 0.254789
vn 0.000000 0.966997 0.254789
vn 0.078734 0.966997 0.242319
vn 0.078734 0.966997 0.242319
vn 0.149761 0.966997 0.206129
vn 0.149761 0.966997 0.206129
vn 0.206129 0.966997 0.149761
vn 0.206129 0.966997 0.149761
vn 0.242319 0.966997 0.078734
vn 0.242319 0.966997 0.078734
vn 0.254789 0.966997 0.000000
vn 0.254789 0.966997 0.000000
vn -0.951060 0.000002 0.309006
vn -0.809036 -0.000001 0.587759
vn -0.809035 -0.000001 0.587760
vn -0.951060 0.000002 0.309005
vn -0.587757 -0.000001 0.809037
vn -0.587757 -0.000001 0.809038
vn -0.309004 0.000001 0.951061
vn -0.309004 0.000001 0.951061
vn -0.000015 0.000001 1.000000
vn -0.000015 0.000001 1.000000
vn 0.309004 -0.000001 0.951061
vn 0.309004 -0.000001 0.951061
vn 0.587798 -0.000000 0.809008
vn 0.587797 -0.000000 0.809008
vn 0.809035 0.000003 0.587761
vn 0.809035 0.000003 0.587761
vn 0.951055 0.000004 0.309021
vn 0.951056 0.000004 0.309020
vn 1.000000 0.000002 0.000000
vn 1.000000 0.000002 0.000000
vn 0.951060 0.000001 -0.309007
vn 0.951060 0.000001 -0.309007
vn 0.809030 -0.000002 -0.587768
vn 0.809029 -0.000002 -0.587769
vn 0.587762 -0.000003 -0.809034
vn 0.587761 -0.000003 -0.809035
vn 0.308987 -0.000000 -0.951066
vn 0.308987 -0.000000 -0.951066
vn 0.000005 0.000001 -1.000000
vn 0.000005 0.000001 -1.000000
vn -0.309009 0.000000 -0.951059
vn -0.309008 0.000000 -0.951059
vn -0.587775 -0.000001 -0.809024
vn -0.587775 -0.000001 -0.809025
vn -0.809032 0.000001 -0.587764
vn -0.809032 0.000001 -0.587765
vn -0.951058 0.000003 -0.309011
vn -0.951059 0.000003 -0.309010
vn -1.000000 0.000003 0.000000
vn -1.000000 0.000003 -0.000000
s 1
g pCylinder2
usemtl initialShadingGroup
f 1/21/1 2/22/2 22/43/3 21/42/4
f 2/22/2 3/23/5 23/44/6 22/43/3
f 3/23/5 4/24/7 24/45/8 23/44/6
f 4/24/7 5/25/9 25/46/10 24/45/8
f 5/25/9 6/26/11 26/47/12 25/46/10
f 6/26/11 7/27/13 27/48/14 26/47/12
f 7/27/13 8/28/15 28/49/16 27/48/14
f 8/28/15 9/29/17 29/50/18 28/49/16
f 9/29/17 10/30/19 30/51/20 29/50/18
f 10/30/19 11/31/21 31/52/22 30/51/20
f 11/31/21 12/32/23 32/53/24 31/52/22
f 12/32/23 13/33/25 33/54/26 32/53/24
f 13/33/25 14/34/27 34/55/28 33/54/26
f 14/34/27 15/35/29 35/56/30 34/55/28
f 15/35/29 16/36/31 36/57/32 35/56/30
f 16/36/31 17/37/33 37/58/34 36/57/32
f 17/37/33 18/38/35 38/59/36 37/58/34
f 18/38/35 19/39/37 39/60/38 38/59/36
f 19/39/37 20/40/39 40/61/40 39/60/38
f 20/40/39 1/41/1 21/62/4 40/61/40
s 2
f 62/105/41 61/106/42 63/83/43
f 64/107/44 62/105/41 63/83/43
f 65/108/45 64/107/44 63/83/43
f 66/109/46 65/108/45 63/83/43
f 67/110/47 66/109/46 63/83/43
f 68/111/48 67/110/47 63/83/43
f 69/112/49 68/111/48 63/83/43
f 70/113/50 69/112/49 63/83/43
f 71/114/51 70/113/50 63/83/43
f 72/115/52 71/114/51 63/83/43
f 73/116/53 72/115/52 63/83/43
f 74/117/54 73/116/53 63/83/43
f 75/118/55 74/117/54 63/83/43
f 76/119/56 75/118/55 63/83/43
f 77/120/57 76/119/56 63/83/43
f 78/121/58 77/120/57 63/83/43
f 79/122/59 78/121/58 63/83/43
f 80/123/60 79/122/59 63/83/43
f 81/124/61 80/123/60 63/83/43
f 61/106/42 81/124/61 63/83/43
s 3
f 222/265/62 223/266/63 224/84/64
f 223/266/63 225/267/65 224/84/64
f 225/267/65 226/268/66 224/84/64
f 226/268/66 227/269/67 224/84/64
f 227/269/67 228/270/68 224/84/64
f 228/270/68 229/271/69 224/84/64
f 229/271/69 230/272/70 224/84/64
f 230/272/70 231/273/71 224/84/64
f 231/273/71 232/274/72 224/84/64
f 232/274/72 233/275/73 224/84/64
f 233/275/73 234/276/74 224/84/64
f 234/276/74 235/277/75 224/84/64
f 235/277/75 236/278/76 224/84/64
f 236/278/76 237/279/77 224/84/64
f 237/279/77 238/280/78 224/84/64
f 238/280/78 239/281/79 224/84/64
f 239/281/79 240/282/80 224/84/64
f 240/282/80 241/283/81 224/84/64
f 241/283/81 242/284/82 224/84/64
f 242/284/82 222/265/62 224/84/64
s off
f 2/2/83 1/1/84 41/86/85 42/85/86
f 3/3/87 2/2/88 42/85/89 43/87/90
f 4/4/91 3/3/92 43/87/93 44/88/94
f 5/5/95 4/4/96 44/88/97 45/89/98
f 6/6/99 5/5/100 45/89/101 46/90/102
f 7/7/103 6/6/104 46/90/105 47/91/106
f 8/8/107 7/7/108 47/91/109 48/92/110
f 9/9/111 8/8/112 48/92/113 49/93/114
f 10/10/115 9/9/116 49/93/117 50/94/118
f 11/11/119 10/10/120 50/94/121 51/95/122
f 12/12/123 11/11/124 51/95/125 52/96/126
f 13/13/127 12/12/128 52/96/129 53/97/130
f 14/14/131 13/13/132 53/97/133 54/98/134
f 15/15/135 14/14/136 54/98/137 55/99/138
f 16/16/139 15/15/140 55/99/141 56/100/142
f 17/17/143 16/16/144 56/100/145 57/101/146
f 18/18/147 17/17/148 57/101/149 58/102/150
f 19/19/151 18/18/152 58/102/153 59/103/154
f 20/20/155 19/19/156 59/103/157 60/104/158
f 1/1/159 20/20/160 60/104/161 41/86/162
s 4
f 42/85/163 41/86/164 61/106/165 62/105/166
f 43/87/167 42/85/163 62/105/166 64/107/168
f 44/88/169 43/87/167 64/107/168 65/108/170
f 45/89/171 44/88/169 65/108/170 66/109/172
f 46/90/173 45/89/171 66/109/172 67/110/174
f 47/91/175 46/90/173 67/110/174 68/111/176
f 48/92/177 47/91/175 68/111/176 69/112/178
f 49/93/179 48/92/177 69/112/178 70/113/180
f 50/94/181 49/93/179 70/113/180 71/114/182
f 51/95/183 50/94/181 71/114/182 72/115/184
f 52/96/185 51/95/183 72/115/184 73/116/186
f 53/97/187 52/96/185 73/116/186 74/117/188
f 54/98/189 53/97/187 74/117/188 75/118/190
f 55/99/191 54/98/189 75/118/190 76/119/192
f 56/100/193 55/99/191 76/119/192 77/120/194
f 57/101/195 56/100/193 77/120/194 78/121/196
f 58/102/197 57/101/195 78/121/196 79/122/198
f 59/103/199 58/102/197 79/122/198 80/123/200
f 60/104/201 59/103/199 80/123/200 81/124/202
f 41/86/164 60/104/201 81/124/202 61/106/165
s 1
f 21/81/4 22/80/3 83/126/203 82/125/204
f 22/80/3 23/79/6 84/127/205 83/126/203
f 23/79/6 24/78/8 85/128/206 84/127/205
f 24/78/8 25/77/10 86/129/207 85/128/206
f 25/77/10 26/76/12 87/130/208 86/129/207
f 26/76/12 27/75/14 88/131/209 87/130/208
f 27/75/14 28/74/16 89/132/210 88/131/209
f 28/74/16 29/73/18 90/133/211 89/132/210
f 29/73/18 30/72/20 91/134/212 90/133/211
f 30/72/20 31/71/22 92/135/213 91/134/212
f 31/71/22 32/70/24 93/136/214 92/135/213
f 32/70/24 33/69/26 94/137/215 93/136/214
f 33/69/26 34/68/28 95/138/216 94/137/215
f 34/68/28 35/67/30 96/139/217 95/138/216
f 35/67/30 36/66/32 97/140/218 96/139/217
f 36/66/32 37/65/34 98/141/219 97/140/218
f 37/65/34 38/64/36 99/142/220 98/141/219
f 38/64/36 39/63/38 100/143/221 99/142/220
f 39/63/38 40/82/40 101/144/222 100/143/221
f 40/82/40 21/81/4 82/125/204 101/144/222
s 5
f 82/125/223 83/126/224 103/146/225 102/145/226
f 83/126/224 84/127/227 104/147/228 103/146/225
f 84/127/227 85/128/229 105/148/230 104/147/228
f 85/128/229 86/129/231 106/149/232 105/148/230
f 86/129/231 87/130/233 107/150/234 106/149/232
f 87/130/233 88/131/235 108/151/236 107/150/234
f 88/131/235 89/132/237 109/152/238 108/151/236
f 89/132/237 90/133/239 110/153/240 109/152/238
f 90/133/239 91/134/241 111/154/242 110/153/240
f 91/134/241 92/135/243 112/155/244 111/154/242
f 92/135/243 93/136/245 113/156/246 112/155/244
f 93/136/245 94/137/247 114/157/248 113/156/246
f 94/137/247 95/138/249 115/158/250 114/157/248
f 95/138/249 96/139/251 116/159/252 115/158/250
f 96/139/251 97/140/253 117/160/254 116/159/252
f 97/140/253 98/141/255 118/161/256 117/160/254
f 98/141/255 99/142/257 119/162/258 118/161/256
f 99/142/257 100/143/259 120/163/260 119/162/258
f 100/143/259 101/144/261 121/164/262 120/163/260
f 101/144/261 82/125/223 102/145/226 121/164/262
s 6
f 102/145/263 103/146/264 123/166/265 122/165/266
f 103/146/264 104/147/267 124/167/268 123/166/265
f 104/147/267 105/148/269 125/168/270 124/167/268
f 105/148/269 106/149/271 126/169/272 125/168/270
f 106/149/271 107/150/273 127/170/274 126/169/272
f 107/150/273 108/151/275 128/171/276 127/170/274
f 108/151/275 109/152/277 129/172/278 128/171/276
f 109/152/277 110/153/279 130/173/280 129/172/278
f 110/153/279 111/154/281 131/174/282 130/173/280
f 111/154/281 112/155/283 132/175/284 131/174/282
f 112/155/283 113/156/285 133/176/286 132/175/284
f 113/156/285 114/157/287 134/177/288 133/176/286
f 114/157/287 115/158/289 135/178/290 134/177/288
f 115/158/289 116/159/291 136/179/292 135/178/290
f 116/159/291 117/160/293 137/180/294 136/179/292
f 117/160/293 118/161/295 138/181/296 137/180/294
f 118/161/295 119/162/297 139/182/298 138/181/296
f 119/162/297 120/163/299 140/183/300 139/182/298
f 120/163/299 121/164/301 141/184/302 140/183/300
f 121/164/301 102/145/263 122/165/266 141/184/302
s off
f 122/165/303 123/166/304 143/186/305 142/185/306
f 123/166/307 124/167/308 144/187/309 143/186/310
f 124/167/311 125/168/312 145/188/313 144/187/314
f 125/168/315 126/169/316 146/189/317 145/188/318
f 126/169/319 127/170/320 147/190/321 146/189/322
f 127/170/323 128/171/324 148/191/325 147/190/326
f 128/171/327 129/172/328 149/192/329 148/191/330
f 129/172/331 130/173/332 150/193/333 149/192/334
f 130/173/335 131/174/336 151/194/337 150/193/338
f 131/174/339 132/175/340 152/195/341 151/194/342
f 132/175/343 133/176/344 153/196/345 152/195/346
f 133/176/347 134/177/348 154/197/349 153/196/350
f 134/177/351 135/178/352 155/198/353 154/197/354
f 135/178/355 136/179/356 156/199/357 155/198/358
f 136/179/359 137/180/360 157/200/361 156/199/362
f 137/180/363 138/181/364 158/201/365 157/200/366
f 138/181/367 139/182/368 159/202/369 158/201/370
f 139/182/371 140/183/372 160/203/373 159/202/374
f 140/183/375 141/184/376 161/204/377 160/203/378
f 141/184/379 122/165/380 142/185/381 161/204/382
s 7
f 142/185/383 143/186/384 163/206/385 162/205/386
f 143/186/384 144/187/387 164/207/388 163/206/385
f 144/187/387 145/188/389 165/208/390 164/207/388
f 145/188/389 146/189/391 166/209/392 165/208/390
f 146/189/391 147/190/393 167/210/394 166/209/392
f 147/190/393 148/191/395 168/211/396 167/210/394
f 148/191/395 149/192/397 169/212/398 168/211/396
f 149/192/397 150/193/399 170/213/400 169/212/398
f 150/193/399 151/194/401 171/214/402 170/213/400
f 151/194/401 152/195/403 172/215/404 171/214/402
f 152/195/403 153/196/405 173/216/406 172/215/404
f 153/196/405 154/197/407 174/217/408 173/216/406
f 154/197/407 155/198/409 175/218/410 174/217/408
f 155/198/409 156/199/411 176/219/412 175/218/410
f 156/199/411 157/200/413 177/220/414 176/219/412
f 157/200/413 158/201/415 178/221/416 177/220/414
f 158/201/415 159/202/417 179/222/418 178/221/416
f 159/202/417 160/203/419 180/223/420 179/222/418
f 160/203/419 161/204/421 181/224/422 180/223/420
f 161/204/421 142/185/383 162/205/386 181/224/422
f 162/205/386 163/206/385 183/226/423 182/225/424
f 163/206/385 164/207/388 184/227/425 183/226/423
f 164/207/388 165/208/390 185/228/426 184/227/425
f 165/208/390 166/209/392 186/229/427 185/228/426
f 166/209/392 167/210/394 187/230/428 186/229/427
f 167/210/394 168/211/396 188/231/429 187/230/428
f 168/211/396 169/212/398 189/232/430 188/231/429
f 169/212/398 170/213/400 190/233/431 189/232/430
f 170/213/400 171/214/402 191/234/432 190/233/431
f 171/214/402 172/215/404 192/235/433 191/234/432
f 172/215/404 173/216/406 193/236/434 192/235/433
f 173/216/406 174/217/408 194/237/435 193/236/434
f 174/217/408 175/218/410 195/238/436 194/237/435
f 175/218/410 176/219/412 196/239/437 195/238/436
f 176/219/412 177/220/414 197/240/438 196/239/437
f 177/220/414 178/221/416 198/241/439 197/240/438
f 178/221/416 179/222/418 199/242/440 198/241/439
f 179/222/418 180/223/420 200/243/441 199/242/440
f 180/223/420 181/224/422 201/244/442 200/243/441
f 181/224/422 162/205/386 182/225/424 201/244/442
s 8
f 182/225/443 183/226/444 203/246/445 202/245/446
f 183/226/444 184/227/447 204/247/448 203/246/445
f 184/227/447 185/228/449 205/248/450 204/247/448
f 185/228/449 186/229/451 206/249/452 205/248/450
f 186/229/451 187/230/453 207/250/454 206/249/452
f 187/230/453 188/231/455 208/251/456 207/250/454
f 188/231/455 189/232/457 209/252/458 208/251/456
f 189/232/457 190/233/459 210/253/460 209/252/458
f 190/233/459 191/234/461 211/254/462 210/253/460
f 191/234/461 192/235/463 212/255/464 211/254/462
f 192/235/463 193/236/465 213/256/466 212/255/464
f 193/236/465 194/237/467 214/257/468 213/256/466
f 194/237/467 195/238/469 215/258/470 214/257/468
f 195/238/469 196/239/471 216/259/472 215/258/470
f 196/239/471 197/240/473 217/260/474 216/259/472
f 197/240/473 198/241/475 218/261/476 217/260/474
f 198/241/475 199/242/477 219/262/478 218/261/476
f 199/242/477 200/243/479 220/263/480 219/262/478
f 200/243/479 201/244/481 221/264/482 220/263/480
f 201/244/481 182/225/443 202/245/446 221/264/482
s 9
f 202/245/483 203/246/484 223/266/485 222/265/486
f 203/246/484 204/247/487 225/267/488 223/266/485
f 204/247/487 205/248/489 226/268/490 225/267/488
f 205/248/489 206/249/491 227/269/492 226/268/490
f 206/249/491 207/250/493 228/270/494 227/269/492
f 207/250/493 208/251/495 229/271/496 228/270/494
f 208/251/495 209/252/497 230/272/498 229/271/496
f 209/252/497 210/253/499 231/273/500 230/272/498
f 210/253/499 211/254/501 232/274/502 231/273/500
f 211/254/501 212/255/503 233/275/504 232/274/502
f 212/255/503 213/256/505 234/276/506 233/275/504
f 213/256/505 214/257/507 235/277/508 234/276/506
f 214/257/507 215/258/509 236/278/510 235/277/508
f 215/258/509 216/259/511 237/279/512 236/278/510
f 216/259/511 217/260/513 238/280/514 237/279/512
f 217/260/513 218/261/515 239/281/516 238/280/514
f 218/261/515 219/262/517 240/282/518 239/281/516
f 219/262/517 220/263/519 241/283/520 240/282/518
f 220/263/519 221/264/521 242/284/522 241/283/520
f 221/264/521 202/245/483 222/265/486 242/284/522
g default
v 0.951057 -1.000000 -0.309017
v 0.809018 -1.000000 -0.587786
v 0.587786 -1.000000 -0.809017
v 0.309017 -1.000000 -0.951057
v 0.000000 -1.000000 -1.000000
v -0.309017 -1.000000 -0.951057
v -0.587785 -1.000000 -0.809017
v -0.809017 -1.000000 -0.587785
v -0.951057 -1.000000 -0.309017
v -1.000000 -1.000000 0.000000
v -0.951057 -1.000000 0.309017
v -0.809017 -1.000000 0.587785
v -0.587785 -1.000000 0.809017
v -0.309017 -1.000000 0.951057
v -0.000000 -1.000000 1.000000
v 0.309017 -1.000000 0.951057
v 0.587785 -1.000000 0.809017
v 0.809017 -1.000000 0.587785
v 0.951057 -1.000000 0.309017
v 1.000000 -1.000000 0.000000
v 1.578659 2.811530 -0.512937
v 1.342887 2.811530 -0.975665
v 0.975665 2.811530 -1.342887
v 0.512937 2.811530 -1.578658
v 0.000000 2.811530 -1.659900
v -0.512937 2.811530 -1.578658
v -0.975664 2.811530 -1.342887
v -1.342887 2.811530 -0.975664
v -1.578658 2.811530 -0.512937
v -1.659899 2.811530 0.000000
v -1.578658 2.811530 0.512937
v -1.342887 2.811530 0.975664
v -0.975664 2.811530 1.342887
v -0.512937 2.811530 1.578658
v 0.000000 2.811530 1.659899
v 0.512937 2.811530 1.578658
v 0.975664 2.811530 1.342887
v 1.342887 2.811530 0.975664
v 1.578658 2.811530 0.512937
v 1.659899 2.811530 0.000000
v 0.000000 -1.000000 0.000000
v 1.453511 3.008225 -0.472274
v 1.236430 3.008225 -0.898319
v 0.898319 3.008225 -1.236430
v 0.472274 3.008225 -1.453511
v 0.000000 3.008225 -1.528311
v -0.472274 3.008225 -1.453511
v -0.898319 3.008225 -1.236430
v -1.236430 3.008225 -0.898319
v -1.453510 3.008225 -0.472274
v -1.528311 3.008225 0.000000
v -1.453510 3.008225 0.472274
v -1.236430 3.008225 0.898319
v -0.898319 3.008225 1.236430
v -0.472274 3.008225 1.453510
v 0.000000 3.008225 1.528311
v 0.472274 3.008225 1.453510
v 0.898318 3.008225 1.236430
v 1.236430 3.008225 0.898319
v 1.453510 3.008225 0.472274
v 1.528311 3.008225 0.000000
v 1.453511 3.702769 -0.472274
v 1.236430 3.702769 -0.898318
v 0.898319 3.702769 -1.236430
v 0.472274 3.702769 -1.453510
v 0.000000 3.702769 -1.528311
v -0.472274 3.702769 -1.453510
v -0.898319 3.702769 -1.236430
v -1.236430 3.702769 -0.898318
v -1.453510 3.702769 -0.472274
v -1.528311 3.702769 0.000000
v -1.453510 3.702769 0.472274
v -1.236430 3.702769 0.898319
v -0.898319 3.702769 1.236430
v -0.472274 3.702769 1.453510
v 0.000000 3.702769 1.528311
v 0.472274 3.702769 1.453510
v 0.898318 3.702769 1.236429
v 1.236430 3.702769 0.898318
v 1.453510 3.702769 0.472274
v 1.528311 3.702769 0.000000
v 1.258916 3.702769 -0.409046
v 1.070898 3.702769 -0.778052
v 0.778053 3.702769 -1.070898
v 0.409047 3.702769 -1.258916
v 0.000000 3.702769 -1.323702
v -0.409047 3.702769 -1.258916
v -0.778053 3.702769 -1.070898
v -1.070898 3.702769 -0.778052
v -1.258916 3.702769 -0.409046
v -1.323702 3.702769 0.000000
v -1.258916 3.702769 0.409047
v -1.070898 3.702769 0.778053
v -0.778053 3.702769 1.070897
v -0.409046 3.702769 1.258915
v -0.000000 3.702769 1.323702
v 0.409046 3.702769 1.258915
v 0.778052 3.702769 1.070897
v 1.070898 3.702769 0.778052
v 1.258915 3.702769 0.409046
v 1.323702 3.702769 0.000000
v 1.258916 1.433035 -0.409048
v 1.070898 1.433035 -0.778052
v 0.778053 1.433035 -1.070898
v 0.409047 1.433035 -1.258916
v 0.000001 1.433035 -1.323703
v -0.409047 1.433035 -1.258915
v -0.778053 1.433035 -1.070899
v -1.070897 1.433035 -0.778054
v -1.258916 1.433035 -0.409046
v -1.323702 1.433035 0.000000
v -1.258916 1.433035 0.409047
v -1.070898 1.433035 0.778055
v -0.778053 1.433035 1.070899
v -0.409046 1.433035 1.258915
v -0.000000 1.433035 1.323702
v 0.409046 1.433035 1.258915
v 0.778052 1.433035 1.070897
v 1.070898 1.433035 0.778052
v 1.258915 1.433035 0.409046
v 1.323702 1.433035 -0.000002
v 0.787164 -0.658714 -0.255766
v 0.669601 -0.658714 -0.486495
v -0.000000 -0.658714 -0.000001
v 0.486494 -0.658714 -0.669603
v 0.255765 -0.658714 -0.787165
v 0.000001 -0.658714 -0.827675
v -0.255765 -0.658714 -0.787164
v -0.486495 -0.658714 -0.669603
v -0.669602 -0.658714 -0.486496
v -0.787164 -0.658714 -0.255765
v -0.827673 -0.658714 -0.000001
v -0.787164 -0.658714 0.255765
v -0.669602 -0.658714 0.486495
v -0.486494 -0.658714 0.669603
v -0.255765 -0.658714 0.787163
v -0.000000 -0.658714 0.827673
v 0.255765 -0.658714 0.787164
v 0.486494 -0.658714 0.669601
v 0.669602 -0.658714 0.486493
v 0.787164 -0.658714 0.255765
v 0.827673 -0.658714 -0.000002
vt 0.648603 0.107966
vt 0.626409 0.064408
vt 0.591842 0.029841
vt 0.548284 0.007647
vt 0.500000 -0.000000
vt 0.451716 0.007647
vt 0.408159 0.029841
vt 0.373591 0.064409
vt 0.351397 0.107966
vt 0.343750 0.156250
vt 0.351397 0.204534
vt 0.373591 0.248091
vt 0.408159 0.282659
vt 0.451716 0.304853
vt 0.500000 0.312500
vt 0.548284 0.304853
vt 0.591841 0.282659
vt 0.626409 0.248091
vt 0.648603 0.204534
vt 0.656250 0.156250
vt 0.375000 0.312500
vt 0.387500 0.312500
vt 0.400000 0.312500
vt 0.412500 0.312500
vt 0.425000 0.312500
vt 0.437500 0.312500
vt 0.450000 0.312500
vt 0.462500 0.312500
vt 0.475000 0.312500
vt 0.487500 0.312500
vt 0.500000 0.312500
vt 0.512500 0.312500
vt 0.525000 0.312500
vt 0.537500 0.312500
vt 0.550000 0.312500
vt 0.562500 0.312500
vt 0.575000 0.312500
vt 0.587500 0.312500
vt 0.600000 0.312500
vt 0.612500 0.312500
vt 0.625000 0.312500
vt 0.375000 0.687500
vt 0.387500 0.687500
vt 0.400000 0.687500
vt 0.412500 0.687500
vt 0.425000 0.687500
vt 0.437500 0.687500
vt 0.450000 0.687500
vt 0.462500 0.687500
vt 0.475000 0.687500
vt 0.487500 0.687500
vt 0.500000 0.687500
vt 0.512500 0.687500
vt 0.525000 0.687500
vt 0.537500 0.687500
vt 0.550000 0.687500
vt 0.562500 0.687500
vt 0.575000 0.687500
vt 0.587500 0.687500
vt 0.600000 0.687500
vt 0.612500 0.687500
vt 0.625000 0.687500
vt 0.648603 0.795466
vt 0.626409 0.751908
vt 0.591842 0.717341
vt 0.548284 0.695147
vt 0.500000 0.687500
vt 0.451716 0.695147
vt 0.408159 0.717341
vt 0.373591 0.751909
vt 0.351397 0.795466
vt 0.343750 0.843750
vt 0.351397 0.892034
vt 0.373591 0.935591
vt 0.408159 0.970159
vt 0.451716 0.992353
vt 0.500000 1.000000
vt 0.548284 0.992353
vt 0.591841 0.970159
vt 0.626409 0.935591
vt 0.648603 0.892034
vt 0.656250 0.843750
vt 0.500000 0.156250
vt 0.500000 0.843750
vt 0.648603 0.892034
vt 0.626409 0.935591
vt 0.591841 0.970159
vt 0.548284 0.992353
vt 0.500000 1.000000
vt 0.451716 0.992353
vt 0.408159 0.970159
vt 0.373591 0.935591
vt 0.351397 0.892034
vt 0.343750 0.843750
vt 0.351397 0.795466
vt 0.373591 0.751909
vt 0.408159 0.717341
vt 0.451716 0.695147
vt 0.500000 0.687500
vt 0.548284 0.695147
vt 0.591842 0.717341
vt 0.626409 0.751908
vt 0.648603 0.795466
vt 0.656250 0.843750
vt 0.648603 0.892034
vt 0.626409 0.935591
vt 0.591841 0.970159
vt 0.548284 0.992353
vt 0.500000 1.000000
vt 0.451716 0.992353
vt 0.408159 0.970159
vt 0.373591 0.935591
vt 0.351397 0.892034
vt 0.343750 0.843750
vt 0.351397 0.795466
vt 0.373591 0.751909
vt 0.408159 0.717341
vt 0.451716 0.695147
vt 0.500000 0.687500
vt 0.548284 0.695147
vt 0.591842 0.717341
vt 0.626409 0.751908
vt 0.648603 0.795466
vt 0.656250 0.843750
vt 0.648603 0.892034
vt 0.626409 0.935591
vt 0.591841 0.970159
vt 0.548284 0.992353
vt 0.500000 1.000000
vt 0.451716 0.992353
vt 0.408159 0.970159
vt 0.373591 0.935591
vt 0.351397 0.892034
vt 0.343750 0.843750
vt 0.351397 0.795466
vt 0.373591 0.751909
vt 0.408159 0.717341
vt 0.451716 0.695147
vt 0.500000 0.687500
vt 0.548284 0.695147
vt 0.591842 0.717341
vt 0.626409 0.751908
vt 0.648603 0.795466
vt 0.656250 0.843750
vt 0.648603 0.892034
vt 0.626409 0.935591
vt 0.591841 0.970159
vt 0.548284 0.992353
vt 0.500000 1.000000
vt 0.451716 0.992353
vt 0.408159 0.970159
vt 0.373591 0.935591
vt 0.351397 0.892034
vt 0.343750 0.843750
vt 0.351397 0.795466
vt 0.373591 0.751909
vt 0.408159 0.717341
vt 0.451716 0.695147
vt 0.500000 0.687500
vt 0.548284 0.695147
vt 0.591842 0.717341
vt 0.626409 0.751908
vt 0.648603 0.795466
vt 0.656250 0.843750
vt 0.648603 0.892034
vt 0.626409 0.935591
vt 0.591841 0.970159
vt 0.548284 0.992353
vt 0.500000 1.000000
vt 0.451716 0.992353
vt 0.408159 0.970159
vt 0.373591 0.935591
vt 0.351397 0.892034
vt 0.343750 0.843750
vt 0.351397 0.795466
vt 0.373591 0.751909
vt 0.408159 0.717341
vt 0.451716 0.695147
vt 0.500000 0.687500
vt 0.548284 0.695147
vt 0.591842 0.717341
vt 0.626409 0.751908
vt 0.648603 0.795466
vt 0.656250 0.843750
vn 0.937116 -0.170595 -0.304486
vn 0.797158 -0.170595 -0.579169
vn 0.802682 -0.124902 -0.583182
vn 0.943609 -0.124902 -0.306596
vn 0.579169 -0.170595 -0.797158
vn 0.583182 -0.124902 -0.802682
vn 0.304487 -0.170594 -0.937115
vn 0.306597 -0.124902 -0.943609
vn -0.000000 -0.170594 -0.985341
vn 0.000000 -0.124902 -0.992169
vn -0.304488 -0.170594 -0.937115
vn -0.306597 -0.124902 -0.943609
vn -0.579169 -0.170594 -0.797158
vn -0.583182 -0.124902 -0.802682
vn -0.797158 -0.170594 -0.579169
vn -0.802682 -0.124902 -0.583182
vn -0.937115 -0.170594 -0.304487
vn -0.943609 -0.124902 -0.306597
vn -0.985341 -0.170594 -0.000000
vn -0.992169 -0.124902 -0.000000
vn -0.937115 -0.170594 0.304487
vn -0.943609 -0.124902 0.306597
vn -0.797158 -0.170594 0.579169
vn -0.802682 -0.124902 0.583182
vn -0.579169 -0.170594 0.797158
vn -0.583182 -0.124902 0.802682
vn -0.304487 -0.170594 0.937115
vn -0.306597 -0.124902 0.943609
vn 0.000000 -0.170594 0.985341
vn 0.000000 -0.124902 0.992169
vn 0.304487 -0.170594 0.937115
vn 0.306597 -0.124902 0.943609
vn 0.579169 -0.170594 0.797158
vn 0.583182 -0.124902 0.802682
vn 0.797158 -0.170594 0.579169
vn 0.802682 -0.124902 0.583182
vn 0.937115 -0.170594 0.304487
vn 0.943609 -0.124902 0.306597
vn 0.985341 -0.170594 0.000001
vn 0.992169 -0.124902 0.000001
vn 0.000000 -1.000000 0.000000
vn 0.000000 -1.000000 0.000000
vn 0.000000 -1.000000 0.000000
vn 0.000000 -1.000000 0.000000
vn 0.000000 -1.000000 0.000000
vn 0.000000 -1.000000 0.000000
vn 0.000000 -1.000000 0.000000
vn 0.000000 -1.000000 0.000000
vn 0.000000 -1.000000 0.000000
vn 0.000000 -1.000000 0.000000
vn 0.000000 -1.000000 0.000000
vn 0.000000 -1.000000 0.000000
vn 0.000000 -1.000000 0.000000
vn 0.000000 -1.000000 0.000000
vn 0.000000 -1.000000 0.000000
vn 0.000000 -1.000000 0.000000
vn 0.000000 -1.000000 0.000000
vn 0.000000 -1.000000 0.000000
vn 0.000000 -1.000000 0.000000
vn 0.000000 -1.000000 0.000000
vn 0.000000 -1.000000 0.000000
vn 0.000000 1.000000 0.000000
vn 0.000000 1.000000 0.000000
vn 0.000000 1.000000 0.000000
vn 0.000000 1.000000 -0.000000
vn 0.000000 1.000000 -0.000000
vn -0.000000 1.000000 -0.000000
vn -0.000000 1.000000 -0.000000
vn -0.000000 1.000000 0.000000
vn -0.000000 1.000000 0.000000
vn -0.000000 1.000000 -0.000000
vn -0.000000 1.000000 0.000000
vn -0.000000 1.000000 0.000000
vn -0.000000 1.000000 -0.000000
vn -0.000000 1.000000 -0.000000
vn 0.000000 1.000000 0.000000
vn 0.000000 1.000000 0.000000
vn -0.000000 1.000000 0.000000
vn -0.000000 1.000000 0.000000
vn 0.000000 1.000000 -0.000000
vn 0.000000 1.000000 -0.000000
vn 0.000000 1.000000 0.000000
vn 0.672419 0.556040 -0.488541
vn 0.790477 0.556040 -0.256840
vn 0.488541 0.556040 -0.672419
vn 0.256841 0.556039 -0.790477
vn 0.000000 0.556039 -0.831156
vn -0.256841 0.556039 -0.790476
vn -0.488541 0.556039 -0.672419
vn -0.672419 0.556040 -0.488541
vn -0.790476 0.556040 -0.256841
vn -0.831156 0.556039 -0.000000
vn -0.790477 0.556039 0.256841
vn -0.672419 0.556040 0.488541
vn -0.488541 0.556040 0.672419
vn -0.256841 0.556039 0.790477
vn 0.000000 0.556039 0.831156
vn 0.256842 0.556040 0.790476
vn 0.488541 0.556040 0.672419
vn 0.672419 0.556040 0.488541
vn 0.790476 0.556040 0.256841
vn 0.831156 0.556040 0.000001
vn 0.951057 0.000000 -0.309016
vn 0.809017 0.000001 -0.587786
vn 0.809017 0.000001 -0.587785
vn 0.951057 0.000000 -0.309016
vn 0.587785 0.000000 -0.809017
vn 0.587785 0.000000 -0.809017
vn 0.309017 0.000000 -0.951057
vn 0.309017 0.000000 -0.951057
vn 0.000000 0.000000 -1.000000
vn 0.000000 0.000000 -1.000000
vn -0.309017 0.000000 -0.951057
vn -0.309017 0.000000 -0.951056
vn -0.587785 0.000000 -0.809017
vn -0.587785 0.000000 -0.809017
vn -0.809017 0.000000 -0.587785
vn -0.809017 0.000000 -0.587785
vn -0.951057 0.000000 -0.309017
vn -0.951057 0.000000 -0.309017
vn -1.000000 0.000000 0.000000
vn -1.000000 0.000000 0.000000
vn -0.951057 0.000000 0.309017
vn -0.951057 0.000000 0.309017
vn -0.809017 0.000000 0.587785
vn -0.809017 0.000000 0.587785
vn -0.587785 0.000000 0.809017
vn -0.587785 0.000000 0.809017
vn -0.309017 0.000000 0.951057
vn -0.309017 0.000000 0.951057
vn -0.000000 0.000000 1.000000
vn -0.000000 0.000000 1.000000
vn 0.309017 0.000000 0.951057
vn 0.309017 0.000000 0.951056
vn 0.587785 0.000000 0.809017
vn 0.587785 0.000000 0.809017
vn 0.809017 0.000000 0.587786
vn 0.809017 0.000000 0.587785
vn 0.951057 0.000000 0.309017
vn 0.951057 0.000000 0.309017
vn 1.000000 0.000000 0.000001
vn 1.000000 0.000000 0.000001
vn 0.000000 1.000000 0.000000
vn 0.000000 1.000000 0.000000
vn 0.000000 1.000000 0.000000
vn 0.000000 1.000000 0.000000
vn 0.000000 1.000000 0.000001
vn 0.000000 1.000000 0.000001
vn 0.000000 1.000000 0.000001
vn 0.000000 1.000000 0.000001
vn 0.000000 1.000000 0.000000
vn 0.000000 1.000000 0.000000
vn 0.000000 1.000000 0.000000
vn 0.000000 1.000000 0.000000
vn 0.000000 1.000000 0.000000
vn 0.000000 1.000000 0.000000
vn 0.000000 1.000000 0.000000
vn 0.000000 1.000000 0.000000
vn -0.000001 1.000000 0.000000
vn -0.000001 1.000000 0.000000
vn -0.000001 1.000000 0.000000
vn -0.000001 1.000000 0.000000
vn 0.000000 1.000000 -0.000001
vn 0.000000 1.000000 -0.000001
vn 0.000000 1.000000 -0.000001
vn 0.000000 1.000000 -0.000001
vn -0.000000 1.000000 0.000000
vn -0.000000 1.000000 0.000000
vn -0.000000 1.000000 0.000000
vn -0.000000 1.000000 0.000000
vn 0.000000 1.000000 0.000000
vn 0.000000 1.000000 0.000000
vn 0.000000 1.000000 0.000000
vn 0.000000 1.000000 0.000000
vn 0.000000 1.000000 0.000000
vn 0.000000 1.000000 0.000000
vn 0.000000 1.000000 0.000000
vn 0.000000 1.000000 0.000000
vn 0.000000 1.000000 -0.000001
vn 0.000000 1.000000 -0.000001
vn 0.000000 1.000000 -0.000001
vn 0.000000 1.000000 -0.000001
vn 0.000000 1.000000 -0.000001
vn 0.000000 1.000000 -0.000001
vn 0.000000 1.000000 -0.000001
vn 0.000000 1.000000 -0.000001
vn 0.000000 1.000000 0.000001
vn 0.000000 1.000000 0.000001
vn 0.000000 1.000000 0.000001
vn 0.000000 1.000000 0.000001
vn 0.000000 1.000000 0.000001
vn 0.000000 1.000000 0.000001
vn 0.000000 1.000000 0.000001
vn 0.000000 1.000000 0.000001
vn 0.000000 1.000000 0.000000
vn 0.000000 1.000000 0.000000
vn 0.000000 1.000000 0.000000
vn 0.000000 1.000000 0.000000
vn 0.000000 1.000000 0.000001
vn 0.000000 1.000000 0.000001
vn 0.000000 1.000000 0.000001
vn 0.000000 1.000000 0.000001
vn 0.000000 1.000000 -0.000001
vn 0.000000 1.000000 -0.000001
vn 0.000000 1.000000 -0.000001
vn 0.000000 1.000000 -0.000001
vn 0.000000 1.000000 0.000000
vn 0.000000 1.000000 0.000000
vn 0.000000 1.000000 0.000000
vn 0.000000 1.000000 0.000000
vn 0.000000 1.000000 0.000000
vn 0.000000 1.000000 0.000000
vn 0.000000 1.000000 0.000000
vn 0.000000 1.000000 0.000000
vn 0.000000 1.000000 0.000000
vn 0.000000 1.000000 0.000000
vn 0.000000 1.000000 0.000000
vn 0.000000 1.000000 0.000000
vn 0.000000 1.000000 0.000001
vn 0.000000 1.000000 0.000001
vn 0.000000 1.000000 0.000001
vn 0.000000 1.000000 0.000001
vn -0.951057 -0.000000 0.309017
vn -0.809016 -0.000000 0.587786
vn -0.804986 0.099698 0.584858
vn -0.946318 0.099698 0.307478
vn -0.587786 0.000000 0.809017
vn -0.584857 0.099698 0.804986
vn -0.309017 -0.000000 0.951056
vn -0.307478 0.099698 0.946318
vn 0.000000 -0.000000 1.000000
vn 0.000000 0.099698 0.995018
vn 0.309017 -0.000000 0.951057
vn 0.307477 0.099698 0.946318
vn 0.587784 -0.000000 0.809018
vn 0.584856 0.099698 0.804987
vn 0.809017 -0.000000 0.587785
vn 0.804987 0.099698 0.584856
vn 0.951057 -0.000000 0.309017
vn 0.946318 0.099698 0.307477
vn 1.000000 0.000000 0.000000
vn 0.995018 0.099698 -0.000000
vn 0.951057 -0.000000 -0.309017
vn 0.946318 0.099698 -0.307477
vn 0.809017 -0.000000 -0.587785
vn 0.804987 0.099698 -0.584856
vn 0.587784 -0.000001 -0.809018
vn 0.584855 0.099698 -0.804987
vn 0.309016 -0.000000 -0.951057
vn 0.307476 0.099698 -0.946319
vn 0.000000 0.000000 -1.000000
vn 0.000000 0.099698 -0.995018
vn -0.309017 0.000000 -0.951057
vn -0.307478 0.099699 -0.946318
vn -0.587786 0.000000 -0.809017
vn -0.584857 0.099698 -0.804986
vn -0.809017 0.000000 -0.587786
vn -0.804986 0.099698 -0.584857
vn -0.951057 0.000000 -0.309017
vn -0.946318 0.099698 -0.307477
vn -1.000000 -0.000000 -0.000001
vn -0.995018 0.099698 -0.000001
vn -0.787186 0.230737 0.571926
vn -0.925393 0.230737 0.300679
vn -0.571925 0.230737 0.787186
vn -0.300680 0.230737 0.925393
vn 0.000001 0.230737 0.973016
vn 0.300678 0.230737 0.925394
vn 0.571923 0.230737 0.787188
vn 0.787187 0.230737 0.571923
vn 0.925394 0.230737 0.300678
vn 0.973016 0.230737 0.000000
vn 0.925394 0.230737 -0.300678
vn 0.787187 0.230737 -0.571923
vn 0.571922 0.230737 -0.787188
vn 0.300676 0.230737 -0.925394
vn 0.000001 0.230737 -0.973016
vn -0.300679 0.230737 -0.925393
vn -0.571925 0.230737 -0.787186
vn -0.787186 0.230737 -0.571925
vn -0.925394 0.230737 -0.300678
vn -0.973016 0.230737 -0.000001
s 1
g pCylinder1
usemtl initialShadingGroup
f 243/305/523 244/306/524 264/327/525 263/326/526
f 244/306/524 245/307/527 265/328/528 264/327/525
f 245/307/527 246/308/529 266/329/530 265/328/528
f 246/308/529 247/309/531 267/330/532 266/329/530
f 247/309/531 248/310/533 268/331/534 267/330/532
f 248/310/533 249/311/535 269/332/536 268/331/534
f 249/311/535 250/312/537 270/333/538 269/332/536
f 250/312/537 251/313/539 271/334/540 270/333/538
f 251/313/539 252/314/541 272/335/542 271/334/540
f 252/314/541 253/315/543 273/336/544 272/335/542
f 253/315/543 254/316/545 274/337/546 273/336/544
f 254/316/545 255/317/547 275/338/548 274/337/546
f 255/317/547 256/318/549 276/339/550 275/338/548
f 256/318/549 257/319/551 277/340/552 276/339/550
f 257/319/551 258/320/553 278/341/554 277/340/552
f 258/320/553 259/321/555 279/342/556 278/341/554
f 259/321/555 260/322/557 280/343/558 279/342/556
f 260/322/557 261/323/559 281/344/560 280/343/558
f 261/323/559 262/324/561 282/345/562 281/344/560
f 262/324/561 243/325/523 263/346/526 282/345/562
s 2
f 244/286/563 243/285/564 283/367/565
f 245/287/566 244/286/563 283/367/565
f 246/288/567 245/287/566 283/367/565
f 247/289/568 246/288/567 283/367/565
f 248/290/569 247/289/568 283/367/565
f 249/291/570 248/290/569 283/367/565
f 250/292/571 249/291/570 283/367/565
f 251/293/572 250/292/571 283/367/565
f 252/294/573 251/293/572 283/367/565
f 253/295/574 252/294/573 283/367/565
f 254/296/575 253/295/574 283/367/565
f 255/297/576 254/296/575 283/367/565
f 256/298/577 255/297/576 283/367/565
f 257/299/578 256/298/577 283/367/565
f 258/300/579 257/299/578 283/367/565
f 259/301/580 258/300/579 283/367/565
f 260/302/581 259/301/580 283/367/565
f 261/303/582 260/302/581 283/367/565
f 262/304/583 261/303/582 283/367/565
f 243/285/564 262/304/583 283/367/565
s 3
f 364/449/584 365/450/585 366/368/586
f 365/450/585 367/451/587 366/368/586
f 367/451/587 368/452/588 366/368/586
f 368/452/588 369/453/589 366/368/586
f 369/453/589 370/454/590 366/368/586
f 370/454/590 371/455/591 366/368/586
f 371/455/591 372/456/592 366/368/586
f 372/456/592 373/457/593 366/368/586
f 373/457/593 374/458/594 366/368/586
f 374/458/594 375/459/595 366/368/586
f 375/459/595 376/460/596 366/368/586
f 376/460/596 377/461/597 366/368/586
f 377/461/597 378/462/598 366/368/586
f 378/462/598 379/463/599 366/368/586
f 379/463/599 380/464/600 366/368/586
f 380/464/600 381/465/601 366/368/586
f 381/465/601 382/466/602 366/368/586
f 382/466/602 383/467/603 366/368/586
f 383/467/603 384/468/604 366/368/586
f 384/468/604 364/449/584 366/368/586
s 1
f 263/365/526 264/364/525 285/370/605 284/369/606
f 264/364/525 265/363/528 286/371/607 285/370/605
f 265/363/528 266/362/530 287/372/608 286/371/607
f 266/362/530 267/361/532 288/373/609 287/372/608
f 267/361/532 268/360/534 289/374/610 288/373/609
f 268/360/534 269/359/536 290/375/611 289/374/610
f 269/359/536 270/358/538 291/376/612 290/375/611
f 270/358/538 271/357/540 292/377/613 291/376/612
f 271/357/540 272/356/542 293/378/614 292/377/613
f 272/356/542 273/355/544 294/379/615 293/378/614
f 273/355/544 274/354/546 295/380/616 294/379/615
f 274/354/546 275/353/548 296/381/617 295/380/616
f 275/353/548 276/352/550 297/382/618 296/381/617
f 276/352/550 277/351/552 298/383/619 297/382/618
f 277/351/552 278/350/554 299/384/620 298/383/619
f 278/350/554 279/349/556 300/385/621 299/384/620
f 279/349/556 280/348/558 301/386/622 300/385/621
f 280/348/558 281/347/560 302/387/623 301/386/622
f 281/347/560 282/366/562 303/388/624 302/387/623
f 282/366/562 263/365/526 284/369/606 303/388/624
s 4
f 284/369/625 285/370/626 305/390/627 304/389/628
f 285/370/626 286/371/629 306/391/630 305/390/627
f 286/371/629 287/372/631 307/392/632 306/391/630
f 287/372/631 288/373/633 308/393/634 307/392/632
f 288/373/633 289/374/635 309/394/636 308/393/634
f 289/374/635 290/375/637 310/395/638 309/394/636
f 290/375/637 291/376/639 311/396/640 310/395/638
f 291/376/639 292/377/641 312/397/642 311/396/640
f 292/377/641 293/378/643 313/398/644 312/397/642
f 293/378/643 294/379/645 314/399/646 313/398/644
f 294/379/645 295/380/647 315/400/648 314/399/646
f 295/380/647 296/381/649 316/401/650 315/400/648
f 296/381/649 297/382/651 317/402/652 316/401/650
f 297/382/651 298/383/653 318/403/654 317/402/652
f 298/383/653 299/384/655 319/404/656 318/403/654
f 299/384/655 300/385/657 320/405/658 319/404/656
f 300/385/657 301/386/659 321/406/660 320/405/658
f 301/386/659 302/387/661 322/407/662 321/406/660
f 302/387/661 303/388/663 323/408/664 322/407/662
f 303/388/663 284/369/625 304/389/628 323/408/664
s off
f 304/389/665 305/390/666 325/410/667 324/409/668
f 305/390/669 306/391/670 326/411/671 325/410/672
f 306/391/673 307/392/674 327/412/675 326/411/676
f 307/392/677 308/393/678 328/413/679 327/412/680
f 308/393/681 309/394/682 329/414/683 328/413/684
f 309/394/685 310/395/686 330/415/687 329/414/688
f 310/395/689 311/396/690 331/416/691 330/415/692
f 311/396/693 312/397/694 332/417/695 331/416/696
f 312/397/697 313/398/698 333/418/699 332/417/700
f 313/398/701 314/399/702 334/419/703 333/418/704
f 314/399/705 315/400/706 335/420/707 334/419/708
f 315/400/709 316/401/710 336/421/711 335/420/712
f 316/401/713 317/402/714 337/422/715 336/421/716
f 317/402/717 318/403/718 338/423/719 337/422/720
f 318/403/721 319/404/722 339/424/723 338/423/724
f 319/404/725 320/405/726 340/425/727 339/424/728
f 320/405/729 321/406/730 341/426/731 340/425/732
f 321/406/733 322/407/734 342/427/735 341/426/736
f 322/407/737 323/408/738 343/428/739 342/427/740
f 323/408/741 304/389/742 324/409/743 343/428/744
s 5
f 324/409/745 325/410/746 345/430/747 344/429/748
f 325/410/746 326/411/749 346/431/750 345/430/747
f 326/411/749 327/412/751 347/432/752 346/431/750
f 327/412/751 328/413/753 348/433/754 347/432/752
f 328/413/753 329/414/755 349/434/756 348/433/754
f 329/414/755 330/415/757 350/435/758 349/434/756
f 330/415/757 331/416/759 351/436/760 350/435/758
f 331/416/759 332/417/761 352/437/762 351/436/760
f 332/417/761 333/418/763 353/438/764 352/437/762
f 333/418/763 334/419/765 354/439/766 353/438/764
f 334/419/765 335/420/767 355/440/768 354/439/766
f 335/420/767 336/421/769 356/441/770 355/440/768
f 336/421/769 337/422/771 357/442/772 356/441/770
f 337/422/771 338/423/773 358/443/774 357/442/772
f 338/423/773 339/424/775 359/444/776 358/443/774
f 339/424/775 340/425/777 360/445/778 359/444/776
f 340/425/777 341/426/779 361/446/780 360/445/778
f 341/426/779 342/427/781 362/447/782 361/446/780
f 342/427/781 343/428/783 363/448/784 362/447/782
f 343/428/783 324/409/745 344/429/748 363/448/784
f 344/429/748 345/430/747 365/450/785 364/449/786
f 345/430/747 346/431/750 367/451/787 365/450/785
f 346/431/750 347/432/752 368/452/788 367/451/787
f 347/432/752 348/433/754 369/453/789 368/452/788
f 348/433/754 349/434/756 370/454/790 369/453/789
f 349/434/756 350/435/758 371/455/791 370/454/790
f 350/435/758 351/436/760 372/456/792 371/455/791
f 351/436/760 352/437/762 373/457/793 372/456/792
f 352/437/762 353/438/764 374/458/794 373/457/793
f 353/438/764 354/439/766 375/459/795 374/458/794
f 354/439/766 355/440/768 376/460/796 375/459/795
f 355/440/768 356/441/770 377/461/797 376/460/796
f 356/441/770 357/442/772 378/462/798 377/461/797
f 357/442/772 358/443/774 379/463/799 378/462/798
f 358/443/774 359/444/776 380/464/800 379/463/799
f 359/444/776 360/445/778 381/465/801 380/464/800
f 360/445/778 361/446/780 382/466/802 381/465/801
f 361/446/780 362/447/782 383/467/803 382/466/802
f 362/447/782 363/448/784 384/468/804 383/467/803
f 363/448/784 344/429/748 364/449/786 384/468/804
